%TF.GenerationSoftware,KiCad,Pcbnew,8.0.7*%
%TF.CreationDate,2025-01-09T15:44:16+07:00*%
%TF.ProjectId,RoboCar_PCB,526f626f-4361-4725-9f50-43422e6b6963,rev?*%
%TF.SameCoordinates,Original*%
%TF.FileFunction,Soldermask,Top*%
%TF.FilePolarity,Negative*%
%FSLAX46Y46*%
G04 Gerber Fmt 4.6, Leading zero omitted, Abs format (unit mm)*
G04 Created by KiCad (PCBNEW 8.0.7) date 2025-01-09 15:44:16*
%MOMM*%
%LPD*%
G01*
G04 APERTURE LIST*
G04 Aperture macros list*
%AMRoundRect*
0 Rectangle with rounded corners*
0 $1 Rounding radius*
0 $2 $3 $4 $5 $6 $7 $8 $9 X,Y pos of 4 corners*
0 Add a 4 corners polygon primitive as box body*
4,1,4,$2,$3,$4,$5,$6,$7,$8,$9,$2,$3,0*
0 Add four circle primitives for the rounded corners*
1,1,$1+$1,$2,$3*
1,1,$1+$1,$4,$5*
1,1,$1+$1,$6,$7*
1,1,$1+$1,$8,$9*
0 Add four rect primitives between the rounded corners*
20,1,$1+$1,$2,$3,$4,$5,0*
20,1,$1+$1,$4,$5,$6,$7,0*
20,1,$1+$1,$6,$7,$8,$9,0*
20,1,$1+$1,$8,$9,$2,$3,0*%
G04 Aperture macros list end*
%ADD10RoundRect,0.200000X0.200000X0.275000X-0.200000X0.275000X-0.200000X-0.275000X0.200000X-0.275000X0*%
%ADD11RoundRect,0.200000X-0.275000X0.200000X-0.275000X-0.200000X0.275000X-0.200000X0.275000X0.200000X0*%
%ADD12O,1.700000X1.700000*%
%ADD13RoundRect,0.225000X0.225000X0.250000X-0.225000X0.250000X-0.225000X-0.250000X0.225000X-0.250000X0*%
%ADD14RoundRect,0.200000X-0.200000X-0.275000X0.200000X-0.275000X0.200000X0.275000X-0.200000X0.275000X0*%
%ADD15C,2.595000*%
%ADD16RoundRect,0.225000X-0.250000X0.225000X-0.250000X-0.225000X0.250000X-0.225000X0.250000X0.225000X0*%
%ADD17RoundRect,0.200000X0.275000X-0.200000X0.275000X0.200000X-0.275000X0.200000X-0.275000X-0.200000X0*%
%ADD18RoundRect,0.150000X-0.512500X-0.150000X0.512500X-0.150000X0.512500X0.150000X-0.512500X0.150000X0*%
%ADD19R,1.500000X0.900000*%
%ADD20RoundRect,0.100000X0.637500X0.100000X-0.637500X0.100000X-0.637500X-0.100000X0.637500X-0.100000X0*%
%ADD21RoundRect,0.225000X-0.225000X-0.250000X0.225000X-0.250000X0.225000X0.250000X-0.225000X0.250000X0*%
%ADD22RoundRect,0.218750X0.218750X0.256250X-0.218750X0.256250X-0.218750X-0.256250X0.218750X-0.256250X0*%
%ADD23R,1.700000X1.700000*%
%ADD24R,3.500000X3.500000*%
%ADD25RoundRect,0.750000X1.000000X-0.750000X1.000000X0.750000X-1.000000X0.750000X-1.000000X-0.750000X0*%
%ADD26RoundRect,0.875000X0.875000X-0.875000X0.875000X0.875000X-0.875000X0.875000X-0.875000X-0.875000X0*%
%ADD27RoundRect,0.225000X0.250000X-0.225000X0.250000X0.225000X-0.250000X0.225000X-0.250000X-0.225000X0*%
%ADD28R,1.750000X0.450000*%
%ADD29RoundRect,0.218750X0.256250X-0.218750X0.256250X0.218750X-0.256250X0.218750X-0.256250X-0.218750X0*%
%ADD30R,2.000000X1.500000*%
%ADD31R,2.000000X3.800000*%
%ADD32RoundRect,0.150000X0.587500X0.150000X-0.587500X0.150000X-0.587500X-0.150000X0.587500X-0.150000X0*%
%ADD33C,1.650000*%
%ADD34RoundRect,0.102000X-0.400000X-1.250000X0.400000X-1.250000X0.400000X1.250000X-0.400000X1.250000X0*%
%ADD35O,1.304000X5.704000*%
%ADD36RoundRect,0.112500X0.187500X0.112500X-0.187500X0.112500X-0.187500X-0.112500X0.187500X-0.112500X0*%
%ADD37RoundRect,0.102000X1.700000X-1.175000X1.700000X1.175000X-1.700000X1.175000X-1.700000X-1.175000X0*%
%ADD38RoundRect,0.112500X-0.112500X0.187500X-0.112500X-0.187500X0.112500X-0.187500X0.112500X0.187500X0*%
%ADD39RoundRect,0.250000X-1.500000X-0.550000X1.500000X-0.550000X1.500000X0.550000X-1.500000X0.550000X0*%
%ADD40RoundRect,0.250000X-0.600000X-0.725000X0.600000X-0.725000X0.600000X0.725000X-0.600000X0.725000X0*%
%ADD41O,1.700000X1.950000*%
%ADD42RoundRect,0.250000X-0.750000X0.600000X-0.750000X-0.600000X0.750000X-0.600000X0.750000X0.600000X0*%
%ADD43O,2.000000X1.700000*%
%ADD44RoundRect,0.250000X0.750000X-0.600000X0.750000X0.600000X-0.750000X0.600000X-0.750000X-0.600000X0*%
%ADD45RoundRect,0.250000X-0.600000X-0.750000X0.600000X-0.750000X0.600000X0.750000X-0.600000X0.750000X0*%
%ADD46O,1.700000X2.000000*%
G04 APERTURE END LIST*
D10*
%TO.C,R6*%
X129327768Y-110521038D03*
X127677768Y-110521038D03*
%TD*%
%TO.C,R23*%
X102620000Y-70075000D03*
X100970000Y-70075000D03*
%TD*%
D11*
%TO.C,R2*%
X41545000Y-104077500D03*
X41545000Y-105727500D03*
%TD*%
D12*
%TO.C,J8*%
X71455000Y-109022500D03*
X73995000Y-109022500D03*
X76535000Y-109022500D03*
X79075000Y-109022500D03*
%TD*%
D13*
%TO.C,C16*%
X123497768Y-117021038D03*
X121947768Y-117021038D03*
%TD*%
D14*
%TO.C,R14*%
X86720000Y-70425000D03*
X88370000Y-70425000D03*
%TD*%
D15*
%TO.C,S1*%
X117785000Y-140002500D03*
X113085000Y-140002500D03*
X108385000Y-140002500D03*
%TD*%
D16*
%TO.C,C21*%
X111295000Y-109537500D03*
X111295000Y-111087500D03*
%TD*%
D17*
%TO.C,R30*%
X96605000Y-112612500D03*
X96605000Y-110962500D03*
%TD*%
D10*
%TO.C,R3*%
X129327768Y-112521038D03*
X127677768Y-112521038D03*
%TD*%
D16*
%TO.C,C22*%
X99835000Y-114039732D03*
X99835000Y-115589732D03*
%TD*%
D18*
%TO.C,U4*%
X122195000Y-113435000D03*
X122195000Y-114385000D03*
X122195000Y-115335000D03*
X124470000Y-115335000D03*
X124470000Y-114385000D03*
X124470000Y-113435000D03*
%TD*%
D19*
%TO.C,D2*%
X39105000Y-73192500D03*
X39105000Y-69892500D03*
X34205000Y-69892500D03*
X34205000Y-73192500D03*
%TD*%
D20*
%TO.C,U3*%
X97667500Y-76935000D03*
X97667500Y-76285000D03*
X97667500Y-75635000D03*
X97667500Y-74985000D03*
X97667500Y-74335000D03*
X97667500Y-73685000D03*
X97667500Y-73035000D03*
X97667500Y-72385000D03*
X97667500Y-71735000D03*
X97667500Y-71085000D03*
X97667500Y-70435000D03*
X97667500Y-69785000D03*
X97667500Y-69135000D03*
X97667500Y-68485000D03*
X91942500Y-68485000D03*
X91942500Y-69135000D03*
X91942500Y-69785000D03*
X91942500Y-70435000D03*
X91942500Y-71085000D03*
X91942500Y-71735000D03*
X91942500Y-72385000D03*
X91942500Y-73035000D03*
X91942500Y-73685000D03*
X91942500Y-74335000D03*
X91942500Y-74985000D03*
X91942500Y-75635000D03*
X91942500Y-76285000D03*
X91942500Y-76935000D03*
%TD*%
D14*
%TO.C,R7*%
X86720000Y-74875000D03*
X88370000Y-74875000D03*
%TD*%
D21*
%TO.C,C4*%
X113595000Y-77435000D03*
X115145000Y-77435000D03*
%TD*%
D13*
%TO.C,C15*%
X123497768Y-119021038D03*
X121947768Y-119021038D03*
%TD*%
D22*
%TO.C,D6*%
X75395000Y-131582500D03*
X73820000Y-131582500D03*
%TD*%
D13*
%TO.C,C10*%
X150655000Y-67822500D03*
X149105000Y-67822500D03*
%TD*%
D23*
%TO.C,J7*%
X71455000Y-114102500D03*
X73995000Y-114102500D03*
X76535000Y-114102500D03*
X79075000Y-114102500D03*
%TD*%
D24*
%TO.C,J11*%
X75347768Y-137696038D03*
D25*
X75347768Y-143696038D03*
D26*
X80047768Y-140696038D03*
%TD*%
D16*
%TO.C,C1*%
X112470000Y-71060000D03*
X112470000Y-72610000D03*
%TD*%
D27*
%TO.C,C6*%
X78317768Y-73106038D03*
X78317768Y-71556038D03*
%TD*%
D13*
%TO.C,C11*%
X150760000Y-99792500D03*
X149210000Y-99792500D03*
%TD*%
D14*
%TO.C,R13*%
X86715000Y-68275000D03*
X88365000Y-68275000D03*
%TD*%
D19*
%TO.C,D9*%
X149625000Y-69852500D03*
X149625000Y-73152500D03*
X154525000Y-73152500D03*
X154525000Y-69852500D03*
%TD*%
D28*
%TO.C,U2*%
X67355000Y-68460000D03*
X67355000Y-69110000D03*
X67355000Y-69760000D03*
X67355000Y-70410000D03*
X67355000Y-71060000D03*
X67355000Y-71710000D03*
X67355000Y-72360000D03*
X67355000Y-73010000D03*
X67355000Y-73660000D03*
X67355000Y-74310000D03*
X67355000Y-74960000D03*
X67355000Y-75610000D03*
X74555000Y-75610000D03*
X74555000Y-74960000D03*
X74555000Y-74310000D03*
X74555000Y-73660000D03*
X74555000Y-73010000D03*
X74555000Y-72360000D03*
X74555000Y-71710000D03*
X74555000Y-71060000D03*
X74555000Y-70410000D03*
X74555000Y-69760000D03*
X74555000Y-69110000D03*
X74555000Y-68460000D03*
%TD*%
D14*
%TO.C,R17*%
X73820000Y-133212500D03*
X75470000Y-133212500D03*
%TD*%
D19*
%TO.C,D8*%
X149665000Y-101942500D03*
X149665000Y-105242500D03*
X154565000Y-105242500D03*
X154565000Y-101942500D03*
%TD*%
D10*
%TO.C,R16*%
X102620000Y-71775000D03*
X100970000Y-71775000D03*
%TD*%
D29*
%TO.C,D12*%
X96605000Y-115600000D03*
X96605000Y-114025000D03*
%TD*%
D21*
%TO.C,C19*%
X122295000Y-108521038D03*
X123845000Y-108521038D03*
%TD*%
D14*
%TO.C,R8*%
X86720000Y-77125000D03*
X88370000Y-77125000D03*
%TD*%
D30*
%TO.C,U5*%
X108355000Y-113889732D03*
X108355000Y-111589732D03*
D31*
X102055000Y-111589732D03*
D30*
X108355000Y-109289732D03*
%TD*%
D21*
%TO.C,C12*%
X34200000Y-67902500D03*
X35750000Y-67902500D03*
%TD*%
D10*
%TO.C,R29*%
X123577768Y-133852500D03*
X121927768Y-133852500D03*
%TD*%
D22*
%TO.C,D11*%
X127872500Y-133852500D03*
X126297500Y-133852500D03*
%TD*%
D13*
%TO.C,C17*%
X116302768Y-118835000D03*
X114752768Y-118835000D03*
%TD*%
D32*
%TO.C,Q2*%
X82085000Y-132842500D03*
X82085000Y-130942500D03*
X80210000Y-131892500D03*
%TD*%
D21*
%TO.C,C20*%
X127727768Y-114771038D03*
X129277768Y-114771038D03*
%TD*%
D14*
%TO.C,R4*%
X127677768Y-116771038D03*
X129327768Y-116771038D03*
%TD*%
D33*
%TO.C,J1*%
X81885000Y-84245000D03*
X107885000Y-84245000D03*
D34*
X70120000Y-91095000D03*
X71390000Y-91095000D03*
X72660000Y-91095000D03*
X73930000Y-91095000D03*
X75200000Y-91095000D03*
X76470000Y-91095000D03*
X77740000Y-91095000D03*
X79010000Y-91095000D03*
X80280000Y-91095000D03*
X81550000Y-91095000D03*
X82820000Y-91095000D03*
X84090000Y-91095000D03*
X85360000Y-91095000D03*
X86630000Y-91095000D03*
X87900000Y-91095000D03*
X89170000Y-91095000D03*
X90440000Y-91095000D03*
X91710000Y-91095000D03*
X92980000Y-91095000D03*
X94250000Y-91095000D03*
X95520000Y-91095000D03*
X96790000Y-91095000D03*
X98060000Y-91095000D03*
X99330000Y-91095000D03*
X100600000Y-91095000D03*
X101870000Y-91095000D03*
X103140000Y-91095000D03*
X104410000Y-91095000D03*
X105680000Y-91095000D03*
X106950000Y-91095000D03*
X108220000Y-91095000D03*
X109490000Y-91095000D03*
X110760000Y-91095000D03*
X112030000Y-91095000D03*
X113300000Y-91095000D03*
X114570000Y-91095000D03*
X115840000Y-91095000D03*
X117110000Y-91095000D03*
X118380000Y-91095000D03*
X119650000Y-91095000D03*
D35*
X67885000Y-82585000D03*
X121885000Y-82585000D03*
%TD*%
D10*
%TO.C,R24*%
X102620000Y-68275000D03*
X100970000Y-68275000D03*
%TD*%
D16*
%TO.C,C2*%
X111010000Y-71060000D03*
X111010000Y-72610000D03*
%TD*%
D21*
%TO.C,C3*%
X113495000Y-66635000D03*
X115045000Y-66635000D03*
%TD*%
%TO.C,C18*%
X122295000Y-110885000D03*
X123845000Y-110885000D03*
%TD*%
D13*
%TO.C,C8*%
X76045000Y-66705000D03*
X74495000Y-66705000D03*
%TD*%
D27*
%TO.C,C5*%
X76770000Y-73110000D03*
X76770000Y-71560000D03*
%TD*%
D10*
%TO.C,R11*%
X102620000Y-77095000D03*
X100970000Y-77095000D03*
%TD*%
D36*
%TO.C,D4*%
X108382500Y-133022500D03*
X106282500Y-133022500D03*
%TD*%
D10*
%TO.C,R1*%
X79450000Y-134672500D03*
X77800000Y-134672500D03*
%TD*%
%TO.C,R9*%
X82415000Y-134672500D03*
X80765000Y-134672500D03*
%TD*%
%TO.C,R15*%
X102620000Y-73475000D03*
X100970000Y-73475000D03*
%TD*%
D12*
%TO.C,J9*%
X71455000Y-111562500D03*
X73995000Y-111562500D03*
X76535000Y-111562500D03*
X79075000Y-111562500D03*
%TD*%
D13*
%TO.C,C7*%
X76045000Y-77435000D03*
X74495000Y-77435000D03*
%TD*%
D10*
%TO.C,R5*%
X129327768Y-119021038D03*
X127677768Y-119021038D03*
%TD*%
D37*
%TO.C,L1*%
X115752768Y-116310000D03*
X115752768Y-110260000D03*
%TD*%
D38*
%TO.C,D1*%
X78110000Y-131117500D03*
X78110000Y-133217500D03*
%TD*%
D21*
%TO.C,C13*%
X91645000Y-78775000D03*
X93195000Y-78775000D03*
%TD*%
D14*
%TO.C,R10*%
X86720000Y-72725000D03*
X88370000Y-72725000D03*
%TD*%
D19*
%TO.C,D5*%
X39075000Y-105372500D03*
X39075000Y-102072500D03*
X34175000Y-102072500D03*
X34175000Y-105372500D03*
%TD*%
D10*
%TO.C,R12*%
X102620000Y-75275000D03*
X100970000Y-75275000D03*
%TD*%
D21*
%TO.C,C9*%
X34175000Y-100102500D03*
X35725000Y-100102500D03*
%TD*%
D28*
%TO.C,U1*%
X122305000Y-75605000D03*
X122305000Y-74955000D03*
X122305000Y-74305000D03*
X122305000Y-73655000D03*
X122305000Y-73005000D03*
X122305000Y-72355000D03*
X122305000Y-71705000D03*
X122305000Y-71055000D03*
X122305000Y-70405000D03*
X122305000Y-69755000D03*
X122305000Y-69105000D03*
X122305000Y-68455000D03*
X115105000Y-68455000D03*
X115105000Y-69105000D03*
X115105000Y-69755000D03*
X115105000Y-70405000D03*
X115105000Y-71055000D03*
X115105000Y-71705000D03*
X115105000Y-72355000D03*
X115105000Y-73005000D03*
X115105000Y-73655000D03*
X115105000Y-74305000D03*
X115105000Y-74955000D03*
X115105000Y-75605000D03*
%TD*%
D39*
%TO.C,C14*%
X123152768Y-139921038D03*
X128552768Y-139921038D03*
%TD*%
D22*
%TO.C,D3*%
X129290268Y-108521038D03*
X127715268Y-108521038D03*
%TD*%
D40*
%TO.C,J10*%
X90887768Y-31591038D03*
D41*
X93387768Y-31591038D03*
X95887768Y-31591038D03*
X98387768Y-31591038D03*
%TD*%
D42*
%TO.C,J5*%
X35745000Y-93472500D03*
D43*
X35745000Y-95972500D03*
%TD*%
D44*
%TO.C,J2*%
X152955000Y-95962500D03*
D43*
X152955000Y-93462500D03*
%TD*%
D45*
%TO.C,J6*%
X99577768Y-140561038D03*
D46*
X102077768Y-140561038D03*
%TD*%
D44*
%TO.C,J3*%
X152985000Y-79932500D03*
D43*
X152985000Y-77432500D03*
%TD*%
D42*
%TO.C,J4*%
X35795000Y-77442500D03*
D43*
X35795000Y-79942500D03*
%TD*%
G36*
X90739747Y-138263420D02*
G01*
X90818379Y-138279060D01*
X90863079Y-138297575D01*
X90919391Y-138335201D01*
X90953604Y-138369414D01*
X90991230Y-138425726D01*
X91009744Y-138470425D01*
X91025385Y-138549057D01*
X91027768Y-138573248D01*
X91027768Y-142448827D01*
X91025385Y-142473018D01*
X91009744Y-142551650D01*
X90991230Y-142596349D01*
X90953604Y-142652661D01*
X90919391Y-142686874D01*
X90863079Y-142724500D01*
X90818380Y-142743014D01*
X90739748Y-142758655D01*
X90715557Y-142761038D01*
X88839979Y-142761038D01*
X88815788Y-142758655D01*
X88737155Y-142743014D01*
X88692456Y-142724500D01*
X88636144Y-142686874D01*
X88601931Y-142652661D01*
X88564305Y-142596349D01*
X88545790Y-142551649D01*
X88530150Y-142473017D01*
X88527768Y-142448827D01*
X88527768Y-138573248D01*
X88530150Y-138549058D01*
X88545790Y-138470426D01*
X88564305Y-138425726D01*
X88601931Y-138369414D01*
X88636144Y-138335201D01*
X88692456Y-138297575D01*
X88737156Y-138279060D01*
X88815789Y-138263420D01*
X88839979Y-138261038D01*
X90715557Y-138261038D01*
X90739747Y-138263420D01*
G37*
G36*
X87239747Y-138263420D02*
G01*
X87318379Y-138279060D01*
X87363079Y-138297575D01*
X87419391Y-138335201D01*
X87453604Y-138369414D01*
X87491230Y-138425726D01*
X87509744Y-138470425D01*
X87525385Y-138549057D01*
X87527768Y-138573248D01*
X87527768Y-142448827D01*
X87525385Y-142473018D01*
X87509744Y-142551650D01*
X87491230Y-142596349D01*
X87453604Y-142652661D01*
X87419391Y-142686874D01*
X87363079Y-142724500D01*
X87318380Y-142743014D01*
X87239748Y-142758655D01*
X87215557Y-142761038D01*
X85339979Y-142761038D01*
X85315788Y-142758655D01*
X85237155Y-142743014D01*
X85192456Y-142724500D01*
X85136144Y-142686874D01*
X85101931Y-142652661D01*
X85064305Y-142596349D01*
X85045790Y-142551649D01*
X85030150Y-142473017D01*
X85027768Y-142448827D01*
X85027768Y-138573248D01*
X85030150Y-138549058D01*
X85045790Y-138470426D01*
X85064305Y-138425726D01*
X85101931Y-138369414D01*
X85136144Y-138335201D01*
X85192456Y-138297575D01*
X85237156Y-138279060D01*
X85315789Y-138263420D01*
X85339979Y-138261038D01*
X87215557Y-138261038D01*
X87239747Y-138263420D01*
G37*
G36*
X94239747Y-138263420D02*
G01*
X94318379Y-138279060D01*
X94363079Y-138297575D01*
X94419391Y-138335201D01*
X94453604Y-138369414D01*
X94491230Y-138425726D01*
X94509744Y-138470425D01*
X94525385Y-138549057D01*
X94527768Y-138573248D01*
X94527768Y-142448827D01*
X94525385Y-142473018D01*
X94509744Y-142551650D01*
X94491230Y-142596349D01*
X94453604Y-142652661D01*
X94419391Y-142686874D01*
X94363079Y-142724500D01*
X94318380Y-142743014D01*
X94239748Y-142758655D01*
X94215557Y-142761038D01*
X92339979Y-142761038D01*
X92315788Y-142758655D01*
X92237155Y-142743014D01*
X92192456Y-142724500D01*
X92136144Y-142686874D01*
X92101931Y-142652661D01*
X92064305Y-142596349D01*
X92045790Y-142551649D01*
X92030150Y-142473017D01*
X92027768Y-142448827D01*
X92027768Y-138573248D01*
X92030150Y-138549058D01*
X92045790Y-138470426D01*
X92064305Y-138425726D01*
X92101931Y-138369414D01*
X92136144Y-138335201D01*
X92192456Y-138297575D01*
X92237156Y-138279060D01*
X92315789Y-138263420D01*
X92339979Y-138261038D01*
X94215557Y-138261038D01*
X94239747Y-138263420D01*
G37*
M02*
