M48
; DRILL file {KiCad 8.0.7} date 2025-01-09T15:44:16+0700
; FORMAT={-:-/ absolute / inch / decimal}
; #@! TF.CreationDate,2025-01-09T15:44:16+07:00
; #@! TF.GenerationSoftware,Kicad,Pcbnew,8.0.7
; #@! TF.FileFunction,Plated,1,2,PTH
FMAT,2
INCH
; #@! TA.AperFunction,Plated,PTH,ViaDrill
T1C0.0118
; #@! TA.AperFunction,Plated,PTH,ViaDrill
T2C0.0157
; #@! TA.AperFunction,Plated,PTH,ComponentDrill
T3C0.0217
; #@! TA.AperFunction,Plated,PTH,ComponentDrill
T4C0.0374
; #@! TA.AperFunction,Plated,PTH,ViaDrill
T5C0.0394
; #@! TA.AperFunction,Plated,PTH,ComponentDrill
T6C0.0394
; #@! TA.AperFunction,Plated,PTH,ComponentDrill
T7C0.0681
%
G90
G05
T1
X1.3852Y-1.4733
X1.3852Y-1.6702
X1.3852Y-2.0639
X1.3852Y-2.2607
X1.3852Y-2.4576
X1.3852Y-3.245
X1.3852Y-3.4418
X1.3852Y-4.4261
X1.3852Y-4.6229
X1.3852Y-4.8198
X1.3852Y-5.2135
X1.3852Y-5.4103
X1.5821Y-1.2765
X1.5821Y-1.4733
X1.5821Y-1.6702
X1.5821Y-1.867
X1.5821Y-2.0639
X1.5821Y-2.2607
X1.5821Y-2.6544
X1.5821Y-3.245
X1.5821Y-3.4418
X1.5821Y-3.8355
X1.5821Y-4.4261
X1.5821Y-4.6229
X1.5821Y-4.8198
X1.5821Y-5.0166
X1.5821Y-5.2135
X1.5821Y-5.4103
X1.5821Y-5.6072
X1.7789Y-1.0796
X1.7789Y-1.2765
X1.7789Y-1.4733
X1.7789Y-2.0639
X1.7789Y-2.2607
X1.7789Y-2.4576
X1.7789Y-2.6544
X1.7789Y-3.245
X1.7789Y-3.8355
X1.7789Y-4.0324
X1.7789Y-4.2292
X1.7789Y-4.4261
X1.7789Y-4.6229
X1.7789Y-4.8198
X1.7789Y-5.0166
X1.7789Y-5.2135
X1.7789Y-5.4103
X1.7789Y-5.6072
X1.7789Y-5.804
X1.9758Y-0.8828
X1.9758Y-1.0796
X1.9758Y-1.2765
X1.9758Y-1.4733
X1.9758Y-2.0639
X1.9758Y-2.2607
X1.9758Y-2.4576
X1.9758Y-3.6387
X1.9758Y-3.8355
X1.9758Y-4.0324
X1.9758Y-4.2292
X1.9758Y-4.4261
X1.9758Y-4.6229
X1.9758Y-4.8198
X1.9758Y-5.0166
X1.9758Y-5.2135
X1.9758Y-5.4103
X1.9758Y-5.6072
X1.9758Y-5.804
X2.1726Y-0.8828
X2.1726Y-1.2765
X2.1726Y-1.4733
X2.1726Y-2.0639
X2.1726Y-2.2607
X2.1726Y-2.4576
X2.1726Y-2.6544
X2.1726Y-3.4418
X2.1726Y-3.6387
X2.1726Y-3.8355
X2.1726Y-4.0324
X2.1726Y-4.2292
X2.1726Y-4.4261
X2.1726Y-4.6229
X2.1726Y-4.8198
X2.1726Y-5.0166
X2.1726Y-5.2135
X2.1726Y-5.4103
X2.1726Y-5.6072
X2.1726Y-5.804
X2.3695Y-0.8828
X2.3695Y-1.0796
X2.3695Y-1.2765
X2.3695Y-1.4733
X2.3695Y-2.0639
X2.3695Y-2.2607
X2.3695Y-2.4576
X2.3695Y-2.6544
X2.3695Y-3.245
X2.3695Y-3.4418
X2.3695Y-3.6387
X2.3695Y-3.8355
X2.3695Y-4.0324
X2.3695Y-4.2292
X2.3695Y-4.4261
X2.3695Y-4.6229
X2.3695Y-4.8198
X2.3695Y-5.0166
X2.3695Y-5.2135
X2.3695Y-5.4103
X2.3695Y-5.6072
X2.3695Y-5.804
X2.5663Y-0.8828
X2.5663Y-1.0796
X2.5663Y-1.2765
X2.5663Y-1.4733
X2.5663Y-2.0639
X2.5663Y-2.2607
X2.5663Y-2.4576
X2.5663Y-2.6544
X2.5663Y-3.0481
X2.5663Y-3.245
X2.5663Y-3.4418
X2.5663Y-3.6387
X2.5663Y-3.8355
X2.5663Y-4.0324
X2.5663Y-4.2292
X2.5663Y-4.4261
X2.5663Y-4.6229
X2.5663Y-4.8198
X2.5663Y-5.0166
X2.5663Y-5.2135
X2.5663Y-5.4103
X2.5663Y-5.6072
X2.5663Y-5.804
X2.7114Y-2.9148
X2.7154Y-2.7612
X2.7632Y-0.8828
X2.7632Y-1.0796
X2.7632Y-1.2765
X2.7632Y-1.4733
X2.7632Y-1.6702
X2.7632Y-1.867
X2.7632Y-2.0639
X2.7632Y-2.2607
X2.7632Y-2.4576
X2.7632Y-2.6544
X2.7632Y-2.8513
X2.7632Y-3.0481
X2.7632Y-3.245
X2.7632Y-3.4418
X2.7632Y-3.8355
X2.7632Y-4.0324
X2.7632Y-4.2292
X2.7632Y-4.4261
X2.7632Y-4.6229
X2.7632Y-4.8198
X2.7632Y-5.0166
X2.7632Y-5.2135
X2.7632Y-5.4103
X2.7632Y-5.6072
X2.7632Y-5.804
X2.861Y-2.8321
X2.9329Y-2.5867
X2.9329Y-3.0883
X2.96Y-0.8828
X2.96Y-1.0796
X2.96Y-3.245
X2.96Y-4.0324
X2.96Y-4.2292
X2.96Y-4.6229
X2.96Y-4.8198
X2.96Y-5.0166
X2.96Y-5.804
X2.9842Y-2.2123
X3.0159Y-2.2123
X3.0461Y-3.0486
X3.1366Y-2.8872
X3.1569Y-0.8828
X3.1569Y-1.0796
X3.1569Y-1.4733
X3.1569Y-1.6702
X3.1569Y-1.867
X3.1569Y-2.0639
X3.1569Y-2.2607
X3.1569Y-2.6544
X3.1569Y-3.0481
X3.1569Y-3.245
X3.1569Y-4.0324
X3.1569Y-4.2292
X3.1569Y-4.6229
X3.1569Y-5.0166
X3.1569Y-5.804
X3.1642Y-2.8872
X3.2823Y-2.8203
X3.3295Y-2.9463
X3.3537Y-0.8828
X3.3537Y-1.0796
X3.3537Y-1.4733
X3.3537Y-1.6702
X3.3537Y-2.6544
X3.3537Y-3.0481
X3.3537Y-3.4418
X3.3537Y-4.0324
X3.3537Y-4.2292
X3.3537Y-4.6229
X3.3537Y-5.2135
X3.3537Y-5.4103
X3.3537Y-5.804
X3.3689Y-2.8636
X3.4132Y-3.1014
X3.5028Y-3.1014
X3.5506Y-0.8828
X3.5506Y-1.0796
X3.5506Y-1.4733
X3.5506Y-1.6702
X3.5506Y-2.6544
X3.5506Y-2.8513
X3.5506Y-3.0481
X3.5506Y-3.245
X3.5506Y-4.0324
X3.5506Y-4.2292
X3.5506Y-4.6229
X3.5506Y-5.2135
X3.5506Y-5.4103
X3.5506Y-5.804
X3.7474Y-0.8828
X3.7474Y-1.0796
X3.7474Y-1.4733
X3.7474Y-1.6702
X3.7474Y-2.6544
X3.7474Y-2.8513
X3.7474Y-3.0481
X3.7474Y-3.245
X3.7474Y-3.4418
X3.7474Y-4.0324
X3.7474Y-4.4261
X3.7474Y-4.6229
X3.7474Y-5.2135
X3.7474Y-5.4103
X3.7474Y-5.804
X3.9077Y-4.3382
X3.9077Y-4.3657
X3.9077Y-4.3933
X3.9077Y-4.4214
X3.9431Y-4.3382
X3.9431Y-4.3657
X3.9431Y-4.3933
X3.9431Y-4.4214
X3.9443Y-0.8828
X3.9443Y-1.0796
X3.9443Y-1.2765
X3.9443Y-1.4733
X3.9443Y-1.6702
X3.9443Y-3.245
X3.9443Y-3.8355
X3.9443Y-4.0324
X3.9443Y-4.6229
X3.9443Y-5.4103
X3.9443Y-5.6072
X3.9443Y-5.804
X3.961Y-2.5194
X3.961Y-2.5509
X3.961Y-2.5824
X3.9611Y-2.4879
X4.1411Y-0.8828
X4.1411Y-1.0796
X4.1411Y-1.2765
X4.1411Y-1.4733
X4.1411Y-1.6702
X4.1411Y-4.6229
X4.1411Y-5.4103
X4.1411Y-5.6072
X4.1411Y-5.804
X4.1602Y-2.9274
X4.1602Y-3.6768
X4.338Y-0.8828
X4.338Y-1.0796
X4.338Y-1.2765
X4.338Y-1.4733
X4.338Y-1.6702
X4.338Y-1.867
X4.338Y-2.0639
X4.338Y-2.2607
X4.338Y-2.6544
X4.338Y-3.0481
X4.338Y-3.8355
X4.338Y-4.0324
X4.338Y-4.6229
X4.338Y-5.0166
X4.338Y-5.804
X4.3605Y-3.4989
X4.3609Y-3.3831
X4.3846Y-2.7533
X4.4094Y-3.3831
X4.4101Y-3.5
X4.4122Y-2.7533
X4.4673Y-4.2376
X4.4673Y-4.2652
X4.5067Y-4.21
X4.5067Y-4.2376
X4.5067Y-4.2652
X4.5282Y-4.7258
X4.5329Y-2.5871
X4.5329Y-3.0883
X4.5348Y-0.8828
X4.5348Y-1.0796
X4.5348Y-1.2765
X4.5348Y-1.4733
X4.5348Y-1.6702
X4.5348Y-1.867
X4.5348Y-2.0639
X4.5348Y-2.2607
X4.5348Y-4.4261
X4.5348Y-5.804
X4.5461Y-4.21
X4.5461Y-4.2376
X4.5461Y-4.2652
X4.5854Y-4.21
X4.5854Y-4.2376
X4.5854Y-4.2652
X4.6051Y-2.8439
X4.6287Y-4.21
X4.6287Y-4.2376
X4.6287Y-4.2652
X4.6681Y-4.21
X4.6681Y-4.2376
X4.6681Y-4.2652
X4.7075Y-4.21
X4.7075Y-4.2376
X4.7075Y-4.2652
X4.7317Y-0.8828
X4.7317Y-1.0796
X4.7317Y-1.2765
X4.7317Y-1.4733
X4.7317Y-1.6702
X4.7317Y-1.867
X4.7317Y-2.0639
X4.7317Y-2.2607
X4.7317Y-2.4576
X4.7317Y-2.6544
X4.7317Y-2.8513
X4.7317Y-3.0481
X4.7317Y-3.245
X4.7317Y-3.4418
X4.7317Y-3.8355
X4.7317Y-4.0324
X4.7317Y-4.4261
X4.7317Y-5.804
X4.7508Y-4.21
X4.7508Y-4.2376
X4.7508Y-4.2652
X4.7547Y-2.7573
X4.7547Y-2.9108
X4.8707Y-4.3194
X4.8943Y-4.3194
X4.9089Y-4.6064
X4.9089Y-4.6851
X4.9285Y-0.8828
X4.9285Y-1.0796
X4.9285Y-1.2765
X4.9285Y-1.4733
X4.9285Y-2.0639
X4.9285Y-2.2607
X4.9285Y-2.4576
X4.9285Y-2.6544
X4.9285Y-3.0481
X4.9285Y-3.245
X4.9285Y-3.4418
X4.9285Y-3.6387
X4.9285Y-3.8355
X4.9285Y-4.0324
X4.9285Y-4.8198
X4.9285Y-5.0166
X4.9285Y-5.2135
X4.9285Y-5.804
X4.9561Y-4.5071
X5.1254Y-0.8828
X5.1254Y-1.0796
X5.1254Y-1.2765
X5.1254Y-1.4733
X5.1254Y-2.0639
X5.1254Y-2.2607
X5.1254Y-2.4576
X5.1254Y-2.6544
X5.1254Y-2.8513
X5.1254Y-3.245
X5.1254Y-3.4418
X5.1254Y-3.6387
X5.1254Y-3.8355
X5.1254Y-4.0324
X5.1254Y-4.2292
X5.1254Y-4.8198
X5.1254Y-5.0166
X5.1254Y-5.2135
X5.1254Y-5.4103
X5.1254Y-5.6072
X5.1254Y-5.804
X5.3222Y-0.8828
X5.3222Y-1.2765
X5.3222Y-1.4733
X5.3222Y-2.0639
X5.3222Y-2.2607
X5.3222Y-2.4576
X5.3222Y-2.6544
X5.3222Y-3.0481
X5.3222Y-3.4418
X5.3222Y-3.6387
X5.3222Y-3.8355
X5.3222Y-4.2292
X5.3222Y-4.4261
X5.3222Y-4.6229
X5.3222Y-4.8198
X5.3222Y-5.0166
X5.3222Y-5.2135
X5.3222Y-5.4103
X5.3222Y-5.6072
X5.5191Y-0.8828
X5.5191Y-1.0796
X5.5191Y-1.2765
X5.5191Y-1.4733
X5.5191Y-2.0639
X5.5191Y-2.2607
X5.5191Y-2.4576
X5.5191Y-2.6544
X5.5191Y-3.245
X5.5191Y-3.6387
X5.5191Y-3.8355
X5.5191Y-4.2292
X5.5191Y-4.4261
X5.5191Y-4.6229
X5.5191Y-4.8198
X5.5191Y-5.0166
X5.5191Y-5.2135
X5.5191Y-5.4103
X5.5191Y-5.6072
X5.5191Y-5.804
X5.7159Y-1.0796
X5.7159Y-1.2765
X5.7159Y-1.4733
X5.7159Y-1.6702
X5.7159Y-1.867
X5.7159Y-2.0639
X5.7159Y-2.2607
X5.7159Y-2.4576
X5.7159Y-2.6544
X5.7159Y-2.8513
X5.7159Y-3.245
X5.7159Y-3.4418
X5.7159Y-3.8355
X5.7159Y-4.2292
X5.7159Y-4.4261
X5.7159Y-4.6229
X5.7159Y-4.8198
X5.7159Y-5.0166
X5.7159Y-5.2135
X5.7159Y-5.4103
X5.7159Y-5.6072
X5.7159Y-5.804
X5.9128Y-1.2765
X5.9128Y-1.4733
X5.9128Y-1.6702
X5.9128Y-1.867
X5.9128Y-2.0639
X5.9128Y-2.2607
X5.9128Y-2.4576
X5.9128Y-3.245
X5.9128Y-3.4418
X5.9128Y-3.6387
X5.9128Y-3.8355
X5.9128Y-4.2292
X5.9128Y-4.4261
X5.9128Y-4.6229
X5.9128Y-4.8198
X5.9128Y-5.0166
X5.9128Y-5.2135
X5.9128Y-5.4103
X5.9128Y-5.6072
X6.1096Y-1.4733
X6.1096Y-1.6702
X6.1096Y-1.867
X6.1096Y-2.0639
X6.1096Y-2.2607
X6.1096Y-4.2292
X6.1096Y-4.4261
X6.1096Y-4.6229
X6.1096Y-4.8198
X6.1096Y-5.2135
X6.1096Y-5.4103
T2
X3.0066Y-3.4185
X3.0072Y-3.4581
X3.1283Y-5.1225
X3.1289Y-5.1576
X3.165Y-5.1225
X3.1656Y-5.1576
T4
X3.5783Y-1.2437
X3.6767Y-1.2437
X3.7751Y-1.2437
X3.8735Y-1.2437
T5
X3.3948Y-5.5339
X3.5326Y-5.5339
X3.6704Y-5.5339
T6
X1.4073Y-3.68
X1.4073Y-3.7784
X1.4093Y-3.0489
X1.4093Y-3.1473
X2.8132Y-4.2922
X2.8132Y-4.3922
X2.8132Y-4.4922
X2.9132Y-4.2922
X2.9132Y-4.3922
X2.9132Y-4.4922
X3.0132Y-4.2922
X3.0132Y-4.3922
X3.0132Y-4.4922
X3.1132Y-4.2922
X3.1132Y-4.3922
X3.1132Y-4.4922
X3.9204Y-5.5339
X4.0188Y-5.5339
X6.0219Y-3.6796
X6.0219Y-3.7781
X6.023Y-3.0485
X6.023Y-3.1469
T7
X4.2671Y-5.5119
X4.4522Y-5.5119
X4.6372Y-5.5119
T3
G00X2.6726Y-3.2258
M15
G01X2.6726Y-3.277
M16
G05
G00X4.7986Y-3.2258
M15
G01X4.7986Y-3.277
M16
G05
T6
G00X2.9271Y-5.4211
M15
G01X3.0058Y-5.4211
M16
G05
G00X2.9271Y-5.6573
M15
G01X3.0058Y-5.6573
M16
G05
G00X3.1515Y-5.5786
M15
G01X3.1515Y-5.4998
M16
G05
M30
