%TF.GenerationSoftware,KiCad,Pcbnew,8.0.7*%
%TF.CreationDate,2025-01-09T15:44:16+07:00*%
%TF.ProjectId,RoboCar_PCB,526f626f-4361-4725-9f50-43422e6b6963,rev?*%
%TF.SameCoordinates,Original*%
%TF.FileFunction,Profile,NP*%
%FSLAX46Y46*%
G04 Gerber Fmt 4.6, Leading zero omitted, Abs format (unit mm)*
G04 Created by KiCad (PCBNEW 8.0.7) date 2025-01-09 15:44:16*
%MOMM*%
%LPD*%
G01*
G04 APERTURE LIST*
%TA.AperFunction,Profile*%
%ADD10C,0.250000*%
%TD*%
%TA.AperFunction,Profile*%
%ADD11C,0.150000*%
%TD*%
%TA.AperFunction,Profile*%
%ADD12C,0.100000*%
%TD*%
G04 APERTURE END LIST*
D10*
X143594903Y-151570267D02*
X159594903Y-135570267D01*
X55004806Y-27802500D02*
G75*
G02*
X52004806Y-27802500I-1500000J0D01*
G01*
X52004806Y-27802500D02*
G75*
G02*
X55004806Y-27802500I1500000J0D01*
G01*
D11*
X107194903Y-119877500D02*
X107194903Y-127427500D01*
X83494903Y-128927500D02*
G75*
G02*
X81994900Y-127427500I-3J1500000D01*
G01*
D10*
X159594903Y-37570267D02*
X143594903Y-21570267D01*
X45594903Y-21570267D02*
X29594903Y-37570267D01*
X159594903Y-135570267D02*
X159594903Y-37570267D01*
D11*
X83494903Y-118377500D02*
X105694903Y-118377500D01*
X105694903Y-128927500D02*
X83494903Y-128927500D01*
X105694903Y-118377500D02*
G75*
G02*
X107194900Y-119877500I-3J-1500000D01*
G01*
D10*
X29594903Y-135570267D02*
X45594903Y-151570267D01*
X137185000Y-27802500D02*
G75*
G02*
X134185000Y-27802500I-1500000J0D01*
G01*
X134185000Y-27802500D02*
G75*
G02*
X137185000Y-27802500I1500000J0D01*
G01*
X55004806Y-145338034D02*
G75*
G02*
X52004806Y-145338034I-1500000J0D01*
G01*
X52004806Y-145338034D02*
G75*
G02*
X55004806Y-145338034I1500000J0D01*
G01*
X37327136Y-45480170D02*
G75*
G02*
X34327136Y-45480170I-1500000J0D01*
G01*
X34327136Y-45480170D02*
G75*
G02*
X37327136Y-45480170I1500000J0D01*
G01*
D11*
X107194903Y-127427500D02*
G75*
G02*
X105694903Y-128927503I-1500003J0D01*
G01*
D10*
X128227768Y-84561038D02*
G75*
G02*
X125227768Y-84561038I-1500000J0D01*
G01*
X125227768Y-84561038D02*
G75*
G02*
X128227768Y-84561038I1500000J0D01*
G01*
D11*
X81994903Y-119877500D02*
G75*
G02*
X83494903Y-118377503I1499997J0D01*
G01*
D10*
X154862670Y-45480170D02*
G75*
G02*
X151862670Y-45480170I-1500000J0D01*
G01*
X151862670Y-45480170D02*
G75*
G02*
X154862670Y-45480170I1500000J0D01*
G01*
X29594903Y-37570267D02*
X29594903Y-135570267D01*
X37327136Y-127660364D02*
G75*
G02*
X34327136Y-127660364I-1500000J0D01*
G01*
X34327136Y-127660364D02*
G75*
G02*
X37327136Y-127660364I1500000J0D01*
G01*
X64227768Y-84561038D02*
G75*
G02*
X61227768Y-84561038I-1500000J0D01*
G01*
X61227768Y-84561038D02*
G75*
G02*
X64227768Y-84561038I1500000J0D01*
G01*
X45594903Y-151570267D02*
X143594903Y-151570267D01*
X143594903Y-21570267D02*
X45594903Y-21570267D01*
D11*
X81994903Y-127427500D02*
X81994903Y-119877500D01*
D10*
X154862670Y-127660364D02*
G75*
G02*
X151862670Y-127660364I-1500000J0D01*
G01*
X151862670Y-127660364D02*
G75*
G02*
X154862670Y-127660364I1500000J0D01*
G01*
X137185000Y-145338034D02*
G75*
G02*
X134185000Y-145338034I-1500000J0D01*
G01*
X134185000Y-145338034D02*
G75*
G02*
X137185000Y-145338034I1500000J0D01*
G01*
D12*
%TO.C,REF\u002A\u002A*%
X81344903Y-123652500D02*
G75*
G02*
X78844903Y-123652500I-1250000J0D01*
G01*
X78844903Y-123652500D02*
G75*
G02*
X81344903Y-123652500I1250000J0D01*
G01*
X110344903Y-123652500D02*
G75*
G02*
X107844903Y-123652500I-1250000J0D01*
G01*
X107844903Y-123652500D02*
G75*
G02*
X110344903Y-123652500I1250000J0D01*
G01*
%TD*%
M02*
