%TF.GenerationSoftware,KiCad,Pcbnew,8.0.7*%
%TF.CreationDate,2025-01-09T15:44:16+07:00*%
%TF.ProjectId,RoboCar_PCB,526f626f-4361-4725-9f50-43422e6b6963,rev?*%
%TF.SameCoordinates,Original*%
%TF.FileFunction,Legend,Bot*%
%TF.FilePolarity,Positive*%
%FSLAX46Y46*%
G04 Gerber Fmt 4.6, Leading zero omitted, Abs format (unit mm)*
G04 Created by KiCad (PCBNEW 8.0.7) date 2025-01-09 15:44:16*
%MOMM*%
%LPD*%
G01*
G04 APERTURE LIST*
G04 Aperture macros list*
%AMRoundRect*
0 Rectangle with rounded corners*
0 $1 Rounding radius*
0 $2 $3 $4 $5 $6 $7 $8 $9 X,Y pos of 4 corners*
0 Add a 4 corners polygon primitive as box body*
4,1,4,$2,$3,$4,$5,$6,$7,$8,$9,$2,$3,0*
0 Add four circle primitives for the rounded corners*
1,1,$1+$1,$2,$3*
1,1,$1+$1,$4,$5*
1,1,$1+$1,$6,$7*
1,1,$1+$1,$8,$9*
0 Add four rect primitives between the rounded corners*
20,1,$1+$1,$2,$3,$4,$5,0*
20,1,$1+$1,$4,$5,$6,$7,0*
20,1,$1+$1,$6,$7,$8,$9,0*
20,1,$1+$1,$8,$9,$2,$3,0*%
G04 Aperture macros list end*
%ADD10C,0.150000*%
%ADD11C,0.250000*%
%ADD12C,0.200000*%
%ADD13C,0.625000*%
%ADD14C,0.300000*%
%ADD15C,0.050000*%
%ADD16C,0.120000*%
%ADD17C,0.000000*%
%ADD18O,1.700000X1.700000*%
%ADD19C,2.595000*%
%ADD20R,1.700000X1.700000*%
%ADD21R,3.500000X3.500000*%
%ADD22RoundRect,0.750000X1.000000X-0.750000X1.000000X0.750000X-1.000000X0.750000X-1.000000X-0.750000X0*%
%ADD23RoundRect,0.875000X0.875000X-0.875000X0.875000X0.875000X-0.875000X0.875000X-0.875000X-0.875000X0*%
%ADD24C,1.650000*%
%ADD25O,1.304000X5.704000*%
%ADD26RoundRect,0.250000X-0.600000X-0.725000X0.600000X-0.725000X0.600000X0.725000X-0.600000X0.725000X0*%
%ADD27O,1.700000X1.950000*%
%ADD28RoundRect,0.250000X-0.750000X0.600000X-0.750000X-0.600000X0.750000X-0.600000X0.750000X0.600000X0*%
%ADD29O,2.000000X1.700000*%
%ADD30RoundRect,0.250000X0.750000X-0.600000X0.750000X0.600000X-0.750000X0.600000X-0.750000X-0.600000X0*%
%ADD31RoundRect,0.250000X-0.600000X-0.750000X0.600000X-0.750000X0.600000X0.750000X-0.600000X0.750000X0*%
%ADD32O,1.700000X2.000000*%
G04 APERTURE END LIST*
D10*
X79977768Y-57811038D02*
X109977768Y-57811038D01*
X109977768Y-107811038D01*
X79977768Y-107811038D01*
X79977768Y-57811038D01*
X138182768Y-145341038D02*
G75*
G02*
X133182768Y-145341038I-2500000J0D01*
G01*
X133182768Y-145341038D02*
G75*
G02*
X138182768Y-145341038I2500000J0D01*
G01*
X65227768Y-84536038D02*
G75*
G02*
X60227768Y-84536038I-2500000J0D01*
G01*
X60227768Y-84536038D02*
G75*
G02*
X65227768Y-84536038I2500000J0D01*
G01*
X138182768Y-27801038D02*
G75*
G02*
X133182768Y-27801038I-2500000J0D01*
G01*
X133182768Y-27801038D02*
G75*
G02*
X138182768Y-27801038I2500000J0D01*
G01*
X129227768Y-84561038D02*
G75*
G02*
X124227768Y-84561038I-2500000J0D01*
G01*
X124227768Y-84561038D02*
G75*
G02*
X129227768Y-84561038I2500000J0D01*
G01*
X38332768Y-127661038D02*
G75*
G02*
X33332768Y-127661038I-2500000J0D01*
G01*
X33332768Y-127661038D02*
G75*
G02*
X38332768Y-127661038I2500000J0D01*
G01*
X155882768Y-45471038D02*
G75*
G02*
X150882768Y-45471038I-2500000J0D01*
G01*
X150882768Y-45471038D02*
G75*
G02*
X155882768Y-45471038I2500000J0D01*
G01*
X38322768Y-45481038D02*
G75*
G02*
X33322768Y-45481038I-2500000J0D01*
G01*
X33322768Y-45481038D02*
G75*
G02*
X38322768Y-45481038I2500000J0D01*
G01*
X56002768Y-145341038D02*
G75*
G02*
X51002768Y-145341038I-2500000J0D01*
G01*
X51002768Y-145341038D02*
G75*
G02*
X56002768Y-145341038I2500000J0D01*
G01*
X56002768Y-27801038D02*
G75*
G02*
X51002768Y-27801038I-2500000J0D01*
G01*
X51002768Y-27801038D02*
G75*
G02*
X56002768Y-27801038I2500000J0D01*
G01*
X155862768Y-127661038D02*
G75*
G02*
X150862768Y-127661038I-2500000J0D01*
G01*
X150862768Y-127661038D02*
G75*
G02*
X155862768Y-127661038I2500000J0D01*
G01*
D11*
G36*
X47976813Y-94718276D02*
G01*
X48005267Y-94746731D01*
X48040142Y-94816480D01*
X48040142Y-94928892D01*
X48005267Y-94998642D01*
X47976813Y-95027096D01*
X47907062Y-95061972D01*
X47623223Y-95061972D01*
X47553472Y-95027097D01*
X47525017Y-94998643D01*
X47490142Y-94928892D01*
X47490142Y-94816480D01*
X47525016Y-94746731D01*
X47553473Y-94718275D01*
X47623222Y-94683401D01*
X47907063Y-94683401D01*
X47976813Y-94718276D01*
G37*
G36*
X47976813Y-92946848D02*
G01*
X48005267Y-92975303D01*
X48040142Y-93045052D01*
X48040142Y-93157464D01*
X48005267Y-93227214D01*
X47976813Y-93255668D01*
X47907062Y-93290544D01*
X47623223Y-93290544D01*
X47553472Y-93255669D01*
X47525017Y-93227215D01*
X47490142Y-93157464D01*
X47490142Y-93045052D01*
X47525016Y-92975303D01*
X47553473Y-92946847D01*
X47623222Y-92911973D01*
X47907063Y-92911973D01*
X47976813Y-92946848D01*
G37*
G36*
X48537761Y-98245305D02*
G01*
X46706809Y-98245305D01*
X46706809Y-97244115D01*
X46840142Y-97244115D01*
X46840142Y-97986972D01*
X46841412Y-97999865D01*
X46841193Y-98003150D01*
X46841958Y-98005413D01*
X46842544Y-98011358D01*
X46850312Y-98030112D01*
X46856819Y-98049351D01*
X46859594Y-98052523D01*
X46861208Y-98056418D01*
X46875565Y-98070775D01*
X46888936Y-98086056D01*
X46892714Y-98087924D01*
X46895696Y-98090906D01*
X46914455Y-98098676D01*
X46932654Y-98107676D01*
X46936860Y-98107956D01*
X46940756Y-98109570D01*
X46961059Y-98109570D01*
X46981320Y-98110921D01*
X46985314Y-98109570D01*
X46989528Y-98109570D01*
X47008282Y-98101801D01*
X47027521Y-98095295D01*
X47032382Y-98091819D01*
X47034588Y-98090906D01*
X47036914Y-98088579D01*
X47047455Y-98081044D01*
X47323209Y-97839758D01*
X47367625Y-97928589D01*
X47374231Y-97939083D01*
X47375495Y-97942134D01*
X47378313Y-97945568D01*
X47380679Y-97949326D01*
X47383170Y-97951487D01*
X47391040Y-97961076D01*
X47448184Y-98018218D01*
X47457768Y-98026083D01*
X47459932Y-98028578D01*
X47463692Y-98030945D01*
X47467126Y-98033763D01*
X47470174Y-98035025D01*
X47480669Y-98041632D01*
X47594956Y-98098776D01*
X47617841Y-98107533D01*
X47622322Y-98107851D01*
X47626471Y-98109570D01*
X47650857Y-98111972D01*
X47936571Y-98111972D01*
X47960957Y-98109570D01*
X47965105Y-98107851D01*
X47969587Y-98107533D01*
X47992473Y-98098775D01*
X48106759Y-98041632D01*
X48117253Y-98035025D01*
X48120302Y-98033763D01*
X48123736Y-98030944D01*
X48127496Y-98028578D01*
X48129657Y-98026085D01*
X48139245Y-98018218D01*
X48196388Y-97961076D01*
X48204257Y-97951486D01*
X48206750Y-97949325D01*
X48209115Y-97945566D01*
X48211933Y-97942134D01*
X48213195Y-97939085D01*
X48219804Y-97928588D01*
X48276946Y-97814302D01*
X48285703Y-97791416D01*
X48286021Y-97786936D01*
X48287740Y-97782787D01*
X48290142Y-97758401D01*
X48290142Y-97415544D01*
X48287740Y-97391158D01*
X48286021Y-97387008D01*
X48285703Y-97382529D01*
X48276946Y-97359643D01*
X48219804Y-97245357D01*
X48213195Y-97234859D01*
X48211933Y-97231811D01*
X48209115Y-97228378D01*
X48206750Y-97224620D01*
X48204257Y-97222458D01*
X48196388Y-97212869D01*
X48139245Y-97155727D01*
X48120303Y-97140182D01*
X48075244Y-97121517D01*
X48026470Y-97121517D01*
X47981411Y-97140182D01*
X47946924Y-97174669D01*
X47928259Y-97219728D01*
X47928259Y-97268502D01*
X47946924Y-97313561D01*
X47962469Y-97332503D01*
X48005267Y-97375302D01*
X48040142Y-97445052D01*
X48040142Y-97728892D01*
X48005267Y-97798643D01*
X47976812Y-97827096D01*
X47907063Y-97861972D01*
X47680365Y-97861972D01*
X47610616Y-97827097D01*
X47582159Y-97798641D01*
X47547285Y-97728892D01*
X47547285Y-97586972D01*
X47546014Y-97574078D01*
X47546234Y-97570794D01*
X47545468Y-97568530D01*
X47544883Y-97562586D01*
X47537114Y-97543831D01*
X47530608Y-97524593D01*
X47527832Y-97521420D01*
X47526219Y-97517526D01*
X47511861Y-97503168D01*
X47498491Y-97487888D01*
X47494712Y-97486019D01*
X47491731Y-97483038D01*
X47472971Y-97475267D01*
X47454773Y-97466268D01*
X47450566Y-97465987D01*
X47446671Y-97464374D01*
X47426368Y-97464374D01*
X47406107Y-97463023D01*
X47402113Y-97464374D01*
X47397899Y-97464374D01*
X47379144Y-97472142D01*
X47359906Y-97478649D01*
X47355044Y-97482124D01*
X47352839Y-97483038D01*
X47350512Y-97485364D01*
X47339972Y-97492900D01*
X47090142Y-97711501D01*
X47090142Y-97244115D01*
X47087740Y-97219729D01*
X47069076Y-97174669D01*
X47034588Y-97140181D01*
X46989528Y-97121517D01*
X46940756Y-97121517D01*
X46895696Y-97140181D01*
X46861208Y-97174669D01*
X46842544Y-97219729D01*
X46840142Y-97244115D01*
X46706809Y-97244115D01*
X46706809Y-95929829D01*
X47240142Y-95929829D01*
X47240142Y-96044115D01*
X47242544Y-96068501D01*
X47261208Y-96113561D01*
X47295696Y-96148049D01*
X47340756Y-96166713D01*
X47389528Y-96166713D01*
X47409595Y-96158401D01*
X48154428Y-96158401D01*
X48154428Y-97072686D01*
X48156830Y-97097072D01*
X48175494Y-97142132D01*
X48209982Y-97176620D01*
X48255042Y-97195284D01*
X48303814Y-97195284D01*
X48348874Y-97176620D01*
X48383362Y-97142132D01*
X48402026Y-97097072D01*
X48404428Y-97072686D01*
X48404428Y-96158401D01*
X48402026Y-96134015D01*
X48383362Y-96088955D01*
X48348874Y-96054467D01*
X48303814Y-96035803D01*
X48255042Y-96035803D01*
X48209982Y-96054467D01*
X48175494Y-96088955D01*
X48156830Y-96134015D01*
X48154428Y-96158401D01*
X47409595Y-96158401D01*
X47434588Y-96148049D01*
X47469076Y-96113561D01*
X47487740Y-96068501D01*
X47490142Y-96044115D01*
X47490142Y-95959337D01*
X47525016Y-95889588D01*
X47553473Y-95861132D01*
X47623222Y-95826258D01*
X48165142Y-95826258D01*
X48189528Y-95823856D01*
X48234588Y-95805192D01*
X48269076Y-95770704D01*
X48287740Y-95725644D01*
X48287740Y-95676872D01*
X48269076Y-95631812D01*
X48234588Y-95597324D01*
X48189528Y-95578660D01*
X48165142Y-95576258D01*
X47365142Y-95576258D01*
X47340756Y-95578660D01*
X47295696Y-95597324D01*
X47261208Y-95631812D01*
X47242544Y-95676872D01*
X47242544Y-95725644D01*
X47261208Y-95770704D01*
X47290369Y-95799865D01*
X47253339Y-95873927D01*
X47244581Y-95896813D01*
X47244262Y-95901294D01*
X47242544Y-95905443D01*
X47240142Y-95929829D01*
X46706809Y-95929829D01*
X46706809Y-94786972D01*
X47240142Y-94786972D01*
X47240142Y-94958401D01*
X47242544Y-94982787D01*
X47244262Y-94986935D01*
X47244581Y-94991417D01*
X47253339Y-95014303D01*
X47310482Y-95128589D01*
X47317089Y-95139085D01*
X47318352Y-95142133D01*
X47321168Y-95145564D01*
X47323536Y-95149326D01*
X47326030Y-95151489D01*
X47333897Y-95161075D01*
X47391039Y-95218218D01*
X47400628Y-95226087D01*
X47402790Y-95228580D01*
X47406548Y-95230945D01*
X47409981Y-95233763D01*
X47413029Y-95235025D01*
X47423527Y-95241634D01*
X47537813Y-95298776D01*
X47560699Y-95307533D01*
X47565178Y-95307851D01*
X47569328Y-95309570D01*
X47593714Y-95311972D01*
X47936571Y-95311972D01*
X47960957Y-95309570D01*
X47965106Y-95307851D01*
X47969586Y-95307533D01*
X47992472Y-95298776D01*
X48106758Y-95241634D01*
X48117257Y-95235024D01*
X48120303Y-95233763D01*
X48123732Y-95230948D01*
X48127495Y-95228580D01*
X48129659Y-95226084D01*
X48139245Y-95218218D01*
X48196388Y-95161076D01*
X48204257Y-95151486D01*
X48206750Y-95149325D01*
X48209115Y-95145566D01*
X48211933Y-95142134D01*
X48213195Y-95139085D01*
X48219804Y-95128588D01*
X48276946Y-95014302D01*
X48285703Y-94991416D01*
X48286021Y-94986936D01*
X48287740Y-94982787D01*
X48290142Y-94958401D01*
X48290142Y-94786972D01*
X48287740Y-94762586D01*
X48286021Y-94758436D01*
X48285703Y-94753956D01*
X48276945Y-94731070D01*
X48219804Y-94616786D01*
X48213195Y-94606286D01*
X48211933Y-94603240D01*
X48209117Y-94599809D01*
X48206750Y-94596048D01*
X48204254Y-94593883D01*
X48196388Y-94584298D01*
X48139245Y-94527156D01*
X48129659Y-94519289D01*
X48127496Y-94516795D01*
X48123734Y-94514427D01*
X48120303Y-94511611D01*
X48117255Y-94510348D01*
X48106759Y-94503741D01*
X47992473Y-94446598D01*
X47969587Y-94437840D01*
X47965105Y-94437521D01*
X47960957Y-94435803D01*
X47936571Y-94433401D01*
X47593714Y-94433401D01*
X47569328Y-94435803D01*
X47565179Y-94437521D01*
X47560698Y-94437840D01*
X47537813Y-94446597D01*
X47423526Y-94503741D01*
X47413031Y-94510347D01*
X47409981Y-94511611D01*
X47406546Y-94514429D01*
X47402789Y-94516795D01*
X47400627Y-94519286D01*
X47391039Y-94527156D01*
X47333897Y-94584299D01*
X47326033Y-94593880D01*
X47323536Y-94596047D01*
X47321165Y-94599812D01*
X47318352Y-94603241D01*
X47317090Y-94606286D01*
X47310482Y-94616785D01*
X47253339Y-94731070D01*
X47244581Y-94753956D01*
X47244262Y-94758437D01*
X47242544Y-94762586D01*
X47240142Y-94786972D01*
X46706809Y-94786972D01*
X46706809Y-93905444D01*
X46842544Y-93905444D01*
X46842544Y-93954216D01*
X46861208Y-93999276D01*
X46895696Y-94033764D01*
X46940756Y-94052428D01*
X46965142Y-94054830D01*
X47240142Y-94054830D01*
X47240142Y-94215544D01*
X47242544Y-94239930D01*
X47261208Y-94284990D01*
X47295696Y-94319478D01*
X47340756Y-94338142D01*
X47389528Y-94338142D01*
X47434588Y-94319478D01*
X47469076Y-94284990D01*
X47487740Y-94239930D01*
X47490142Y-94215544D01*
X47490142Y-94054830D01*
X47964206Y-94054830D01*
X48014830Y-94080142D01*
X48040142Y-94130766D01*
X48040142Y-94215544D01*
X48042544Y-94239930D01*
X48061208Y-94284990D01*
X48095696Y-94319478D01*
X48140756Y-94338142D01*
X48189528Y-94338142D01*
X48234588Y-94319478D01*
X48269076Y-94284990D01*
X48287740Y-94239930D01*
X48290142Y-94215544D01*
X48290142Y-94101258D01*
X48287740Y-94076872D01*
X48286021Y-94072722D01*
X48285703Y-94068242D01*
X48276945Y-94045356D01*
X48219804Y-93931072D01*
X48217236Y-93926992D01*
X48216595Y-93925069D01*
X48214517Y-93922673D01*
X48206750Y-93910334D01*
X48194905Y-93900061D01*
X48184639Y-93888224D01*
X48172305Y-93880460D01*
X48169905Y-93878378D01*
X48167977Y-93877735D01*
X48163902Y-93875170D01*
X48049616Y-93818027D01*
X48026730Y-93809269D01*
X48022248Y-93808950D01*
X48018100Y-93807232D01*
X47993714Y-93804830D01*
X47490142Y-93804830D01*
X47490142Y-93758401D01*
X47487740Y-93734015D01*
X47469076Y-93688955D01*
X47434588Y-93654467D01*
X47389528Y-93635803D01*
X47340756Y-93635803D01*
X47295696Y-93654467D01*
X47261208Y-93688955D01*
X47242544Y-93734015D01*
X47240142Y-93758401D01*
X47240142Y-93804830D01*
X46965142Y-93804830D01*
X46940756Y-93807232D01*
X46895696Y-93825896D01*
X46861208Y-93860384D01*
X46842544Y-93905444D01*
X46706809Y-93905444D01*
X46706809Y-93015544D01*
X47240142Y-93015544D01*
X47240142Y-93186973D01*
X47242544Y-93211359D01*
X47244262Y-93215507D01*
X47244581Y-93219989D01*
X47253339Y-93242875D01*
X47310482Y-93357161D01*
X47317089Y-93367657D01*
X47318352Y-93370705D01*
X47321168Y-93374136D01*
X47323536Y-93377898D01*
X47326030Y-93380061D01*
X47333897Y-93389647D01*
X47391039Y-93446790D01*
X47400628Y-93454659D01*
X47402790Y-93457152D01*
X47406548Y-93459517D01*
X47409981Y-93462335D01*
X47413029Y-93463597D01*
X47423527Y-93470206D01*
X47537813Y-93527348D01*
X47560699Y-93536105D01*
X47565178Y-93536423D01*
X47569328Y-93538142D01*
X47593714Y-93540544D01*
X47936571Y-93540544D01*
X47960957Y-93538142D01*
X47965106Y-93536423D01*
X47969586Y-93536105D01*
X47992472Y-93527348D01*
X48106758Y-93470206D01*
X48117257Y-93463596D01*
X48120303Y-93462335D01*
X48123732Y-93459520D01*
X48127495Y-93457152D01*
X48129659Y-93454656D01*
X48139245Y-93446790D01*
X48196388Y-93389648D01*
X48204257Y-93380058D01*
X48206750Y-93377897D01*
X48209115Y-93374138D01*
X48211933Y-93370706D01*
X48213195Y-93367657D01*
X48219804Y-93357160D01*
X48276946Y-93242874D01*
X48285703Y-93219988D01*
X48286021Y-93215508D01*
X48287740Y-93211359D01*
X48290142Y-93186973D01*
X48290142Y-93015544D01*
X48287740Y-92991158D01*
X48286021Y-92987008D01*
X48285703Y-92982528D01*
X48276945Y-92959642D01*
X48219804Y-92845358D01*
X48213195Y-92834858D01*
X48211933Y-92831812D01*
X48209117Y-92828381D01*
X48206750Y-92824620D01*
X48204254Y-92822455D01*
X48196388Y-92812870D01*
X48139245Y-92755728D01*
X48129659Y-92747861D01*
X48127496Y-92745367D01*
X48123734Y-92742999D01*
X48120303Y-92740183D01*
X48117255Y-92738920D01*
X48106759Y-92732313D01*
X47992473Y-92675170D01*
X47969587Y-92666412D01*
X47965105Y-92666093D01*
X47960957Y-92664375D01*
X47936571Y-92661973D01*
X47593714Y-92661973D01*
X47569328Y-92664375D01*
X47565179Y-92666093D01*
X47560698Y-92666412D01*
X47537813Y-92675169D01*
X47423526Y-92732313D01*
X47413031Y-92738919D01*
X47409981Y-92740183D01*
X47406546Y-92743001D01*
X47402789Y-92745367D01*
X47400627Y-92747858D01*
X47391039Y-92755728D01*
X47333897Y-92812871D01*
X47326033Y-92822452D01*
X47323536Y-92824619D01*
X47321165Y-92828384D01*
X47318352Y-92831813D01*
X47317090Y-92834858D01*
X47310482Y-92845357D01*
X47253339Y-92959642D01*
X47244581Y-92982528D01*
X47244262Y-92987009D01*
X47242544Y-92991158D01*
X47240142Y-93015544D01*
X46706809Y-93015544D01*
X46706809Y-91491666D01*
X46841591Y-91491666D01*
X46842544Y-91494286D01*
X46842544Y-91497073D01*
X46850843Y-91517109D01*
X46858259Y-91537503D01*
X46860141Y-91539558D01*
X46861208Y-91542133D01*
X46876545Y-91557470D01*
X46891199Y-91573471D01*
X46894503Y-91575428D01*
X46895696Y-91576621D01*
X46898423Y-91577750D01*
X46912281Y-91585960D01*
X47526696Y-91872687D01*
X46912281Y-92159414D01*
X46898423Y-92167623D01*
X46895696Y-92168753D01*
X46894503Y-92169945D01*
X46891199Y-92171903D01*
X46876545Y-92187903D01*
X46861208Y-92203241D01*
X46860141Y-92205815D01*
X46858259Y-92207871D01*
X46850843Y-92228264D01*
X46842544Y-92248301D01*
X46842544Y-92251087D01*
X46841591Y-92253708D01*
X46842544Y-92275386D01*
X46842544Y-92297073D01*
X46843610Y-92299647D01*
X46843733Y-92302434D01*
X46852907Y-92322094D01*
X46861208Y-92342133D01*
X46863179Y-92344104D01*
X46864358Y-92346630D01*
X46880358Y-92361283D01*
X46895696Y-92376621D01*
X46898270Y-92377687D01*
X46900326Y-92379570D01*
X46920719Y-92386985D01*
X46940756Y-92395285D01*
X46944577Y-92395661D01*
X46946163Y-92396238D01*
X46949114Y-92396108D01*
X46965142Y-92397687D01*
X48165142Y-92397687D01*
X48189528Y-92395285D01*
X48234588Y-92376621D01*
X48269076Y-92342133D01*
X48287740Y-92297073D01*
X48287740Y-92248301D01*
X48269076Y-92203241D01*
X48234588Y-92168753D01*
X48189528Y-92150089D01*
X48165142Y-92147687D01*
X47528588Y-92147687D01*
X47875146Y-91985960D01*
X47884075Y-91980670D01*
X47887101Y-91979570D01*
X47889241Y-91977610D01*
X47896228Y-91973471D01*
X47909056Y-91959462D01*
X47923069Y-91946630D01*
X47925417Y-91941597D01*
X47929168Y-91937502D01*
X47935659Y-91919650D01*
X47943694Y-91902434D01*
X47943937Y-91896885D01*
X47945836Y-91891666D01*
X47945001Y-91872687D01*
X47945836Y-91853708D01*
X47943937Y-91848488D01*
X47943694Y-91842940D01*
X47935659Y-91825723D01*
X47929168Y-91807872D01*
X47925417Y-91803776D01*
X47923069Y-91798744D01*
X47909056Y-91785911D01*
X47896228Y-91771903D01*
X47889241Y-91767763D01*
X47887101Y-91765804D01*
X47884075Y-91764703D01*
X47875146Y-91759414D01*
X47528588Y-91597687D01*
X48165142Y-91597687D01*
X48189528Y-91595285D01*
X48234588Y-91576621D01*
X48269076Y-91542133D01*
X48287740Y-91497073D01*
X48287740Y-91448301D01*
X48269076Y-91403241D01*
X48234588Y-91368753D01*
X48189528Y-91350089D01*
X48165142Y-91347687D01*
X46965142Y-91347687D01*
X46949114Y-91349265D01*
X46946163Y-91349136D01*
X46944577Y-91349712D01*
X46940756Y-91350089D01*
X46920719Y-91358388D01*
X46900326Y-91365804D01*
X46898270Y-91367686D01*
X46895696Y-91368753D01*
X46880358Y-91384090D01*
X46864358Y-91398744D01*
X46863179Y-91401269D01*
X46861208Y-91403241D01*
X46852907Y-91423279D01*
X46843733Y-91442940D01*
X46843610Y-91445726D01*
X46842544Y-91448301D01*
X46842544Y-91469987D01*
X46841591Y-91491666D01*
X46706809Y-91491666D01*
X46706809Y-91214354D01*
X48537761Y-91214354D01*
X48537761Y-98245305D01*
G37*
D12*
G36*
X92834098Y-40198182D02*
G01*
X92882575Y-40246658D01*
X92936189Y-40353886D01*
X92936189Y-40735245D01*
X92882575Y-40842472D01*
X92834095Y-40890952D01*
X92726868Y-40944566D01*
X92559796Y-40944566D01*
X92452567Y-40890952D01*
X92404091Y-40842475D01*
X92350475Y-40735243D01*
X92350475Y-40353888D01*
X92404090Y-40246658D01*
X92452566Y-40198181D01*
X92559796Y-40144566D01*
X92726867Y-40144566D01*
X92834098Y-40198182D01*
G37*
G36*
X95009777Y-40569587D02*
G01*
X95013360Y-40569841D01*
X95016681Y-40571217D01*
X95036190Y-40573138D01*
X95369726Y-40573138D01*
X95461654Y-40619101D01*
X95507618Y-40711029D01*
X95507618Y-40806673D01*
X95461654Y-40898602D01*
X95369726Y-40944566D01*
X95059797Y-40944566D01*
X94993333Y-40911334D01*
X94993333Y-40563294D01*
X95009777Y-40569587D01*
G37*
G36*
X99945714Y-41311233D02*
G01*
X88627450Y-41311233D01*
X88627450Y-40103488D01*
X88794117Y-40103488D01*
X88796883Y-40142408D01*
X88814332Y-40177307D01*
X88843809Y-40202871D01*
X88880825Y-40215210D01*
X88919745Y-40212444D01*
X88938054Y-40205438D01*
X89059796Y-40144566D01*
X89298295Y-40144566D01*
X89405526Y-40198182D01*
X89454003Y-40246658D01*
X89507617Y-40353886D01*
X89507617Y-40735245D01*
X89454003Y-40842472D01*
X89405523Y-40890952D01*
X89298296Y-40944566D01*
X89059796Y-40944566D01*
X88938053Y-40883695D01*
X88919745Y-40876689D01*
X88880824Y-40873923D01*
X88843809Y-40886262D01*
X88814332Y-40911827D01*
X88796883Y-40946725D01*
X88794117Y-40985646D01*
X88806456Y-41022661D01*
X88832021Y-41052138D01*
X88848611Y-41062581D01*
X88991468Y-41134009D01*
X89009777Y-41141015D01*
X89013359Y-41141269D01*
X89016680Y-41142645D01*
X89036189Y-41144566D01*
X89321903Y-41144566D01*
X89341412Y-41142645D01*
X89344732Y-41141269D01*
X89348316Y-41141015D01*
X89366624Y-41134009D01*
X89509481Y-41062581D01*
X89517879Y-41057294D01*
X89520317Y-41056285D01*
X89523060Y-41054033D01*
X89526072Y-41052138D01*
X89527804Y-41050140D01*
X89535471Y-41043849D01*
X89606900Y-40972420D01*
X89613194Y-40964749D01*
X89615189Y-40963020D01*
X89617082Y-40960012D01*
X89619336Y-40957266D01*
X89620346Y-40954826D01*
X89625632Y-40946430D01*
X89697060Y-40803573D01*
X89704066Y-40785264D01*
X89704320Y-40781681D01*
X89705696Y-40778361D01*
X89707617Y-40758852D01*
X89707617Y-40330280D01*
X89705696Y-40310771D01*
X89704320Y-40307450D01*
X89704066Y-40303868D01*
X89697060Y-40285559D01*
X89625632Y-40142702D01*
X89620347Y-40134306D01*
X89619336Y-40131865D01*
X89617080Y-40129117D01*
X89615189Y-40126112D01*
X89613194Y-40124381D01*
X89606899Y-40116712D01*
X89535470Y-40045284D01*
X89534595Y-40044566D01*
X90150475Y-40044566D01*
X90150475Y-41044566D01*
X90152396Y-41064075D01*
X90167328Y-41100123D01*
X90194918Y-41127713D01*
X90230966Y-41142645D01*
X90269984Y-41142645D01*
X90306032Y-41127713D01*
X90333622Y-41100123D01*
X90348554Y-41064075D01*
X90350475Y-41044566D01*
X90350475Y-40258852D01*
X90864761Y-40258852D01*
X90864761Y-41044566D01*
X90866682Y-41064075D01*
X90881614Y-41100123D01*
X90909204Y-41127713D01*
X90945252Y-41142645D01*
X90984270Y-41142645D01*
X91020318Y-41127713D01*
X91047908Y-41100123D01*
X91062840Y-41064075D01*
X91064761Y-41044566D01*
X91064761Y-40282458D01*
X91110724Y-40190530D01*
X91202653Y-40144566D01*
X91369724Y-40144566D01*
X91476955Y-40198182D01*
X91507618Y-40228844D01*
X91507618Y-41044566D01*
X91509539Y-41064075D01*
X91524471Y-41100123D01*
X91552061Y-41127713D01*
X91588109Y-41142645D01*
X91627127Y-41142645D01*
X91663175Y-41127713D01*
X91690765Y-41100123D01*
X91705697Y-41064075D01*
X91707618Y-41044566D01*
X91707618Y-40330280D01*
X92150475Y-40330280D01*
X92150475Y-40758852D01*
X92152396Y-40778361D01*
X92153771Y-40781681D01*
X92154026Y-40785265D01*
X92161032Y-40803574D01*
X92232461Y-40946430D01*
X92237744Y-40954824D01*
X92238756Y-40957266D01*
X92241010Y-40960013D01*
X92242904Y-40963021D01*
X92244900Y-40964752D01*
X92251193Y-40972419D01*
X92322621Y-41043848D01*
X92330290Y-41050143D01*
X92332021Y-41052138D01*
X92335026Y-41054029D01*
X92337774Y-41056285D01*
X92340215Y-41057296D01*
X92348611Y-41062581D01*
X92491468Y-41134009D01*
X92509777Y-41141015D01*
X92513359Y-41141269D01*
X92516680Y-41142645D01*
X92536189Y-41144566D01*
X92750475Y-41144566D01*
X92769984Y-41142645D01*
X92773304Y-41141269D01*
X92776888Y-41141015D01*
X92795196Y-41134009D01*
X92938053Y-41062581D01*
X92946451Y-41057294D01*
X92948889Y-41056285D01*
X92951632Y-41054033D01*
X92954644Y-41052138D01*
X92956376Y-41050140D01*
X92964043Y-41043849D01*
X93035472Y-40972420D01*
X93041766Y-40964749D01*
X93043761Y-40963020D01*
X93045654Y-40960012D01*
X93047908Y-40957266D01*
X93048918Y-40954826D01*
X93054204Y-40946430D01*
X93125632Y-40803573D01*
X93132638Y-40785264D01*
X93132892Y-40781681D01*
X93134268Y-40778361D01*
X93136189Y-40758852D01*
X93507618Y-40758852D01*
X93507618Y-40830280D01*
X93509539Y-40849789D01*
X93510914Y-40853109D01*
X93511169Y-40856693D01*
X93518175Y-40875001D01*
X93589604Y-41017859D01*
X93591658Y-41021122D01*
X93592171Y-41022661D01*
X93593832Y-41024576D01*
X93600047Y-41034450D01*
X93609522Y-41042667D01*
X93617736Y-41052138D01*
X93627607Y-41058351D01*
X93629524Y-41060014D01*
X93631062Y-41060527D01*
X93634326Y-41062581D01*
X93777183Y-41134009D01*
X93795492Y-41141015D01*
X93799074Y-41141269D01*
X93802395Y-41142645D01*
X93821904Y-41144566D01*
X94107618Y-41144566D01*
X94127127Y-41142645D01*
X94130447Y-41141269D01*
X94134031Y-41141015D01*
X94152339Y-41134009D01*
X94295196Y-41062581D01*
X94311787Y-41052138D01*
X94337351Y-41022661D01*
X94349690Y-40985645D01*
X94346925Y-40946725D01*
X94329475Y-40911826D01*
X94299999Y-40886262D01*
X94262983Y-40873923D01*
X94224063Y-40876689D01*
X94205754Y-40883695D01*
X94084011Y-40944566D01*
X93845511Y-40944566D01*
X93753582Y-40898602D01*
X93707618Y-40806673D01*
X93707618Y-40782460D01*
X93753583Y-40690530D01*
X93845511Y-40644566D01*
X94036190Y-40644566D01*
X94055699Y-40642645D01*
X94059019Y-40641269D01*
X94062603Y-40641015D01*
X94080911Y-40634009D01*
X94223768Y-40562581D01*
X94227030Y-40560527D01*
X94228571Y-40560014D01*
X94230488Y-40558350D01*
X94240359Y-40552138D01*
X94248575Y-40542663D01*
X94258047Y-40534449D01*
X94264260Y-40524577D01*
X94265923Y-40522661D01*
X94266436Y-40521122D01*
X94268490Y-40517859D01*
X94339918Y-40375001D01*
X94346925Y-40356692D01*
X94347179Y-40353106D01*
X94348554Y-40349789D01*
X94350475Y-40330280D01*
X94350475Y-40258852D01*
X94793333Y-40258852D01*
X94793333Y-41044566D01*
X94795254Y-41064075D01*
X94810186Y-41100123D01*
X94837776Y-41127713D01*
X94873824Y-41142645D01*
X94912842Y-41142645D01*
X94948890Y-41127713D01*
X94958885Y-41117717D01*
X94991469Y-41134009D01*
X95009778Y-41141015D01*
X95013360Y-41141269D01*
X95016681Y-41142645D01*
X95036190Y-41144566D01*
X95393333Y-41144566D01*
X95412842Y-41142645D01*
X95416162Y-41141269D01*
X95419746Y-41141015D01*
X95438054Y-41134009D01*
X95580911Y-41062581D01*
X95584173Y-41060527D01*
X95585714Y-41060014D01*
X95587631Y-41058350D01*
X95597502Y-41052138D01*
X95605718Y-41042663D01*
X95615190Y-41034449D01*
X95621403Y-41024577D01*
X95623066Y-41022661D01*
X95623579Y-41021122D01*
X95625633Y-41017859D01*
X95697061Y-40875001D01*
X95704068Y-40856692D01*
X95704322Y-40853106D01*
X95705697Y-40849789D01*
X95707618Y-40830280D01*
X95707618Y-40687423D01*
X95705697Y-40667914D01*
X95704321Y-40664593D01*
X95704067Y-40661011D01*
X95697061Y-40642702D01*
X95625633Y-40499845D01*
X95623579Y-40496581D01*
X95623066Y-40495043D01*
X95621403Y-40493126D01*
X95615190Y-40483255D01*
X95605719Y-40475041D01*
X95597502Y-40465566D01*
X95587628Y-40459351D01*
X95585713Y-40457690D01*
X95584174Y-40457177D01*
X95580911Y-40455123D01*
X95438054Y-40383695D01*
X95419746Y-40376689D01*
X95416162Y-40376434D01*
X95412842Y-40375059D01*
X95393333Y-40373138D01*
X95059797Y-40373138D01*
X94993333Y-40339905D01*
X94993333Y-40282458D01*
X95039296Y-40190530D01*
X95131225Y-40144566D01*
X95369725Y-40144566D01*
X95491468Y-40205438D01*
X95509777Y-40212444D01*
X95548697Y-40215210D01*
X95585713Y-40202871D01*
X95615189Y-40177307D01*
X95632639Y-40142408D01*
X95635405Y-40103488D01*
X95623066Y-40066472D01*
X95597502Y-40036995D01*
X95580911Y-40026552D01*
X95577921Y-40025057D01*
X95938110Y-40025057D01*
X95938110Y-40064075D01*
X95953042Y-40100123D01*
X95980632Y-40127713D01*
X96016680Y-40142645D01*
X96036189Y-40144566D01*
X96155439Y-40144566D01*
X96262667Y-40198180D01*
X96311145Y-40246657D01*
X96364761Y-40353887D01*
X96364761Y-41044566D01*
X96366682Y-41064075D01*
X96381614Y-41100123D01*
X96409204Y-41127713D01*
X96445252Y-41142645D01*
X96484270Y-41142645D01*
X96520318Y-41127713D01*
X96547908Y-41100123D01*
X96562840Y-41064075D01*
X96564761Y-41044566D01*
X96564761Y-40044566D01*
X96562840Y-40025057D01*
X96866682Y-40025057D01*
X96866682Y-40064075D01*
X96881614Y-40100123D01*
X96909204Y-40127713D01*
X96945252Y-40142645D01*
X96964761Y-40144566D01*
X97221904Y-40144566D01*
X97221904Y-40806673D01*
X97175939Y-40898602D01*
X97084011Y-40944566D01*
X96964761Y-40944566D01*
X96945252Y-40946487D01*
X96909204Y-40961419D01*
X96881614Y-40989009D01*
X96866682Y-41025057D01*
X96866682Y-41064075D01*
X96881614Y-41100123D01*
X96909204Y-41127713D01*
X96945252Y-41142645D01*
X96964761Y-41144566D01*
X97107618Y-41144566D01*
X97127127Y-41142645D01*
X97130447Y-41141269D01*
X97134031Y-41141015D01*
X97152339Y-41134009D01*
X97295196Y-41062581D01*
X97298459Y-41060526D01*
X97299998Y-41060014D01*
X97301913Y-41058352D01*
X97311787Y-41052138D01*
X97320002Y-41042665D01*
X97329475Y-41034450D01*
X97330980Y-41032058D01*
X97794117Y-41032058D01*
X97796883Y-41070979D01*
X97814332Y-41105877D01*
X97843809Y-41131442D01*
X97880824Y-41143781D01*
X97919745Y-41141015D01*
X97938053Y-41134009D01*
X98080910Y-41062581D01*
X98084173Y-41060526D01*
X98085712Y-41060014D01*
X98087627Y-41058352D01*
X98097501Y-41052138D01*
X98105716Y-41042665D01*
X98115189Y-41034450D01*
X98121403Y-41024576D01*
X98123065Y-41022661D01*
X98123577Y-41021122D01*
X98125632Y-41017859D01*
X98197061Y-40875001D01*
X98204067Y-40856693D01*
X98204321Y-40853109D01*
X98205697Y-40849789D01*
X98207618Y-40830280D01*
X98207618Y-39544566D01*
X98721904Y-39544566D01*
X98721904Y-40758852D01*
X98723825Y-40778361D01*
X98725200Y-40781681D01*
X98725455Y-40785265D01*
X98732461Y-40803573D01*
X98803889Y-40946430D01*
X98809175Y-40954828D01*
X98810185Y-40957266D01*
X98812436Y-40960009D01*
X98814332Y-40963021D01*
X98816329Y-40964753D01*
X98822621Y-40972420D01*
X98894050Y-41043849D01*
X98901720Y-41050143D01*
X98903450Y-41052138D01*
X98906457Y-41054031D01*
X98909204Y-41056285D01*
X98911643Y-41057295D01*
X98920040Y-41062581D01*
X99062897Y-41134009D01*
X99081206Y-41141015D01*
X99084788Y-41141269D01*
X99088109Y-41142645D01*
X99107618Y-41144566D01*
X99393332Y-41144566D01*
X99412841Y-41142645D01*
X99416161Y-41141269D01*
X99419744Y-41141015D01*
X99438053Y-41134009D01*
X99580911Y-41062581D01*
X99589307Y-41057295D01*
X99591748Y-41056285D01*
X99594493Y-41054031D01*
X99597502Y-41052138D01*
X99599234Y-41050140D01*
X99606901Y-41043848D01*
X99678329Y-40972419D01*
X99684621Y-40964752D01*
X99686618Y-40963021D01*
X99688511Y-40960012D01*
X99690766Y-40957266D01*
X99691776Y-40954825D01*
X99697061Y-40946431D01*
X99768490Y-40803574D01*
X99775496Y-40785265D01*
X99775750Y-40781681D01*
X99777126Y-40778361D01*
X99779047Y-40758852D01*
X99779047Y-39544566D01*
X99777126Y-39525057D01*
X99762194Y-39489009D01*
X99734604Y-39461419D01*
X99698556Y-39446487D01*
X99659538Y-39446487D01*
X99623490Y-39461419D01*
X99595900Y-39489009D01*
X99580968Y-39525057D01*
X99579047Y-39544566D01*
X99579047Y-40735244D01*
X99525431Y-40842475D01*
X99476954Y-40890951D01*
X99369725Y-40944566D01*
X99131225Y-40944566D01*
X99023997Y-40890952D01*
X98975517Y-40842472D01*
X98921904Y-40735245D01*
X98921904Y-39544566D01*
X98919983Y-39525057D01*
X98905051Y-39489009D01*
X98877461Y-39461419D01*
X98841413Y-39446487D01*
X98802395Y-39446487D01*
X98766347Y-39461419D01*
X98738757Y-39489009D01*
X98723825Y-39525057D01*
X98721904Y-39544566D01*
X98207618Y-39544566D01*
X98205697Y-39525057D01*
X98190765Y-39489009D01*
X98163175Y-39461419D01*
X98127127Y-39446487D01*
X98088109Y-39446487D01*
X98052061Y-39461419D01*
X98024471Y-39489009D01*
X98009539Y-39525057D01*
X98007618Y-39544566D01*
X98007618Y-40806673D01*
X97961653Y-40898602D01*
X97848611Y-40955123D01*
X97832021Y-40965566D01*
X97806456Y-40995043D01*
X97794117Y-41032058D01*
X97330980Y-41032058D01*
X97335689Y-41024576D01*
X97337351Y-41022661D01*
X97337863Y-41021122D01*
X97339918Y-41017859D01*
X97411347Y-40875001D01*
X97418353Y-40856693D01*
X97418607Y-40853109D01*
X97419983Y-40849789D01*
X97421904Y-40830280D01*
X97421904Y-40144566D01*
X97536189Y-40144566D01*
X97555698Y-40142645D01*
X97591746Y-40127713D01*
X97619336Y-40100123D01*
X97634268Y-40064075D01*
X97634268Y-40025057D01*
X97619336Y-39989009D01*
X97591746Y-39961419D01*
X97555698Y-39946487D01*
X97536189Y-39944566D01*
X97421904Y-39944566D01*
X97421904Y-39544566D01*
X97419983Y-39525057D01*
X97405051Y-39489009D01*
X97377461Y-39461419D01*
X97341413Y-39446487D01*
X97302395Y-39446487D01*
X97266347Y-39461419D01*
X97238757Y-39489009D01*
X97223825Y-39525057D01*
X97221904Y-39544566D01*
X97221904Y-39944566D01*
X96964761Y-39944566D01*
X96945252Y-39946487D01*
X96909204Y-39961419D01*
X96881614Y-39989009D01*
X96866682Y-40025057D01*
X96562840Y-40025057D01*
X96547908Y-39989009D01*
X96520318Y-39961419D01*
X96484270Y-39946487D01*
X96445252Y-39946487D01*
X96409204Y-39961419D01*
X96381614Y-39989009D01*
X96366682Y-40025057D01*
X96366539Y-40026509D01*
X96223767Y-39955123D01*
X96205459Y-39948117D01*
X96201875Y-39947862D01*
X96198555Y-39946487D01*
X96179046Y-39944566D01*
X96036189Y-39944566D01*
X96016680Y-39946487D01*
X95980632Y-39961419D01*
X95953042Y-39989009D01*
X95938110Y-40025057D01*
X95577921Y-40025057D01*
X95438055Y-39955123D01*
X95419746Y-39948117D01*
X95416162Y-39947862D01*
X95412842Y-39946487D01*
X95393333Y-39944566D01*
X95107618Y-39944566D01*
X95088109Y-39946487D01*
X95084788Y-39947862D01*
X95081205Y-39948117D01*
X95062896Y-39955123D01*
X94920039Y-40026552D01*
X94916774Y-40028606D01*
X94915238Y-40029119D01*
X94913323Y-40030778D01*
X94903449Y-40036995D01*
X94895233Y-40046467D01*
X94885761Y-40054683D01*
X94879546Y-40064556D01*
X94877885Y-40066472D01*
X94877372Y-40068010D01*
X94875318Y-40071274D01*
X94803890Y-40214131D01*
X94796884Y-40232439D01*
X94796629Y-40236022D01*
X94795254Y-40239343D01*
X94793333Y-40258852D01*
X94350475Y-40258852D01*
X94348554Y-40239343D01*
X94347178Y-40236022D01*
X94346924Y-40232440D01*
X94339918Y-40214131D01*
X94268490Y-40071274D01*
X94266436Y-40068010D01*
X94265923Y-40066472D01*
X94264260Y-40064555D01*
X94258047Y-40054684D01*
X94248576Y-40046470D01*
X94240359Y-40036995D01*
X94230485Y-40030780D01*
X94228570Y-40029119D01*
X94227031Y-40028606D01*
X94223768Y-40026552D01*
X94080912Y-39955123D01*
X94062603Y-39948117D01*
X94059019Y-39947862D01*
X94055699Y-39946487D01*
X94036190Y-39944566D01*
X93821904Y-39944566D01*
X93802395Y-39946487D01*
X93799074Y-39947862D01*
X93795491Y-39948117D01*
X93777182Y-39955123D01*
X93634325Y-40026552D01*
X93617735Y-40036995D01*
X93592171Y-40066472D01*
X93579832Y-40103488D01*
X93582598Y-40142408D01*
X93600047Y-40177307D01*
X93629524Y-40202871D01*
X93666540Y-40215210D01*
X93705460Y-40212444D01*
X93723769Y-40205438D01*
X93845511Y-40144566D01*
X94012582Y-40144566D01*
X94104511Y-40190531D01*
X94150475Y-40282458D01*
X94150475Y-40306673D01*
X94104511Y-40398602D01*
X94012583Y-40444566D01*
X93821904Y-40444566D01*
X93802395Y-40446487D01*
X93799074Y-40447862D01*
X93795491Y-40448117D01*
X93777182Y-40455123D01*
X93634325Y-40526552D01*
X93631060Y-40528606D01*
X93629524Y-40529119D01*
X93627609Y-40530778D01*
X93617735Y-40536995D01*
X93609519Y-40546467D01*
X93600047Y-40554683D01*
X93593832Y-40564556D01*
X93592171Y-40566472D01*
X93591658Y-40568010D01*
X93589604Y-40571274D01*
X93518175Y-40714130D01*
X93511169Y-40732439D01*
X93510914Y-40736022D01*
X93509539Y-40739343D01*
X93507618Y-40758852D01*
X93136189Y-40758852D01*
X93136189Y-40330280D01*
X93134268Y-40310771D01*
X93132892Y-40307450D01*
X93132638Y-40303868D01*
X93125632Y-40285559D01*
X93054204Y-40142702D01*
X93048919Y-40134306D01*
X93047908Y-40131865D01*
X93045652Y-40129117D01*
X93043761Y-40126112D01*
X93041766Y-40124381D01*
X93035471Y-40116712D01*
X92964042Y-40045284D01*
X92956375Y-40038991D01*
X92954644Y-40036995D01*
X92951636Y-40035101D01*
X92948889Y-40032847D01*
X92946447Y-40031835D01*
X92938053Y-40026552D01*
X92795197Y-39955123D01*
X92776888Y-39948117D01*
X92773304Y-39947862D01*
X92769984Y-39946487D01*
X92750475Y-39944566D01*
X92536189Y-39944566D01*
X92516680Y-39946487D01*
X92513359Y-39947862D01*
X92509776Y-39948117D01*
X92491467Y-39955123D01*
X92348610Y-40026552D01*
X92340212Y-40031837D01*
X92337774Y-40032848D01*
X92335029Y-40035100D01*
X92332020Y-40036995D01*
X92330287Y-40038992D01*
X92322621Y-40045285D01*
X92251193Y-40116712D01*
X92244901Y-40124378D01*
X92242904Y-40126111D01*
X92241008Y-40129122D01*
X92238757Y-40131866D01*
X92237747Y-40134303D01*
X92232461Y-40142702D01*
X92161032Y-40285558D01*
X92154026Y-40303867D01*
X92153771Y-40307450D01*
X92152396Y-40310771D01*
X92150475Y-40330280D01*
X91707618Y-40330280D01*
X91707618Y-40044566D01*
X91705697Y-40025057D01*
X91690765Y-39989009D01*
X91663175Y-39961419D01*
X91627127Y-39946487D01*
X91588109Y-39946487D01*
X91552061Y-39961419D01*
X91524471Y-39989009D01*
X91521271Y-39996732D01*
X91438054Y-39955123D01*
X91419745Y-39948117D01*
X91416161Y-39947862D01*
X91412841Y-39946487D01*
X91393332Y-39944566D01*
X91179046Y-39944566D01*
X91159537Y-39946487D01*
X91156216Y-39947862D01*
X91152633Y-39948117D01*
X91134324Y-39955123D01*
X90991467Y-40026552D01*
X90988202Y-40028606D01*
X90986666Y-40029119D01*
X90984751Y-40030778D01*
X90974877Y-40036995D01*
X90966661Y-40046467D01*
X90957189Y-40054683D01*
X90950974Y-40064556D01*
X90949313Y-40066472D01*
X90948800Y-40068010D01*
X90946746Y-40071274D01*
X90875318Y-40214131D01*
X90868312Y-40232439D01*
X90868057Y-40236022D01*
X90866682Y-40239343D01*
X90864761Y-40258852D01*
X90350475Y-40258852D01*
X90350475Y-40044566D01*
X90348554Y-40025057D01*
X90333622Y-39989009D01*
X90306032Y-39961419D01*
X90269984Y-39946487D01*
X90230966Y-39946487D01*
X90194918Y-39961419D01*
X90167328Y-39989009D01*
X90152396Y-40025057D01*
X90150475Y-40044566D01*
X89534595Y-40044566D01*
X89527803Y-40038991D01*
X89526072Y-40036995D01*
X89523064Y-40035101D01*
X89520317Y-40032847D01*
X89517875Y-40031835D01*
X89509481Y-40026552D01*
X89366625Y-39955123D01*
X89348316Y-39948117D01*
X89344732Y-39947862D01*
X89341412Y-39946487D01*
X89321903Y-39944566D01*
X89036189Y-39944566D01*
X89016680Y-39946487D01*
X89013359Y-39947862D01*
X89009776Y-39948117D01*
X88991467Y-39955123D01*
X88848610Y-40026552D01*
X88832020Y-40036995D01*
X88806456Y-40066472D01*
X88794117Y-40103488D01*
X88627450Y-40103488D01*
X88627450Y-39596486D01*
X90080967Y-39596486D01*
X90080967Y-39635504D01*
X90089714Y-39656621D01*
X90095899Y-39671553D01*
X90108336Y-39686706D01*
X90179765Y-39758134D01*
X90194918Y-39770571D01*
X90220408Y-39781128D01*
X90230966Y-39785502D01*
X90230967Y-39785502D01*
X90269984Y-39785502D01*
X90291101Y-39776754D01*
X90306033Y-39770570D01*
X90306037Y-39770565D01*
X90321186Y-39758134D01*
X90392613Y-39686706D01*
X90405050Y-39671553D01*
X90419981Y-39635504D01*
X90419981Y-39616712D01*
X90419982Y-39596487D01*
X90405051Y-39560438D01*
X90392614Y-39545285D01*
X90321186Y-39473856D01*
X90306033Y-39461419D01*
X90291101Y-39455234D01*
X90269984Y-39446487D01*
X90230966Y-39446487D01*
X90220408Y-39450860D01*
X90194918Y-39461418D01*
X90194912Y-39461423D01*
X90179764Y-39473855D01*
X90108335Y-39545284D01*
X90095903Y-39560432D01*
X90095898Y-39560438D01*
X90094392Y-39564075D01*
X90080967Y-39596486D01*
X88627450Y-39596486D01*
X88627450Y-39279820D01*
X99945714Y-39279820D01*
X99945714Y-41311233D01*
G37*
D13*
G36*
X138265979Y-134677927D02*
G01*
X138666727Y-135078675D01*
X138711542Y-135213118D01*
X138711542Y-135280053D01*
X138666727Y-135414495D01*
X138518518Y-135562706D01*
X138384073Y-135607521D01*
X138317140Y-135607521D01*
X138182695Y-135562706D01*
X137781947Y-135161957D01*
X137737133Y-135027515D01*
X137737133Y-134960579D01*
X137781947Y-134826137D01*
X137930157Y-134677927D01*
X138064602Y-134633113D01*
X138131535Y-134633113D01*
X138265979Y-134677927D01*
G37*
G36*
X140875538Y-132068366D02*
G01*
X141276287Y-132469114D01*
X141321102Y-132603558D01*
X141321102Y-132670492D01*
X141276287Y-132804936D01*
X141128078Y-132953145D01*
X140993634Y-132997960D01*
X140926701Y-132997960D01*
X140792256Y-132953145D01*
X140391508Y-132552398D01*
X140346694Y-132417954D01*
X140346694Y-132351020D01*
X140391508Y-132216576D01*
X140539718Y-132068366D01*
X140674161Y-132023552D01*
X140741097Y-132023552D01*
X140875538Y-132068366D01*
G37*
G36*
X147649981Y-129102826D02*
G01*
X137087359Y-139665448D01*
X134352085Y-136930175D01*
X134392875Y-136889385D01*
X134926142Y-136889385D01*
X134926142Y-136970963D01*
X134947257Y-137049762D01*
X134988046Y-137120413D01*
X135014998Y-137151145D01*
X136782765Y-138918912D01*
X136813497Y-138945864D01*
X136825310Y-138952684D01*
X136835752Y-138961451D01*
X136860500Y-138973000D01*
X136884148Y-138986653D01*
X136897316Y-138990181D01*
X136909677Y-138995950D01*
X136936567Y-139000699D01*
X136962946Y-139007768D01*
X136976588Y-139007768D01*
X136990012Y-139010139D01*
X137017206Y-139007768D01*
X137044525Y-139007768D01*
X137057701Y-139004237D01*
X137071284Y-139003053D01*
X137096949Y-138993720D01*
X137123324Y-138986653D01*
X137135131Y-138979836D01*
X137147950Y-138975175D01*
X137170322Y-138959519D01*
X137193975Y-138945864D01*
X137203621Y-138936217D01*
X137214790Y-138928402D01*
X137232341Y-138907497D01*
X137251659Y-138888180D01*
X137258479Y-138876366D01*
X137267246Y-138865925D01*
X137278794Y-138841178D01*
X137292448Y-138817529D01*
X137295977Y-138804358D01*
X137301745Y-138791999D01*
X137306494Y-138765109D01*
X137313563Y-138738730D01*
X137313563Y-138725088D01*
X137315934Y-138711664D01*
X137313563Y-138684466D01*
X137313563Y-138657151D01*
X137310033Y-138643979D01*
X137308849Y-138630393D01*
X137297421Y-138591146D01*
X136852831Y-137368524D01*
X138075453Y-137813114D01*
X138114700Y-137824542D01*
X138128286Y-137825726D01*
X138141458Y-137829256D01*
X138168774Y-137829256D01*
X138195971Y-137831627D01*
X138209395Y-137829256D01*
X138223037Y-137829256D01*
X138249416Y-137822187D01*
X138276306Y-137817438D01*
X138288665Y-137811670D01*
X138301836Y-137808141D01*
X138325485Y-137794487D01*
X138350232Y-137782939D01*
X138360673Y-137774172D01*
X138372487Y-137767352D01*
X138391804Y-137748034D01*
X138412709Y-137730483D01*
X138420524Y-137719314D01*
X138430171Y-137709668D01*
X138443826Y-137686015D01*
X138459482Y-137663643D01*
X138464143Y-137650824D01*
X138470960Y-137639017D01*
X138478027Y-137612642D01*
X138487360Y-137586977D01*
X138488544Y-137573394D01*
X138492075Y-137560218D01*
X138492075Y-137532898D01*
X138494446Y-137505705D01*
X138492075Y-137492280D01*
X138492075Y-137478639D01*
X138485006Y-137452260D01*
X138480257Y-137425370D01*
X138474488Y-137413009D01*
X138470960Y-137399841D01*
X138457307Y-137376193D01*
X138445758Y-137351445D01*
X138436991Y-137341003D01*
X138430171Y-137329190D01*
X138403219Y-137298458D01*
X136635452Y-135530691D01*
X136604720Y-135503739D01*
X136534069Y-135462950D01*
X136455270Y-135441835D01*
X136373692Y-135441835D01*
X136294893Y-135462950D01*
X136224242Y-135503739D01*
X136166558Y-135561423D01*
X136125769Y-135632074D01*
X136104654Y-135710873D01*
X136104654Y-135792451D01*
X136125769Y-135871250D01*
X136166558Y-135941901D01*
X136193510Y-135972633D01*
X136965237Y-136744360D01*
X136437096Y-136552309D01*
X136427864Y-136549621D01*
X136424359Y-136547985D01*
X136418988Y-136547036D01*
X136397849Y-136540881D01*
X136370775Y-136538520D01*
X136344025Y-136533796D01*
X136330301Y-136534992D01*
X136316577Y-136533796D01*
X136289826Y-136538520D01*
X136262753Y-136540881D01*
X136249804Y-136545589D01*
X136236243Y-136547985D01*
X136211626Y-136559472D01*
X136186087Y-136568760D01*
X136174799Y-136576658D01*
X136162317Y-136582484D01*
X136141508Y-136599955D01*
X136119247Y-136615533D01*
X136110389Y-136626082D01*
X136099840Y-136634940D01*
X136084262Y-136657201D01*
X136066791Y-136678010D01*
X136060965Y-136690492D01*
X136053067Y-136701780D01*
X136043779Y-136727319D01*
X136032292Y-136751936D01*
X136029896Y-136765497D01*
X136025188Y-136778446D01*
X136022827Y-136805519D01*
X136018103Y-136832270D01*
X136019299Y-136845994D01*
X136018103Y-136859718D01*
X136022827Y-136886468D01*
X136025188Y-136913542D01*
X136031343Y-136934681D01*
X136032292Y-136940052D01*
X136033928Y-136943557D01*
X136036616Y-136952789D01*
X136228667Y-137480930D01*
X135456940Y-136709203D01*
X135426208Y-136682251D01*
X135355557Y-136641462D01*
X135276758Y-136620347D01*
X135195180Y-136620347D01*
X135116381Y-136641462D01*
X135045730Y-136682251D01*
X134988046Y-136739935D01*
X134947257Y-136810586D01*
X134926142Y-136889385D01*
X134392875Y-136889385D01*
X136372392Y-134909868D01*
X137112133Y-134909868D01*
X137112133Y-135078227D01*
X137114806Y-135119016D01*
X137117242Y-135128110D01*
X137117807Y-135137508D01*
X137128170Y-135177049D01*
X137212350Y-135429587D01*
X137218724Y-135445221D01*
X137220100Y-135450353D01*
X137222542Y-135454583D01*
X137227784Y-135467438D01*
X137245142Y-135493728D01*
X137260890Y-135521003D01*
X137270043Y-135531440D01*
X137272735Y-135535517D01*
X137276708Y-135539040D01*
X137287842Y-135551736D01*
X137792918Y-136056813D01*
X137805615Y-136067948D01*
X137809138Y-136071921D01*
X137813212Y-136074610D01*
X137823650Y-136083765D01*
X137850933Y-136099516D01*
X137877218Y-136116871D01*
X137890073Y-136122113D01*
X137894301Y-136124554D01*
X137899426Y-136125927D01*
X137915068Y-136132306D01*
X138167606Y-136216485D01*
X138207147Y-136226847D01*
X138216542Y-136227410D01*
X138225638Y-136229848D01*
X138266427Y-136232521D01*
X138434786Y-136232521D01*
X138475575Y-136229848D01*
X138484669Y-136227411D01*
X138494066Y-136226847D01*
X138533607Y-136216485D01*
X138786145Y-136132306D01*
X138801785Y-136125928D01*
X138806913Y-136124554D01*
X138811142Y-136122112D01*
X138823995Y-136116871D01*
X138850273Y-136099520D01*
X138877563Y-136083765D01*
X138888002Y-136074609D01*
X138892074Y-136071921D01*
X138895595Y-136067950D01*
X138908295Y-136056812D01*
X139160833Y-135804274D01*
X139171970Y-135791573D01*
X139175940Y-135788054D01*
X139178629Y-135783981D01*
X139187785Y-135773541D01*
X139203533Y-135746262D01*
X139220891Y-135719975D01*
X139226133Y-135707117D01*
X139228574Y-135702891D01*
X139229947Y-135697765D01*
X139236325Y-135682125D01*
X139320505Y-135429587D01*
X139330868Y-135390045D01*
X139331432Y-135380648D01*
X139333869Y-135371554D01*
X139336542Y-135330765D01*
X139336542Y-135162407D01*
X139333869Y-135121618D01*
X139331432Y-135112523D01*
X139330868Y-135103127D01*
X139320506Y-135063586D01*
X139236325Y-134811046D01*
X139229947Y-134795406D01*
X139228574Y-134790280D01*
X139226133Y-134786053D01*
X139220891Y-134773196D01*
X139203533Y-134746907D01*
X139187785Y-134719629D01*
X139178631Y-134709191D01*
X139175941Y-134705117D01*
X139171968Y-134701594D01*
X139160833Y-134688897D01*
X138655757Y-134183821D01*
X138643054Y-134172681D01*
X138639536Y-134168713D01*
X138635465Y-134166025D01*
X138625025Y-134156869D01*
X138597738Y-134141115D01*
X138571457Y-134123763D01*
X138558601Y-134118520D01*
X138554374Y-134116080D01*
X138549248Y-134114706D01*
X138533607Y-134108328D01*
X138281069Y-134024149D01*
X138241528Y-134013787D01*
X138232131Y-134013222D01*
X138223037Y-134010786D01*
X138182248Y-134008113D01*
X138013889Y-134008113D01*
X137973100Y-134010786D01*
X137964004Y-134013223D01*
X137954609Y-134013787D01*
X137915068Y-134024149D01*
X137662530Y-134108328D01*
X137646894Y-134114703D01*
X137641763Y-134116079D01*
X137637530Y-134118522D01*
X137624680Y-134123763D01*
X137598396Y-134141117D01*
X137571113Y-134156869D01*
X137560676Y-134166021D01*
X137556600Y-134168713D01*
X137553076Y-134172686D01*
X137540380Y-134183821D01*
X137287842Y-134436359D01*
X137276706Y-134449056D01*
X137272735Y-134452578D01*
X137270045Y-134456651D01*
X137260890Y-134467091D01*
X137245143Y-134494366D01*
X137227784Y-134520657D01*
X137222540Y-134533516D01*
X137220101Y-134537742D01*
X137218727Y-134542867D01*
X137212350Y-134558508D01*
X137128170Y-134811046D01*
X137117807Y-134850587D01*
X137117242Y-134859984D01*
X137114806Y-134869079D01*
X137112133Y-134909868D01*
X136372392Y-134909868D01*
X137993954Y-133288306D01*
X138712328Y-133288306D01*
X138713657Y-133310460D01*
X138712328Y-133332614D01*
X138716091Y-133351004D01*
X138717216Y-133369740D01*
X138727578Y-133409281D01*
X138811757Y-133661819D01*
X138818135Y-133677460D01*
X138819509Y-133682586D01*
X138821949Y-133686813D01*
X138827192Y-133699669D01*
X138844544Y-133725950D01*
X138860298Y-133753237D01*
X138869454Y-133763677D01*
X138872142Y-133767748D01*
X138876110Y-133771266D01*
X138887250Y-133783969D01*
X139592252Y-134488971D01*
X139560685Y-134520538D01*
X139533733Y-134551270D01*
X139492944Y-134621921D01*
X139471829Y-134700720D01*
X139471829Y-134782298D01*
X139492944Y-134861097D01*
X139533733Y-134931748D01*
X139591417Y-134989432D01*
X139662068Y-135030221D01*
X139740867Y-135051336D01*
X139822445Y-135051336D01*
X139901244Y-135030221D01*
X139971895Y-134989432D01*
X140002627Y-134962480D01*
X140034194Y-134930913D01*
X140402479Y-135299198D01*
X140433211Y-135326150D01*
X140503862Y-135366939D01*
X140582660Y-135388053D01*
X140664239Y-135388053D01*
X140743038Y-135366939D01*
X140813688Y-135326150D01*
X140871373Y-135268465D01*
X140912162Y-135197815D01*
X140933276Y-135119016D01*
X140933276Y-135037437D01*
X140912162Y-134958639D01*
X140871373Y-134887988D01*
X140844421Y-134857256D01*
X140476136Y-134488971D01*
X140676062Y-134289045D01*
X140703014Y-134258313D01*
X140743803Y-134187662D01*
X140764918Y-134108863D01*
X140764918Y-134027284D01*
X140743803Y-133948486D01*
X140703014Y-133877835D01*
X140645330Y-133820151D01*
X140574679Y-133779362D01*
X140495881Y-133758247D01*
X140414302Y-133758247D01*
X140335503Y-133779362D01*
X140264852Y-133820151D01*
X140234120Y-133847103D01*
X140034194Y-134047029D01*
X139381356Y-133394191D01*
X139353446Y-133310460D01*
X139381356Y-133226728D01*
X139497551Y-133110534D01*
X139524503Y-133079801D01*
X139565293Y-133009151D01*
X139586407Y-132930352D01*
X139586407Y-132848773D01*
X139565293Y-132769975D01*
X139524503Y-132699324D01*
X139466819Y-132641640D01*
X139396168Y-132600850D01*
X139317370Y-132579736D01*
X139235791Y-132579736D01*
X139156992Y-132600850D01*
X139086342Y-132641640D01*
X139055609Y-132668592D01*
X138887250Y-132836951D01*
X138876110Y-132849653D01*
X138872142Y-132853172D01*
X138869454Y-132857242D01*
X138860298Y-132867683D01*
X138844544Y-132894969D01*
X138827192Y-132921251D01*
X138821949Y-132934106D01*
X138819509Y-132938334D01*
X138818135Y-132943459D01*
X138811757Y-132959101D01*
X138727578Y-133211639D01*
X138717216Y-133251180D01*
X138716091Y-133269915D01*
X138712328Y-133288306D01*
X137993954Y-133288306D01*
X138981952Y-132300308D01*
X139721694Y-132300308D01*
X139721694Y-132468667D01*
X139724367Y-132509456D01*
X139726803Y-132518550D01*
X139727368Y-132527947D01*
X139737730Y-132567488D01*
X139821909Y-132820026D01*
X139828287Y-132835667D01*
X139829661Y-132840793D01*
X139832101Y-132845020D01*
X139837344Y-132857876D01*
X139854696Y-132884157D01*
X139870450Y-132911444D01*
X139879606Y-132921884D01*
X139882294Y-132925955D01*
X139886262Y-132929473D01*
X139897402Y-132942176D01*
X140402479Y-133447252D01*
X140415175Y-133458386D01*
X140418699Y-133462360D01*
X140422775Y-133465051D01*
X140433212Y-133474204D01*
X140460490Y-133489952D01*
X140486779Y-133507310D01*
X140499635Y-133512552D01*
X140503862Y-133514993D01*
X140508987Y-133516366D01*
X140524629Y-133522745D01*
X140777167Y-133606924D01*
X140816708Y-133617286D01*
X140826103Y-133617849D01*
X140835199Y-133620287D01*
X140875988Y-133622960D01*
X141044346Y-133622960D01*
X141085135Y-133620287D01*
X141094229Y-133617849D01*
X141103625Y-133617286D01*
X141143166Y-133606924D01*
X141395705Y-133522745D01*
X141411346Y-133516366D01*
X141416473Y-133514993D01*
X141420700Y-133512552D01*
X141433556Y-133507310D01*
X141459837Y-133489957D01*
X141487124Y-133474204D01*
X141497564Y-133465047D01*
X141501635Y-133462360D01*
X141505154Y-133458391D01*
X141517856Y-133447252D01*
X141770394Y-133194714D01*
X141781528Y-133182017D01*
X141785502Y-133178494D01*
X141788193Y-133174417D01*
X141797346Y-133163981D01*
X141813097Y-133136697D01*
X141830452Y-133110414D01*
X141835692Y-133097563D01*
X141838136Y-133093331D01*
X141839511Y-133088199D01*
X141845887Y-133072564D01*
X141930066Y-132820026D01*
X141940428Y-132780485D01*
X141940991Y-132771089D01*
X141943429Y-132761994D01*
X141946102Y-132721205D01*
X141946102Y-132552846D01*
X141943429Y-132512057D01*
X141940991Y-132502961D01*
X141940428Y-132493566D01*
X141930066Y-132454025D01*
X141845887Y-132201487D01*
X141839508Y-132185845D01*
X141838135Y-132180720D01*
X141835694Y-132176492D01*
X141830452Y-132163637D01*
X141813097Y-132137352D01*
X141797346Y-132110069D01*
X141788191Y-132099631D01*
X141785502Y-132095557D01*
X141781529Y-132092034D01*
X141770394Y-132079337D01*
X141265317Y-131574261D01*
X141252621Y-131563127D01*
X141249098Y-131559154D01*
X141245021Y-131556462D01*
X141234584Y-131547309D01*
X141207309Y-131531561D01*
X141181019Y-131514203D01*
X141168164Y-131508961D01*
X141163934Y-131506519D01*
X141158802Y-131505143D01*
X141143168Y-131498769D01*
X140890630Y-131414589D01*
X140851089Y-131404226D01*
X140841691Y-131403661D01*
X140832597Y-131401225D01*
X140791808Y-131398552D01*
X140623450Y-131398552D01*
X140582661Y-131401225D01*
X140573566Y-131403661D01*
X140564170Y-131404226D01*
X140524629Y-131414588D01*
X140272089Y-131498769D01*
X140256456Y-131505143D01*
X140251323Y-131506519D01*
X140247090Y-131508962D01*
X140234239Y-131514203D01*
X140207951Y-131531559D01*
X140180673Y-131547309D01*
X140170236Y-131556461D01*
X140166160Y-131559153D01*
X140162636Y-131563126D01*
X140149940Y-131574261D01*
X139897402Y-131826799D01*
X139886262Y-131839501D01*
X139882294Y-131843020D01*
X139879606Y-131847090D01*
X139870450Y-131857531D01*
X139854696Y-131884817D01*
X139837344Y-131911099D01*
X139832101Y-131923954D01*
X139829661Y-131928182D01*
X139828287Y-131933307D01*
X139821909Y-131948949D01*
X139737730Y-132201487D01*
X139727368Y-132241028D01*
X139726803Y-132250424D01*
X139724367Y-132259519D01*
X139721694Y-132300308D01*
X138981952Y-132300308D01*
X140622151Y-130660109D01*
X141155417Y-130660109D01*
X141155417Y-130741688D01*
X141176532Y-130820487D01*
X141217321Y-130891137D01*
X141244273Y-130921870D01*
X142422784Y-132100382D01*
X142453516Y-132127334D01*
X142524167Y-132168123D01*
X142602965Y-132189238D01*
X142684544Y-132189238D01*
X142763343Y-132168123D01*
X142833994Y-132127334D01*
X142891678Y-132069650D01*
X142932467Y-131998999D01*
X142953582Y-131920201D01*
X142953582Y-131881060D01*
X143079294Y-131839156D01*
X143094934Y-131832778D01*
X143100060Y-131831405D01*
X143104285Y-131828965D01*
X143117145Y-131823722D01*
X143143435Y-131806362D01*
X143170711Y-131790616D01*
X143181150Y-131781460D01*
X143185224Y-131778771D01*
X143188745Y-131774799D01*
X143201443Y-131763664D01*
X143369802Y-131595305D01*
X143396754Y-131564572D01*
X143437544Y-131493922D01*
X143458658Y-131415123D01*
X143458658Y-131333544D01*
X143437544Y-131254746D01*
X143396754Y-131184095D01*
X143339070Y-131126411D01*
X143268419Y-131085621D01*
X143189621Y-131064507D01*
X143108042Y-131064507D01*
X143029243Y-131085621D01*
X142958593Y-131126411D01*
X142927860Y-131153363D01*
X142811664Y-131269558D01*
X142677223Y-131314373D01*
X142610286Y-131314373D01*
X142475845Y-131269558D01*
X141686215Y-130479928D01*
X141655483Y-130452976D01*
X141584832Y-130412187D01*
X141506034Y-130391072D01*
X141424455Y-130391072D01*
X141345656Y-130412187D01*
X141275006Y-130452976D01*
X141217321Y-130510660D01*
X141176532Y-130581311D01*
X141155417Y-130660109D01*
X140622151Y-130660109D01*
X142371280Y-128910980D01*
X144099808Y-128910980D01*
X144101695Y-128942416D01*
X144101695Y-128973921D01*
X144104132Y-128983015D01*
X144104696Y-128992411D01*
X144114658Y-129022298D01*
X144122810Y-129052720D01*
X144127514Y-129060869D01*
X144130493Y-129069804D01*
X144147853Y-129096098D01*
X144163599Y-129123370D01*
X144170255Y-129130026D01*
X144175442Y-129137882D01*
X144199005Y-129158777D01*
X144221283Y-129181055D01*
X144229436Y-129185762D01*
X144236480Y-129192008D01*
X144271768Y-129212640D01*
X145955355Y-130054435D01*
X145993033Y-130070285D01*
X146072957Y-130086640D01*
X146154389Y-130081752D01*
X146231781Y-130055955D01*
X146299859Y-130011006D01*
X146353986Y-129949968D01*
X146390468Y-129877002D01*
X146406823Y-129797078D01*
X146401935Y-129715647D01*
X146376138Y-129638254D01*
X146331189Y-129570176D01*
X146270151Y-129516050D01*
X146234864Y-129495418D01*
X144939073Y-128847522D01*
X145253315Y-128533280D01*
X145621600Y-128901565D01*
X145652332Y-128928517D01*
X145722983Y-128969306D01*
X145801781Y-128990420D01*
X145883360Y-128990420D01*
X145962159Y-128969306D01*
X146032809Y-128928517D01*
X146090494Y-128870832D01*
X146131283Y-128800182D01*
X146152397Y-128721383D01*
X146152397Y-128639804D01*
X146131283Y-128561006D01*
X146090494Y-128490355D01*
X146063542Y-128459623D01*
X145695257Y-128091338D01*
X145726824Y-128059772D01*
X145753777Y-128029040D01*
X145794566Y-127958389D01*
X145815680Y-127879591D01*
X145815680Y-127798012D01*
X145794566Y-127719213D01*
X145753777Y-127648563D01*
X145696092Y-127590878D01*
X145625442Y-127550089D01*
X145546643Y-127528975D01*
X145465064Y-127528975D01*
X145386266Y-127550089D01*
X145315615Y-127590878D01*
X145284883Y-127617830D01*
X145253315Y-127649396D01*
X144885031Y-127281112D01*
X144854299Y-127254160D01*
X144783648Y-127213371D01*
X144704849Y-127192256D01*
X144623271Y-127192256D01*
X144544472Y-127213371D01*
X144473821Y-127254160D01*
X144416137Y-127311844D01*
X144375348Y-127382495D01*
X144354233Y-127461294D01*
X144354233Y-127542872D01*
X144375348Y-127621671D01*
X144416137Y-127692322D01*
X144443089Y-127723054D01*
X144811373Y-128091338D01*
X144190551Y-128712161D01*
X144163599Y-128742893D01*
X144158891Y-128751046D01*
X144152646Y-128758090D01*
X144138555Y-128786271D01*
X144122810Y-128813544D01*
X144120374Y-128822633D01*
X144116163Y-128831056D01*
X144109848Y-128861916D01*
X144101695Y-128892342D01*
X144101695Y-128901758D01*
X144099808Y-128910980D01*
X142371280Y-128910980D01*
X144914708Y-126367552D01*
X147649981Y-129102826D01*
G37*
D12*
X93535713Y-137700638D02*
X93392856Y-137748257D01*
X93392856Y-137748257D02*
X93154761Y-137748257D01*
X93154761Y-137748257D02*
X93059523Y-137700638D01*
X93059523Y-137700638D02*
X93011904Y-137653018D01*
X93011904Y-137653018D02*
X92964285Y-137557780D01*
X92964285Y-137557780D02*
X92964285Y-137462542D01*
X92964285Y-137462542D02*
X93011904Y-137367304D01*
X93011904Y-137367304D02*
X93059523Y-137319685D01*
X93059523Y-137319685D02*
X93154761Y-137272066D01*
X93154761Y-137272066D02*
X93345237Y-137224447D01*
X93345237Y-137224447D02*
X93440475Y-137176828D01*
X93440475Y-137176828D02*
X93488094Y-137129209D01*
X93488094Y-137129209D02*
X93535713Y-137033971D01*
X93535713Y-137033971D02*
X93535713Y-136938733D01*
X93535713Y-136938733D02*
X93488094Y-136843495D01*
X93488094Y-136843495D02*
X93440475Y-136795876D01*
X93440475Y-136795876D02*
X93345237Y-136748257D01*
X93345237Y-136748257D02*
X93107142Y-136748257D01*
X93107142Y-136748257D02*
X92964285Y-136795876D01*
D13*
G36*
X48577742Y-40351853D02*
G01*
X48978490Y-40752600D01*
X49023305Y-40887044D01*
X49023305Y-40953978D01*
X48978490Y-41088422D01*
X48830281Y-41236631D01*
X48695837Y-41281447D01*
X48628902Y-41281447D01*
X48494460Y-41236632D01*
X48093711Y-40835884D01*
X48048897Y-40701440D01*
X48048897Y-40634506D01*
X48093711Y-40500062D01*
X48241920Y-40351853D01*
X48376365Y-40307039D01*
X48443298Y-40307039D01*
X48577742Y-40351853D01*
G37*
G36*
X51187303Y-37742292D02*
G01*
X51588051Y-38143041D01*
X51632866Y-38277483D01*
X51632866Y-38344419D01*
X51588051Y-38478861D01*
X51439841Y-38627071D01*
X51305397Y-38671886D01*
X51238464Y-38671886D01*
X51104019Y-38627071D01*
X50703272Y-38226324D01*
X50658457Y-38091880D01*
X50658457Y-38024945D01*
X50703271Y-37890502D01*
X50851481Y-37742292D01*
X50985926Y-37697478D01*
X51052859Y-37697478D01*
X51187303Y-37742292D01*
G37*
G36*
X55017914Y-36374825D02*
G01*
X44539470Y-46853269D01*
X41888033Y-44201832D01*
X42412198Y-43677667D01*
X42963080Y-43677667D01*
X42965063Y-43708411D01*
X42965063Y-43739222D01*
X42967680Y-43748989D01*
X42968331Y-43759078D01*
X42978204Y-43788264D01*
X42986178Y-43818020D01*
X42991232Y-43826774D01*
X42994473Y-43836354D01*
X43011560Y-43861985D01*
X43026967Y-43888671D01*
X43036907Y-43900005D01*
X43039725Y-43904232D01*
X43043602Y-43907639D01*
X43053919Y-43919403D01*
X44600714Y-45466198D01*
X44316609Y-45750304D01*
X44289657Y-45781036D01*
X44248868Y-45851687D01*
X44227753Y-45930486D01*
X44227753Y-46012064D01*
X44248868Y-46090863D01*
X44289657Y-46161514D01*
X44347341Y-46219198D01*
X44417992Y-46259987D01*
X44496791Y-46281102D01*
X44578369Y-46281102D01*
X44657168Y-46259987D01*
X44727819Y-46219198D01*
X44758551Y-46192246D01*
X45768704Y-45182093D01*
X45795656Y-45151361D01*
X45836445Y-45080710D01*
X45857560Y-45001912D01*
X45857560Y-44920333D01*
X45836445Y-44841534D01*
X45795656Y-44770883D01*
X45737972Y-44713199D01*
X45667321Y-44672410D01*
X45588522Y-44651295D01*
X45506943Y-44651295D01*
X45428145Y-44672410D01*
X45357494Y-44713199D01*
X45326762Y-44740151D01*
X45042656Y-45024256D01*
X44104503Y-44086103D01*
X44131325Y-44079075D01*
X44383863Y-43994896D01*
X44421713Y-43979461D01*
X44489792Y-43934511D01*
X44543917Y-43873474D01*
X44580401Y-43800508D01*
X44596755Y-43720586D01*
X44591868Y-43639152D01*
X44566071Y-43561761D01*
X44521121Y-43493682D01*
X44460084Y-43439557D01*
X44387118Y-43403073D01*
X44307195Y-43386719D01*
X44225762Y-43391606D01*
X44186221Y-43401968D01*
X43981791Y-43470111D01*
X43726733Y-43470111D01*
X43336176Y-43392000D01*
X43320667Y-43389941D01*
X43315679Y-43388605D01*
X43310596Y-43388605D01*
X43295655Y-43386622D01*
X43264911Y-43388605D01*
X43234100Y-43388605D01*
X43224332Y-43391222D01*
X43214244Y-43391873D01*
X43185057Y-43401746D01*
X43155302Y-43409720D01*
X43146547Y-43414774D01*
X43136968Y-43418015D01*
X43111336Y-43435102D01*
X43084651Y-43450509D01*
X43077499Y-43457661D01*
X43069090Y-43463267D01*
X43048760Y-43486399D01*
X43026967Y-43508193D01*
X43021910Y-43516951D01*
X43015238Y-43524544D01*
X43001580Y-43552164D01*
X42986178Y-43578844D01*
X42983562Y-43588606D01*
X42979079Y-43597673D01*
X42973035Y-43627891D01*
X42965063Y-43657643D01*
X42965063Y-43667752D01*
X42963080Y-43677667D01*
X42412198Y-43677667D01*
X44199989Y-41889876D01*
X45911341Y-41889876D01*
X45911341Y-41971454D01*
X45932456Y-42050253D01*
X45973245Y-42120904D01*
X46030929Y-42178588D01*
X46101580Y-42219377D01*
X46180379Y-42240492D01*
X46261957Y-42240492D01*
X46340756Y-42219377D01*
X46411407Y-42178588D01*
X46442139Y-42151636D01*
X46558334Y-42035440D01*
X46692776Y-41990626D01*
X46759713Y-41990626D01*
X46894153Y-42035440D01*
X47683784Y-42825071D01*
X47714516Y-42852023D01*
X47785167Y-42892812D01*
X47863965Y-42913927D01*
X47945544Y-42913927D01*
X48024343Y-42892812D01*
X48094994Y-42852023D01*
X48152678Y-42794339D01*
X48193467Y-42723688D01*
X48214582Y-42644890D01*
X48214582Y-42563311D01*
X48193467Y-42484512D01*
X48152678Y-42413862D01*
X48125726Y-42383129D01*
X46947215Y-41204617D01*
X46916483Y-41177665D01*
X46845832Y-41136876D01*
X46767034Y-41115761D01*
X46685455Y-41115761D01*
X46606656Y-41136876D01*
X46536006Y-41177665D01*
X46478321Y-41235349D01*
X46437532Y-41306000D01*
X46416417Y-41384798D01*
X46416417Y-41423938D01*
X46290705Y-41465843D01*
X46275072Y-41472217D01*
X46269939Y-41473593D01*
X46265706Y-41476036D01*
X46252855Y-41481277D01*
X46226571Y-41498631D01*
X46199289Y-41514383D01*
X46188848Y-41523538D01*
X46184776Y-41526228D01*
X46181256Y-41530197D01*
X46168556Y-41541335D01*
X46000197Y-41709694D01*
X45973245Y-41740426D01*
X45932456Y-41811077D01*
X45911341Y-41889876D01*
X44199989Y-41889876D01*
X45506071Y-40583794D01*
X47423897Y-40583794D01*
X47423897Y-40752153D01*
X47426570Y-40792942D01*
X47429006Y-40802036D01*
X47429571Y-40811433D01*
X47439933Y-40850974D01*
X47524112Y-41103512D01*
X47530490Y-41119153D01*
X47531864Y-41124279D01*
X47534304Y-41128506D01*
X47539547Y-41141362D01*
X47556899Y-41167643D01*
X47572653Y-41194930D01*
X47581809Y-41205370D01*
X47584497Y-41209441D01*
X47588465Y-41212959D01*
X47599605Y-41225662D01*
X48104682Y-41730738D01*
X48117382Y-41741875D01*
X48120902Y-41745845D01*
X48124974Y-41748534D01*
X48135415Y-41757690D01*
X48162693Y-41773438D01*
X48188981Y-41790796D01*
X48201838Y-41796038D01*
X48206065Y-41798479D01*
X48211191Y-41799852D01*
X48226831Y-41806230D01*
X48479369Y-41890410D01*
X48518911Y-41900773D01*
X48528307Y-41901337D01*
X48537402Y-41903774D01*
X48578191Y-41906447D01*
X48746549Y-41906447D01*
X48787338Y-41903774D01*
X48796432Y-41901337D01*
X48805829Y-41900773D01*
X48845371Y-41890410D01*
X49097910Y-41806230D01*
X49113549Y-41799852D01*
X49118676Y-41798479D01*
X49122902Y-41796038D01*
X49135760Y-41790796D01*
X49162051Y-41773437D01*
X49189327Y-41757690D01*
X49199761Y-41748538D01*
X49203840Y-41745846D01*
X49207365Y-41741870D01*
X49220059Y-41730738D01*
X49472597Y-41478200D01*
X49483731Y-41465503D01*
X49487705Y-41461980D01*
X49490396Y-41457903D01*
X49499549Y-41447467D01*
X49515300Y-41420183D01*
X49532655Y-41393900D01*
X49537895Y-41381049D01*
X49540339Y-41376817D01*
X49541714Y-41371685D01*
X49548090Y-41356050D01*
X49632269Y-41103512D01*
X49642631Y-41063971D01*
X49643194Y-41054575D01*
X49645632Y-41045480D01*
X49648305Y-41004691D01*
X49648305Y-40836332D01*
X49645632Y-40795543D01*
X49643194Y-40786447D01*
X49642631Y-40777052D01*
X49632269Y-40737511D01*
X49548090Y-40484973D01*
X49541711Y-40469331D01*
X49540338Y-40464206D01*
X49537897Y-40459978D01*
X49532655Y-40447123D01*
X49515300Y-40420838D01*
X49499549Y-40393555D01*
X49490394Y-40383117D01*
X49487705Y-40379043D01*
X49483732Y-40375520D01*
X49472597Y-40362823D01*
X48967520Y-39857747D01*
X48954819Y-39846608D01*
X48951299Y-39842639D01*
X48947226Y-39839949D01*
X48936787Y-39830795D01*
X48909500Y-39815041D01*
X48883220Y-39797689D01*
X48870369Y-39792448D01*
X48866137Y-39790005D01*
X48861005Y-39788629D01*
X48845370Y-39782254D01*
X48592832Y-39698075D01*
X48553291Y-39687713D01*
X48543894Y-39687148D01*
X48534800Y-39684712D01*
X48494011Y-39682039D01*
X48325653Y-39682039D01*
X48284864Y-39684712D01*
X48275768Y-39687149D01*
X48266373Y-39687713D01*
X48226832Y-39698075D01*
X47974294Y-39782254D01*
X47958659Y-39788629D01*
X47953526Y-39790005D01*
X47949292Y-39792449D01*
X47936443Y-39797689D01*
X47910162Y-39815041D01*
X47882876Y-39830795D01*
X47872436Y-39839949D01*
X47868364Y-39842639D01*
X47864843Y-39846608D01*
X47852143Y-39857747D01*
X47599605Y-40110285D01*
X47588465Y-40122987D01*
X47584497Y-40126506D01*
X47581809Y-40130576D01*
X47572653Y-40141017D01*
X47556899Y-40168303D01*
X47539547Y-40194585D01*
X47534304Y-40207440D01*
X47531864Y-40211668D01*
X47530490Y-40216793D01*
X47524112Y-40232435D01*
X47439933Y-40484973D01*
X47429571Y-40524514D01*
X47429006Y-40533910D01*
X47426570Y-40543005D01*
X47423897Y-40583794D01*
X45506071Y-40583794D01*
X47903882Y-38185983D01*
X48436722Y-38185983D01*
X48436722Y-38267561D01*
X48457837Y-38346360D01*
X48498626Y-38417011D01*
X48525578Y-38447743D01*
X48893863Y-38816028D01*
X48693937Y-39015954D01*
X48666985Y-39046686D01*
X48626196Y-39117337D01*
X48605081Y-39196136D01*
X48605081Y-39277714D01*
X48626196Y-39356513D01*
X48666985Y-39427164D01*
X48724669Y-39484848D01*
X48795320Y-39525637D01*
X48874119Y-39546752D01*
X48955697Y-39546752D01*
X49034496Y-39525637D01*
X49105147Y-39484848D01*
X49135879Y-39457896D01*
X49335805Y-39257970D01*
X49988642Y-39910807D01*
X50016552Y-39994539D01*
X49988642Y-40078270D01*
X49872448Y-40194465D01*
X49845496Y-40225197D01*
X49804707Y-40295848D01*
X49783592Y-40374647D01*
X49783592Y-40456225D01*
X49804707Y-40535024D01*
X49845496Y-40605675D01*
X49903180Y-40663359D01*
X49973831Y-40704148D01*
X50052630Y-40725263D01*
X50134208Y-40725263D01*
X50213007Y-40704148D01*
X50283658Y-40663359D01*
X50314390Y-40636407D01*
X50482749Y-40468048D01*
X50493883Y-40455351D01*
X50497857Y-40451828D01*
X50500548Y-40447751D01*
X50509701Y-40437315D01*
X50525452Y-40410031D01*
X50542807Y-40383748D01*
X50548047Y-40370897D01*
X50550491Y-40366665D01*
X50551866Y-40361533D01*
X50558242Y-40345898D01*
X50642421Y-40093360D01*
X50652783Y-40053819D01*
X50653907Y-40035078D01*
X50657670Y-40016692D01*
X50656340Y-39994539D01*
X50657670Y-39972386D01*
X50653907Y-39953999D01*
X50652783Y-39935259D01*
X50642421Y-39895718D01*
X50558242Y-39643180D01*
X50551863Y-39627537D01*
X50550490Y-39622413D01*
X50548049Y-39618185D01*
X50542807Y-39605330D01*
X50525452Y-39579045D01*
X50509701Y-39551762D01*
X50500546Y-39541324D01*
X50497857Y-39537250D01*
X50493884Y-39533727D01*
X50482749Y-39521030D01*
X49777747Y-38816028D01*
X49809314Y-38784461D01*
X49836266Y-38753729D01*
X49877055Y-38683078D01*
X49898170Y-38604279D01*
X49898170Y-38522700D01*
X49877055Y-38443902D01*
X49836266Y-38373251D01*
X49778582Y-38315567D01*
X49707931Y-38274778D01*
X49629133Y-38253663D01*
X49547554Y-38253663D01*
X49468755Y-38274778D01*
X49398104Y-38315567D01*
X49367372Y-38342519D01*
X49335805Y-38374086D01*
X48967520Y-38005801D01*
X48936788Y-37978849D01*
X48928794Y-37974234D01*
X50033457Y-37974234D01*
X50033457Y-38142592D01*
X50036130Y-38183381D01*
X50038566Y-38192475D01*
X50039131Y-38201872D01*
X50049494Y-38241414D01*
X50133674Y-38493953D01*
X50140051Y-38509592D01*
X50141425Y-38514719D01*
X50143865Y-38518945D01*
X50149108Y-38531803D01*
X50166466Y-38558094D01*
X50182214Y-38585370D01*
X50191365Y-38595804D01*
X50194058Y-38599883D01*
X50198033Y-38603408D01*
X50209166Y-38616102D01*
X50714242Y-39121178D01*
X50726939Y-39132313D01*
X50730462Y-39136286D01*
X50734536Y-39138975D01*
X50744974Y-39148130D01*
X50772257Y-39163881D01*
X50798542Y-39181236D01*
X50811397Y-39186478D01*
X50815625Y-39188919D01*
X50820749Y-39190292D01*
X50836392Y-39196671D01*
X51088930Y-39280850D01*
X51128471Y-39291212D01*
X51137866Y-39291775D01*
X51146962Y-39294213D01*
X51187751Y-39296886D01*
X51356110Y-39296886D01*
X51396899Y-39294213D01*
X51405993Y-39291776D01*
X51415390Y-39291212D01*
X51454931Y-39280850D01*
X51707469Y-39196671D01*
X51723110Y-39190292D01*
X51728236Y-39188919D01*
X51732463Y-39186478D01*
X51745319Y-39181236D01*
X51771600Y-39163883D01*
X51798887Y-39148130D01*
X51809327Y-39138973D01*
X51813398Y-39136286D01*
X51816916Y-39132317D01*
X51829619Y-39121178D01*
X52082157Y-38868640D01*
X52093294Y-38855939D01*
X52097264Y-38852420D01*
X52099953Y-38848347D01*
X52109109Y-38837907D01*
X52124860Y-38810624D01*
X52142215Y-38784341D01*
X52147455Y-38771489D01*
X52149899Y-38767257D01*
X52151274Y-38762123D01*
X52157649Y-38746491D01*
X52241829Y-38493953D01*
X52252192Y-38454411D01*
X52252756Y-38445014D01*
X52255193Y-38435920D01*
X52257866Y-38395131D01*
X52257866Y-38226772D01*
X52255193Y-38185983D01*
X52252756Y-38176888D01*
X52252192Y-38167492D01*
X52241829Y-38127950D01*
X52157649Y-37875412D01*
X52151271Y-37859772D01*
X52149898Y-37854646D01*
X52147457Y-37850419D01*
X52142215Y-37837562D01*
X52124857Y-37811274D01*
X52109109Y-37783996D01*
X52099953Y-37773555D01*
X52097264Y-37769483D01*
X52093294Y-37765963D01*
X52082157Y-37753263D01*
X51577081Y-37248186D01*
X51564378Y-37237046D01*
X51560860Y-37233078D01*
X51556789Y-37230390D01*
X51546349Y-37221234D01*
X51519062Y-37205480D01*
X51492781Y-37188128D01*
X51479925Y-37182885D01*
X51475698Y-37180445D01*
X51470572Y-37179071D01*
X51454931Y-37172693D01*
X51202393Y-37088514D01*
X51162852Y-37078152D01*
X51153455Y-37077587D01*
X51144361Y-37075151D01*
X51103572Y-37072478D01*
X50935213Y-37072478D01*
X50894424Y-37075151D01*
X50885328Y-37077588D01*
X50875933Y-37078152D01*
X50836392Y-37088514D01*
X50583854Y-37172693D01*
X50568213Y-37179071D01*
X50563086Y-37180445D01*
X50558857Y-37182886D01*
X50546004Y-37188128D01*
X50519714Y-37205485D01*
X50492436Y-37221235D01*
X50482001Y-37230385D01*
X50477924Y-37233078D01*
X50474399Y-37237052D01*
X50461703Y-37248187D01*
X50209166Y-37500726D01*
X50198034Y-37513418D01*
X50194059Y-37516944D01*
X50191366Y-37521021D01*
X50182214Y-37531458D01*
X50166468Y-37558730D01*
X50149108Y-37585023D01*
X50143865Y-37597880D01*
X50141424Y-37602109D01*
X50140049Y-37607238D01*
X50133674Y-37622874D01*
X50049494Y-37875412D01*
X50039131Y-37914953D01*
X50038566Y-37924350D01*
X50036130Y-37933445D01*
X50033457Y-37974234D01*
X48928794Y-37974234D01*
X48866137Y-37938060D01*
X48787338Y-37916945D01*
X48705760Y-37916945D01*
X48626961Y-37938060D01*
X48556310Y-37978849D01*
X48498626Y-38036533D01*
X48457837Y-38107184D01*
X48436722Y-38185983D01*
X47903882Y-38185983D01*
X50290571Y-35799294D01*
X50875553Y-35799294D01*
X50877924Y-35812717D01*
X50877924Y-35826359D01*
X50884992Y-35852738D01*
X50889742Y-35879628D01*
X50895509Y-35891987D01*
X50899039Y-35905158D01*
X50912692Y-35928807D01*
X50924241Y-35953554D01*
X50933007Y-35963995D01*
X50939828Y-35975809D01*
X50966780Y-36006541D01*
X52734547Y-37774308D01*
X52765279Y-37801260D01*
X52835930Y-37842049D01*
X52914728Y-37863164D01*
X52996307Y-37863164D01*
X53075106Y-37842049D01*
X53145757Y-37801260D01*
X53203441Y-37743576D01*
X53244230Y-37672925D01*
X53265345Y-37594126D01*
X53265345Y-37512547D01*
X53244230Y-37433749D01*
X53203441Y-37363098D01*
X53176489Y-37332366D01*
X52404761Y-36560638D01*
X52932903Y-36752690D01*
X52942131Y-36755377D01*
X52945639Y-36757014D01*
X52951011Y-36757962D01*
X52972150Y-36764118D01*
X52999222Y-36766478D01*
X53025974Y-36771203D01*
X53039696Y-36770006D01*
X53053421Y-36771203D01*
X53080178Y-36766476D01*
X53107246Y-36764117D01*
X53120190Y-36759409D01*
X53133756Y-36757014D01*
X53158375Y-36745524D01*
X53183912Y-36736239D01*
X53195199Y-36728340D01*
X53207682Y-36722515D01*
X53228490Y-36705043D01*
X53250752Y-36689466D01*
X53259609Y-36678916D01*
X53270159Y-36670059D01*
X53285736Y-36647797D01*
X53303208Y-36626989D01*
X53309033Y-36614506D01*
X53316932Y-36603219D01*
X53326217Y-36577682D01*
X53337707Y-36553063D01*
X53340102Y-36539497D01*
X53344810Y-36526553D01*
X53347169Y-36499485D01*
X53351896Y-36472728D01*
X53350699Y-36459003D01*
X53351896Y-36445281D01*
X53347171Y-36418529D01*
X53344811Y-36391457D01*
X53338655Y-36370318D01*
X53337707Y-36364946D01*
X53336070Y-36361438D01*
X53333383Y-36352210D01*
X53141331Y-35824068D01*
X53913059Y-36595796D01*
X53943791Y-36622748D01*
X54014442Y-36663537D01*
X54093240Y-36684652D01*
X54174819Y-36684652D01*
X54253618Y-36663537D01*
X54324269Y-36622748D01*
X54381953Y-36565064D01*
X54422742Y-36494413D01*
X54443857Y-36415614D01*
X54443857Y-36334035D01*
X54422742Y-36255237D01*
X54381953Y-36184586D01*
X54355001Y-36153854D01*
X52587234Y-34386087D01*
X52556502Y-34359135D01*
X52544688Y-34352314D01*
X52534247Y-34343548D01*
X52509500Y-34331999D01*
X52485851Y-34318346D01*
X52472680Y-34314816D01*
X52460321Y-34309049D01*
X52433431Y-34304299D01*
X52407052Y-34297231D01*
X52393411Y-34297231D01*
X52379987Y-34294860D01*
X52352789Y-34297231D01*
X52325474Y-34297231D01*
X52312302Y-34300760D01*
X52298715Y-34301945D01*
X52273043Y-34311280D01*
X52246675Y-34318346D01*
X52234868Y-34325162D01*
X52222049Y-34329824D01*
X52199676Y-34345479D01*
X52176024Y-34359135D01*
X52166377Y-34368781D01*
X52155209Y-34376597D01*
X52137657Y-34397501D01*
X52118340Y-34416819D01*
X52111519Y-34428632D01*
X52102753Y-34439074D01*
X52091204Y-34463820D01*
X52077551Y-34487470D01*
X52074021Y-34500640D01*
X52068254Y-34513000D01*
X52063504Y-34539889D01*
X52056436Y-34566269D01*
X52056436Y-34579910D01*
X52054065Y-34593334D01*
X52056436Y-34620531D01*
X52056436Y-34647847D01*
X52059965Y-34661018D01*
X52061150Y-34674606D01*
X52072578Y-34713853D01*
X52517166Y-35936473D01*
X51294546Y-35491885D01*
X51255299Y-35480457D01*
X51241711Y-35479272D01*
X51228540Y-35475743D01*
X51201225Y-35475743D01*
X51174027Y-35473372D01*
X51160603Y-35475743D01*
X51146962Y-35475743D01*
X51120582Y-35482811D01*
X51093693Y-35487561D01*
X51081333Y-35493328D01*
X51068163Y-35496858D01*
X51044513Y-35510511D01*
X51019767Y-35522060D01*
X51009325Y-35530826D01*
X50997512Y-35537647D01*
X50978194Y-35556964D01*
X50957290Y-35574516D01*
X50949474Y-35585684D01*
X50939828Y-35595331D01*
X50926172Y-35618983D01*
X50910517Y-35641356D01*
X50905855Y-35654175D01*
X50899039Y-35665982D01*
X50891973Y-35692350D01*
X50882638Y-35718022D01*
X50881453Y-35731609D01*
X50877924Y-35744781D01*
X50877924Y-35772096D01*
X50875553Y-35799294D01*
X50290571Y-35799294D01*
X52366477Y-33723388D01*
X55017914Y-36374825D01*
G37*
D11*
G36*
X141956526Y-80079330D02*
G01*
X141984982Y-80107785D01*
X142019857Y-80177534D01*
X142019857Y-80289946D01*
X141984982Y-80359694D01*
X141956527Y-80388150D01*
X141886777Y-80423026D01*
X141602936Y-80423026D01*
X141533187Y-80388151D01*
X141504731Y-80359694D01*
X141469857Y-80289946D01*
X141469857Y-80177534D01*
X141504732Y-80107783D01*
X141533186Y-80079330D01*
X141602936Y-80044455D01*
X141886777Y-80044455D01*
X141956526Y-80079330D01*
G37*
G36*
X141956526Y-78307902D02*
G01*
X141984982Y-78336357D01*
X142019857Y-78406106D01*
X142019857Y-78518518D01*
X141984982Y-78588266D01*
X141956527Y-78616722D01*
X141886777Y-78651598D01*
X141602936Y-78651598D01*
X141533187Y-78616723D01*
X141504731Y-78588266D01*
X141469857Y-78518518D01*
X141469857Y-78406106D01*
X141504732Y-78336355D01*
X141533186Y-78307902D01*
X141602936Y-78273027D01*
X141886777Y-78273027D01*
X141956526Y-78307902D01*
G37*
G36*
X142803190Y-82120645D02*
G01*
X140972238Y-82120645D01*
X140972238Y-81037926D01*
X141222259Y-81037926D01*
X141222259Y-81086698D01*
X141240923Y-81131758D01*
X141275411Y-81166246D01*
X141320471Y-81184910D01*
X141344857Y-81187312D01*
X141981411Y-81187312D01*
X141634853Y-81349039D01*
X141625923Y-81354328D01*
X141622898Y-81355429D01*
X141620757Y-81357388D01*
X141613771Y-81361528D01*
X141600940Y-81375538D01*
X141586930Y-81388369D01*
X141584582Y-81393399D01*
X141580831Y-81397496D01*
X141574338Y-81415351D01*
X141566305Y-81432565D01*
X141566061Y-81438113D01*
X141564163Y-81443333D01*
X141564997Y-81462312D01*
X141564163Y-81481291D01*
X141566061Y-81486510D01*
X141566305Y-81492059D01*
X141574338Y-81509272D01*
X141580831Y-81527128D01*
X141584582Y-81531224D01*
X141586930Y-81536255D01*
X141600940Y-81549085D01*
X141613771Y-81563096D01*
X141620757Y-81567235D01*
X141622898Y-81569195D01*
X141625923Y-81570295D01*
X141634853Y-81575585D01*
X141981411Y-81737312D01*
X141344857Y-81737312D01*
X141320471Y-81739714D01*
X141275411Y-81758378D01*
X141240923Y-81792866D01*
X141222259Y-81837926D01*
X141222259Y-81886698D01*
X141240923Y-81931758D01*
X141275411Y-81966246D01*
X141320471Y-81984910D01*
X141344857Y-81987312D01*
X142544857Y-81987312D01*
X142560884Y-81985733D01*
X142563836Y-81985863D01*
X142565421Y-81985286D01*
X142569243Y-81984910D01*
X142589279Y-81976610D01*
X142609673Y-81969195D01*
X142611728Y-81967312D01*
X142614303Y-81966246D01*
X142629640Y-81950908D01*
X142645641Y-81936255D01*
X142646819Y-81933729D01*
X142648791Y-81931758D01*
X142657091Y-81911719D01*
X142666266Y-81892059D01*
X142666388Y-81889272D01*
X142667455Y-81886698D01*
X142667455Y-81865011D01*
X142668408Y-81843333D01*
X142667455Y-81840712D01*
X142667455Y-81837926D01*
X142659154Y-81817885D01*
X142651740Y-81797497D01*
X142649857Y-81795441D01*
X142648791Y-81792866D01*
X142633448Y-81777523D01*
X142618800Y-81761528D01*
X142615495Y-81759570D01*
X142614303Y-81758378D01*
X142611575Y-81757248D01*
X142597718Y-81749039D01*
X141983302Y-81462312D01*
X142597718Y-81175585D01*
X142611575Y-81167375D01*
X142614303Y-81166246D01*
X142615495Y-81165053D01*
X142618800Y-81163096D01*
X142633448Y-81147100D01*
X142648791Y-81131758D01*
X142649857Y-81129182D01*
X142651740Y-81127127D01*
X142659154Y-81106738D01*
X142667455Y-81086698D01*
X142667455Y-81083911D01*
X142668408Y-81081291D01*
X142667455Y-81059612D01*
X142667455Y-81037926D01*
X142666388Y-81035351D01*
X142666266Y-81032565D01*
X142657091Y-81012904D01*
X142648791Y-80992866D01*
X142646819Y-80990894D01*
X142645641Y-80988369D01*
X142629640Y-80973715D01*
X142614303Y-80958378D01*
X142611728Y-80957311D01*
X142609673Y-80955429D01*
X142589279Y-80948013D01*
X142569243Y-80939714D01*
X142565421Y-80939337D01*
X142563836Y-80938761D01*
X142560884Y-80938890D01*
X142544857Y-80937312D01*
X141344857Y-80937312D01*
X141320471Y-80939714D01*
X141275411Y-80958378D01*
X141240923Y-80992866D01*
X141222259Y-81037926D01*
X140972238Y-81037926D01*
X140972238Y-80148026D01*
X141219857Y-80148026D01*
X141219857Y-80319455D01*
X141222259Y-80343841D01*
X141223977Y-80347989D01*
X141224296Y-80352471D01*
X141233054Y-80375357D01*
X141290197Y-80489642D01*
X141296803Y-80500137D01*
X141298066Y-80503185D01*
X141300882Y-80506616D01*
X141303251Y-80510380D01*
X141305746Y-80512544D01*
X141313611Y-80522128D01*
X141370753Y-80579271D01*
X141380341Y-80587140D01*
X141382503Y-80589632D01*
X141386260Y-80591997D01*
X141389695Y-80594816D01*
X141392745Y-80596079D01*
X141403240Y-80602686D01*
X141517527Y-80659830D01*
X141540412Y-80668587D01*
X141544893Y-80668905D01*
X141549042Y-80670624D01*
X141573428Y-80673026D01*
X141916285Y-80673026D01*
X141940671Y-80670624D01*
X141944819Y-80668905D01*
X141949301Y-80668587D01*
X141972187Y-80659829D01*
X142086473Y-80602686D01*
X142096969Y-80596078D01*
X142100017Y-80594816D01*
X142103448Y-80591999D01*
X142107210Y-80589632D01*
X142109373Y-80587137D01*
X142118959Y-80579271D01*
X142176102Y-80522129D01*
X142183971Y-80512540D01*
X142186463Y-80510379D01*
X142188828Y-80506621D01*
X142191647Y-80503187D01*
X142192910Y-80500136D01*
X142199517Y-80489642D01*
X142256660Y-80375357D01*
X142265418Y-80352471D01*
X142265736Y-80347989D01*
X142267455Y-80343841D01*
X142269857Y-80319455D01*
X142269857Y-80148026D01*
X142267455Y-80123640D01*
X142265736Y-80119491D01*
X142265418Y-80115010D01*
X142256661Y-80092125D01*
X142199517Y-79977838D01*
X142192910Y-79967343D01*
X142191647Y-79964293D01*
X142188828Y-79960858D01*
X142186463Y-79957101D01*
X142183971Y-79954939D01*
X142176102Y-79945351D01*
X142118959Y-79888209D01*
X142109371Y-79880341D01*
X142107210Y-79877849D01*
X142103450Y-79875482D01*
X142100016Y-79872664D01*
X142096967Y-79871401D01*
X142086473Y-79864795D01*
X141972187Y-79807652D01*
X141949301Y-79798894D01*
X141944819Y-79798575D01*
X141940671Y-79796857D01*
X141916285Y-79794455D01*
X141573428Y-79794455D01*
X141549042Y-79796857D01*
X141544893Y-79798575D01*
X141540412Y-79798894D01*
X141517527Y-79807651D01*
X141403240Y-79864795D01*
X141392743Y-79871402D01*
X141389696Y-79872665D01*
X141386264Y-79875481D01*
X141382503Y-79877849D01*
X141380339Y-79880343D01*
X141370754Y-79888210D01*
X141313612Y-79945352D01*
X141305745Y-79954937D01*
X141303251Y-79957101D01*
X141300883Y-79960862D01*
X141298067Y-79964294D01*
X141296804Y-79967341D01*
X141290197Y-79977838D01*
X141233054Y-80092124D01*
X141224296Y-80115010D01*
X141223977Y-80119491D01*
X141222259Y-80123640D01*
X141219857Y-80148026D01*
X140972238Y-80148026D01*
X140972238Y-79119455D01*
X141219857Y-79119455D01*
X141219857Y-79233741D01*
X141222259Y-79258127D01*
X141223977Y-79262275D01*
X141224296Y-79266757D01*
X141233054Y-79289643D01*
X141290197Y-79403928D01*
X141292763Y-79408004D01*
X141293405Y-79409930D01*
X141295483Y-79412326D01*
X141303251Y-79424666D01*
X141315095Y-79434938D01*
X141325361Y-79446775D01*
X141337693Y-79454538D01*
X141340096Y-79456622D01*
X141342024Y-79457264D01*
X141346098Y-79459829D01*
X141460383Y-79516972D01*
X141483269Y-79525730D01*
X141487750Y-79526048D01*
X141491899Y-79527767D01*
X141516285Y-79530169D01*
X142019857Y-79530169D01*
X142019857Y-79576598D01*
X142022259Y-79600984D01*
X142040923Y-79646044D01*
X142075411Y-79680532D01*
X142120471Y-79699196D01*
X142169243Y-79699196D01*
X142214303Y-79680532D01*
X142248791Y-79646044D01*
X142267455Y-79600984D01*
X142269857Y-79576598D01*
X142269857Y-79530169D01*
X142544857Y-79530169D01*
X142569243Y-79527767D01*
X142614303Y-79509103D01*
X142648791Y-79474615D01*
X142667455Y-79429555D01*
X142667455Y-79380783D01*
X142648791Y-79335723D01*
X142614303Y-79301235D01*
X142569243Y-79282571D01*
X142544857Y-79280169D01*
X142269857Y-79280169D01*
X142269857Y-79119455D01*
X142267455Y-79095069D01*
X142248791Y-79050009D01*
X142214303Y-79015521D01*
X142169243Y-78996857D01*
X142120471Y-78996857D01*
X142075411Y-79015521D01*
X142040923Y-79050009D01*
X142022259Y-79095069D01*
X142019857Y-79119455D01*
X142019857Y-79280169D01*
X141545793Y-79280169D01*
X141495169Y-79254856D01*
X141469857Y-79204232D01*
X141469857Y-79119455D01*
X141467455Y-79095069D01*
X141448791Y-79050009D01*
X141414303Y-79015521D01*
X141369243Y-78996857D01*
X141320471Y-78996857D01*
X141275411Y-79015521D01*
X141240923Y-79050009D01*
X141222259Y-79095069D01*
X141219857Y-79119455D01*
X140972238Y-79119455D01*
X140972238Y-78376598D01*
X141219857Y-78376598D01*
X141219857Y-78548027D01*
X141222259Y-78572413D01*
X141223977Y-78576561D01*
X141224296Y-78581043D01*
X141233054Y-78603929D01*
X141290197Y-78718214D01*
X141296803Y-78728709D01*
X141298066Y-78731757D01*
X141300882Y-78735188D01*
X141303251Y-78738952D01*
X141305746Y-78741116D01*
X141313611Y-78750700D01*
X141370753Y-78807843D01*
X141380341Y-78815712D01*
X141382503Y-78818204D01*
X141386260Y-78820569D01*
X141389695Y-78823388D01*
X141392745Y-78824651D01*
X141403240Y-78831258D01*
X141517527Y-78888402D01*
X141540412Y-78897159D01*
X141544893Y-78897477D01*
X141549042Y-78899196D01*
X141573428Y-78901598D01*
X141916285Y-78901598D01*
X141940671Y-78899196D01*
X141944819Y-78897477D01*
X141949301Y-78897159D01*
X141972187Y-78888401D01*
X142086473Y-78831258D01*
X142096969Y-78824650D01*
X142100017Y-78823388D01*
X142103448Y-78820571D01*
X142107210Y-78818204D01*
X142109373Y-78815709D01*
X142118959Y-78807843D01*
X142176102Y-78750701D01*
X142183971Y-78741112D01*
X142186463Y-78738951D01*
X142188828Y-78735193D01*
X142191647Y-78731759D01*
X142192910Y-78728708D01*
X142199517Y-78718214D01*
X142256660Y-78603929D01*
X142265418Y-78581043D01*
X142265736Y-78576561D01*
X142267455Y-78572413D01*
X142269857Y-78548027D01*
X142269857Y-78376598D01*
X142267455Y-78352212D01*
X142265736Y-78348063D01*
X142265418Y-78343582D01*
X142256661Y-78320697D01*
X142199517Y-78206410D01*
X142192910Y-78195915D01*
X142191647Y-78192865D01*
X142188828Y-78189430D01*
X142186463Y-78185673D01*
X142183971Y-78183511D01*
X142176102Y-78173923D01*
X142118959Y-78116781D01*
X142109371Y-78108913D01*
X142107210Y-78106421D01*
X142103450Y-78104054D01*
X142100016Y-78101236D01*
X142096967Y-78099973D01*
X142086473Y-78093367D01*
X141972187Y-78036224D01*
X141949301Y-78027466D01*
X141944819Y-78027147D01*
X141940671Y-78025429D01*
X141916285Y-78023027D01*
X141573428Y-78023027D01*
X141549042Y-78025429D01*
X141544893Y-78027147D01*
X141540412Y-78027466D01*
X141517527Y-78036223D01*
X141403240Y-78093367D01*
X141392743Y-78099974D01*
X141389696Y-78101237D01*
X141386264Y-78104053D01*
X141382503Y-78106421D01*
X141380339Y-78108915D01*
X141370754Y-78116782D01*
X141313612Y-78173924D01*
X141305745Y-78183509D01*
X141303251Y-78185673D01*
X141300883Y-78189434D01*
X141298067Y-78192866D01*
X141296804Y-78195913D01*
X141290197Y-78206410D01*
X141233054Y-78320696D01*
X141224296Y-78343582D01*
X141223977Y-78348063D01*
X141222259Y-78352212D01*
X141219857Y-78376598D01*
X140972238Y-78376598D01*
X140972238Y-77609355D01*
X141222259Y-77609355D01*
X141222259Y-77658127D01*
X141240923Y-77703187D01*
X141275411Y-77737675D01*
X141320471Y-77756339D01*
X141344857Y-77758741D01*
X142144857Y-77758741D01*
X142169243Y-77756339D01*
X142214303Y-77737675D01*
X142248791Y-77703187D01*
X142267455Y-77658127D01*
X142267455Y-77609355D01*
X142248791Y-77564295D01*
X142219629Y-77535133D01*
X142256661Y-77461071D01*
X142265418Y-77438186D01*
X142265736Y-77433704D01*
X142267455Y-77429556D01*
X142269857Y-77405170D01*
X142269857Y-77290884D01*
X142267455Y-77266498D01*
X142248791Y-77221438D01*
X142214303Y-77186950D01*
X142169243Y-77168286D01*
X142120471Y-77168286D01*
X142075411Y-77186950D01*
X142040923Y-77221438D01*
X142022259Y-77266498D01*
X142019857Y-77290884D01*
X142019857Y-77375662D01*
X141984982Y-77445410D01*
X141956526Y-77473865D01*
X141886777Y-77508741D01*
X141344857Y-77508741D01*
X141320471Y-77511143D01*
X141275411Y-77529807D01*
X141240923Y-77564295D01*
X141222259Y-77609355D01*
X140972238Y-77609355D01*
X140972238Y-76262313D01*
X141105571Y-76262313D01*
X141105571Y-77176599D01*
X141107973Y-77200985D01*
X141126637Y-77246045D01*
X141161125Y-77280533D01*
X141206185Y-77299197D01*
X141254957Y-77299197D01*
X141300017Y-77280533D01*
X141334505Y-77246045D01*
X141353169Y-77200985D01*
X141355571Y-77176599D01*
X141355571Y-76262313D01*
X141353169Y-76237927D01*
X141343044Y-76213482D01*
X141369243Y-76213482D01*
X141369244Y-76213482D01*
X141382441Y-76208015D01*
X141414303Y-76194818D01*
X141414308Y-76194812D01*
X141433245Y-76179272D01*
X142098093Y-75514423D01*
X142222283Y-75473027D01*
X142286777Y-75473027D01*
X142356527Y-75507902D01*
X142384982Y-75536358D01*
X142419857Y-75606106D01*
X142419857Y-75832804D01*
X142384982Y-75902552D01*
X142342183Y-75945353D01*
X142326638Y-75964295D01*
X142307973Y-76009354D01*
X142307973Y-76058128D01*
X142326638Y-76103187D01*
X142361125Y-76137674D01*
X142406184Y-76156339D01*
X142454958Y-76156339D01*
X142500017Y-76137674D01*
X142518959Y-76122129D01*
X142576102Y-76064987D01*
X142583971Y-76055398D01*
X142586463Y-76053237D01*
X142588828Y-76049479D01*
X142591647Y-76046045D01*
X142592910Y-76042994D01*
X142599517Y-76032500D01*
X142656660Y-75918215D01*
X142665418Y-75895329D01*
X142665736Y-75890847D01*
X142667455Y-75886699D01*
X142669857Y-75862313D01*
X142669857Y-75576598D01*
X142667455Y-75552212D01*
X142665736Y-75548063D01*
X142665418Y-75543582D01*
X142656660Y-75520696D01*
X142599517Y-75406411D01*
X142592910Y-75395916D01*
X142591647Y-75392866D01*
X142588828Y-75389431D01*
X142586463Y-75385674D01*
X142583971Y-75383512D01*
X142576102Y-75373924D01*
X142518959Y-75316782D01*
X142509373Y-75308915D01*
X142507210Y-75306421D01*
X142503448Y-75304053D01*
X142500017Y-75301237D01*
X142496969Y-75299974D01*
X142486473Y-75293367D01*
X142372187Y-75236224D01*
X142349301Y-75227466D01*
X142344819Y-75227147D01*
X142340671Y-75225429D01*
X142316285Y-75223027D01*
X142202000Y-75223027D01*
X142189656Y-75224242D01*
X142186366Y-75224009D01*
X142182036Y-75224993D01*
X142177614Y-75225429D01*
X142174563Y-75226692D01*
X142162471Y-75229442D01*
X141991043Y-75286585D01*
X141968668Y-75296575D01*
X141965274Y-75299518D01*
X141961125Y-75301237D01*
X141942183Y-75316782D01*
X141469857Y-75789108D01*
X141469857Y-75348027D01*
X141467455Y-75323641D01*
X141448791Y-75278581D01*
X141414303Y-75244093D01*
X141369243Y-75225429D01*
X141320471Y-75225429D01*
X141275411Y-75244093D01*
X141240923Y-75278581D01*
X141222259Y-75323641D01*
X141219857Y-75348027D01*
X141219857Y-76090884D01*
X141222259Y-76115270D01*
X141232384Y-76139715D01*
X141206185Y-76139715D01*
X141161125Y-76158379D01*
X141126637Y-76192867D01*
X141107973Y-76237927D01*
X141105571Y-76262313D01*
X140972238Y-76262313D01*
X140972238Y-75089694D01*
X142803190Y-75089694D01*
X142803190Y-82120645D01*
G37*
D14*
X102282278Y-145081638D02*
X103425136Y-145081638D01*
X102853707Y-144510209D02*
X102853707Y-145653066D01*
D12*
X86618094Y-137207304D02*
X85856190Y-137207304D01*
D14*
X98532278Y-145081638D02*
X99675136Y-145081638D01*
D13*
G36*
X143796996Y-41920771D02*
G01*
X143945206Y-42068981D01*
X143990021Y-42203425D01*
X143990021Y-42270359D01*
X143945206Y-42404803D01*
X143544457Y-42805551D01*
X143410016Y-42850366D01*
X143343079Y-42850366D01*
X143208637Y-42805551D01*
X143060427Y-42657341D01*
X143015613Y-42522897D01*
X143015613Y-42455963D01*
X143060427Y-42321519D01*
X143461175Y-41920771D01*
X143595618Y-41875957D01*
X143662554Y-41875957D01*
X143796996Y-41920771D01*
G37*
G36*
X141187436Y-39311211D02*
G01*
X141335645Y-39459420D01*
X141380460Y-39593864D01*
X141380460Y-39660798D01*
X141335645Y-39795242D01*
X140934898Y-40195990D01*
X140800454Y-40240805D01*
X140733521Y-40240805D01*
X140599076Y-40195990D01*
X140450867Y-40047781D01*
X140406052Y-39913337D01*
X140406052Y-39846402D01*
X140450866Y-39711960D01*
X140851614Y-39311211D01*
X140986059Y-39266397D01*
X141052992Y-39266397D01*
X141187436Y-39311211D01*
G37*
G36*
X147964325Y-43583763D02*
G01*
X145312674Y-46235414D01*
X143209489Y-44132229D01*
X143824335Y-44132229D01*
X143824335Y-44213807D01*
X143845450Y-44292606D01*
X143886239Y-44363257D01*
X143943923Y-44420941D01*
X144014574Y-44461730D01*
X144093373Y-44482845D01*
X144174951Y-44482845D01*
X144253750Y-44461730D01*
X144324401Y-44420941D01*
X144355133Y-44393989D01*
X145126860Y-43622261D01*
X144934809Y-44150403D01*
X144932121Y-44159634D01*
X144930485Y-44163140D01*
X144929536Y-44168510D01*
X144923381Y-44189650D01*
X144921020Y-44216723D01*
X144916296Y-44243474D01*
X144917492Y-44257198D01*
X144916296Y-44270922D01*
X144921020Y-44297672D01*
X144923381Y-44324746D01*
X144928089Y-44337694D01*
X144930485Y-44351256D01*
X144941972Y-44375872D01*
X144951260Y-44401412D01*
X144959158Y-44412699D01*
X144964984Y-44425182D01*
X144982455Y-44445990D01*
X144998033Y-44468252D01*
X145008582Y-44477109D01*
X145017440Y-44487659D01*
X145039701Y-44503236D01*
X145060510Y-44520708D01*
X145072992Y-44526533D01*
X145084280Y-44534432D01*
X145109819Y-44543719D01*
X145134436Y-44555207D01*
X145147997Y-44557602D01*
X145160946Y-44562311D01*
X145188019Y-44564671D01*
X145214770Y-44569396D01*
X145228494Y-44568199D01*
X145242218Y-44569396D01*
X145268968Y-44564671D01*
X145296042Y-44562311D01*
X145317181Y-44556155D01*
X145322552Y-44555207D01*
X145326057Y-44553570D01*
X145335289Y-44550883D01*
X145863430Y-44358831D01*
X145091703Y-45130559D01*
X145064751Y-45161291D01*
X145023962Y-45231942D01*
X145002847Y-45310741D01*
X145002847Y-45392319D01*
X145023962Y-45471118D01*
X145064751Y-45541769D01*
X145122435Y-45599453D01*
X145193086Y-45640242D01*
X145271885Y-45661357D01*
X145353463Y-45661357D01*
X145432262Y-45640242D01*
X145502913Y-45599453D01*
X145533645Y-45572501D01*
X147301412Y-43804734D01*
X147328364Y-43774002D01*
X147335184Y-43762188D01*
X147343951Y-43751747D01*
X147355500Y-43726998D01*
X147369153Y-43703351D01*
X147372681Y-43690182D01*
X147378450Y-43677822D01*
X147383199Y-43650931D01*
X147390268Y-43624553D01*
X147390268Y-43610911D01*
X147392639Y-43597487D01*
X147390268Y-43570293D01*
X147390268Y-43542974D01*
X147386737Y-43529797D01*
X147385553Y-43516215D01*
X147376220Y-43490549D01*
X147369153Y-43464175D01*
X147362336Y-43452367D01*
X147357675Y-43439549D01*
X147342019Y-43417176D01*
X147328364Y-43393524D01*
X147318717Y-43383877D01*
X147310902Y-43372709D01*
X147289997Y-43355157D01*
X147270680Y-43335840D01*
X147258866Y-43329019D01*
X147248425Y-43320253D01*
X147223678Y-43308704D01*
X147200029Y-43295051D01*
X147186858Y-43291521D01*
X147174499Y-43285754D01*
X147147609Y-43281004D01*
X147121230Y-43273936D01*
X147107588Y-43273936D01*
X147094164Y-43271565D01*
X147066967Y-43273936D01*
X147039651Y-43273936D01*
X147026479Y-43277465D01*
X147012893Y-43278650D01*
X146973646Y-43290078D01*
X145751024Y-43734667D01*
X146195614Y-42512046D01*
X146207042Y-42472799D01*
X146208226Y-42459212D01*
X146211756Y-42446041D01*
X146211756Y-42418725D01*
X146214127Y-42391528D01*
X146211756Y-42378103D01*
X146211756Y-42364462D01*
X146204687Y-42338082D01*
X146199938Y-42311193D01*
X146194170Y-42298833D01*
X146190641Y-42285663D01*
X146176987Y-42262013D01*
X146165439Y-42237267D01*
X146156672Y-42226825D01*
X146149852Y-42215012D01*
X146130534Y-42195694D01*
X146112983Y-42174790D01*
X146101814Y-42166974D01*
X146092168Y-42157328D01*
X146068515Y-42143672D01*
X146046143Y-42128017D01*
X146033324Y-42123355D01*
X146021517Y-42116539D01*
X145995142Y-42109471D01*
X145969477Y-42100139D01*
X145955894Y-42098954D01*
X145942718Y-42095424D01*
X145915399Y-42095424D01*
X145888205Y-42093053D01*
X145874781Y-42095424D01*
X145861139Y-42095424D01*
X145834760Y-42102492D01*
X145807870Y-42107242D01*
X145795509Y-42113010D01*
X145782341Y-42116539D01*
X145758693Y-42130191D01*
X145733945Y-42141741D01*
X145723503Y-42150507D01*
X145711690Y-42157328D01*
X145680958Y-42184280D01*
X143913191Y-43952047D01*
X143886239Y-43982779D01*
X143845450Y-44053430D01*
X143824335Y-44132229D01*
X143209489Y-44132229D01*
X141482511Y-42405251D01*
X142390613Y-42405251D01*
X142390613Y-42573610D01*
X142393286Y-42614399D01*
X142395722Y-42623493D01*
X142396287Y-42632890D01*
X142406649Y-42672431D01*
X142490828Y-42924969D01*
X142497206Y-42940610D01*
X142498580Y-42945736D01*
X142501020Y-42949963D01*
X142506263Y-42962819D01*
X142523615Y-42989100D01*
X142539369Y-43016387D01*
X142548525Y-43026827D01*
X142551213Y-43030898D01*
X142555181Y-43034416D01*
X142566321Y-43047119D01*
X142818859Y-43299657D01*
X142831559Y-43310794D01*
X142835079Y-43314764D01*
X142839151Y-43317453D01*
X142849592Y-43326609D01*
X142876874Y-43342360D01*
X142903158Y-43359715D01*
X142916009Y-43364955D01*
X142920242Y-43367399D01*
X142925375Y-43368774D01*
X142941008Y-43375149D01*
X143193546Y-43459329D01*
X143233088Y-43469692D01*
X143242484Y-43470256D01*
X143251579Y-43472693D01*
X143292368Y-43475366D01*
X143460727Y-43475366D01*
X143501516Y-43472693D01*
X143510610Y-43470256D01*
X143520008Y-43469692D01*
X143559549Y-43459329D01*
X143812087Y-43375149D01*
X143827721Y-43368774D01*
X143832853Y-43367399D01*
X143837083Y-43364956D01*
X143849938Y-43359715D01*
X143876228Y-43342356D01*
X143903503Y-43326609D01*
X143913940Y-43317455D01*
X143918017Y-43314764D01*
X143921540Y-43310790D01*
X143934236Y-43299657D01*
X144439313Y-42794581D01*
X144450448Y-42781883D01*
X144454421Y-42778361D01*
X144457110Y-42774286D01*
X144466265Y-42763849D01*
X144482016Y-42736565D01*
X144499371Y-42710281D01*
X144504613Y-42697425D01*
X144507054Y-42693198D01*
X144508427Y-42688072D01*
X144514806Y-42672431D01*
X144598985Y-42419893D01*
X144609347Y-42380352D01*
X144609910Y-42370956D01*
X144612348Y-42361861D01*
X144615021Y-42321072D01*
X144615021Y-42152713D01*
X144612348Y-42111924D01*
X144609910Y-42102828D01*
X144609347Y-42093433D01*
X144598985Y-42053892D01*
X144514806Y-41801354D01*
X144508427Y-41785713D01*
X144507054Y-41780586D01*
X144504612Y-41776357D01*
X144499371Y-41763504D01*
X144482013Y-41737214D01*
X144466264Y-41709936D01*
X144457113Y-41699501D01*
X144454421Y-41695424D01*
X144450446Y-41691899D01*
X144439312Y-41679203D01*
X144186773Y-41426666D01*
X144174080Y-41415534D01*
X144170555Y-41411559D01*
X144166477Y-41408866D01*
X144156041Y-41399714D01*
X144128768Y-41383968D01*
X144102476Y-41366608D01*
X144089618Y-41361365D01*
X144085390Y-41358924D01*
X144080260Y-41357549D01*
X144064625Y-41351174D01*
X143812087Y-41266994D01*
X143772546Y-41256631D01*
X143763148Y-41256066D01*
X143754054Y-41253630D01*
X143713265Y-41250957D01*
X143544907Y-41250957D01*
X143504118Y-41253630D01*
X143495023Y-41256066D01*
X143485627Y-41256631D01*
X143446086Y-41266993D01*
X143193546Y-41351174D01*
X143177906Y-41357551D01*
X143172780Y-41358925D01*
X143168553Y-41361365D01*
X143155696Y-41366608D01*
X143129407Y-41383965D01*
X143102129Y-41399714D01*
X143091691Y-41408867D01*
X143087617Y-41411558D01*
X143084094Y-41415530D01*
X143071397Y-41426666D01*
X142566321Y-41931742D01*
X142555181Y-41944444D01*
X142551213Y-41947963D01*
X142548525Y-41952033D01*
X142539369Y-41962474D01*
X142523615Y-41989760D01*
X142506263Y-42016042D01*
X142501020Y-42028897D01*
X142498580Y-42033125D01*
X142497206Y-42038250D01*
X142490828Y-42053892D01*
X142406649Y-42306430D01*
X142396287Y-42345971D01*
X142395722Y-42355367D01*
X142393286Y-42364462D01*
X142390613Y-42405251D01*
X141482511Y-42405251D01*
X140347390Y-41270130D01*
X140962236Y-41270130D01*
X140962236Y-41351708D01*
X140983351Y-41430507D01*
X141024140Y-41501158D01*
X141051092Y-41531890D01*
X141219451Y-41700249D01*
X141232147Y-41711383D01*
X141235671Y-41715357D01*
X141239747Y-41718048D01*
X141250184Y-41727201D01*
X141277467Y-41742952D01*
X141303751Y-41760307D01*
X141316601Y-41765547D01*
X141320834Y-41767991D01*
X141325965Y-41769366D01*
X141341601Y-41775742D01*
X141594139Y-41859921D01*
X141633680Y-41870283D01*
X141652413Y-41871407D01*
X141670806Y-41875171D01*
X141692965Y-41873840D01*
X141715113Y-41875170D01*
X141733498Y-41871407D01*
X141752240Y-41870283D01*
X141791781Y-41859921D01*
X142044319Y-41775742D01*
X142059960Y-41769363D01*
X142065086Y-41767990D01*
X142069313Y-41765549D01*
X142082169Y-41760307D01*
X142108450Y-41742954D01*
X142135737Y-41727201D01*
X142146177Y-41718044D01*
X142150248Y-41715357D01*
X142153766Y-41711388D01*
X142166469Y-41700249D01*
X142871471Y-40995247D01*
X142903038Y-41026814D01*
X142933770Y-41053766D01*
X143004421Y-41094555D01*
X143083220Y-41115670D01*
X143164799Y-41115670D01*
X143243597Y-41094555D01*
X143314248Y-41053766D01*
X143371932Y-40996082D01*
X143412721Y-40925431D01*
X143433836Y-40846633D01*
X143433836Y-40765054D01*
X143412721Y-40686255D01*
X143371932Y-40615604D01*
X143344980Y-40584872D01*
X143313413Y-40553305D01*
X143681698Y-40185020D01*
X143708650Y-40154288D01*
X143749439Y-40083637D01*
X143770553Y-40004839D01*
X143770553Y-39923260D01*
X143749439Y-39844461D01*
X143708650Y-39773811D01*
X143650965Y-39716126D01*
X143580315Y-39675337D01*
X143501516Y-39654223D01*
X143419937Y-39654223D01*
X143341139Y-39675337D01*
X143270488Y-39716126D01*
X143239756Y-39743078D01*
X142871471Y-40111363D01*
X142671545Y-39911437D01*
X142640813Y-39884485D01*
X142570162Y-39843696D01*
X142491363Y-39822581D01*
X142409785Y-39822581D01*
X142330986Y-39843696D01*
X142260335Y-39884485D01*
X142202651Y-39942169D01*
X142161862Y-40012820D01*
X142140747Y-40091619D01*
X142140747Y-40173197D01*
X142161862Y-40251996D01*
X142202651Y-40322647D01*
X142229603Y-40353379D01*
X142429529Y-40553305D01*
X141776691Y-41206142D01*
X141692960Y-41234052D01*
X141609228Y-41206142D01*
X141493034Y-41089948D01*
X141462302Y-41062996D01*
X141391651Y-41022207D01*
X141312852Y-41001092D01*
X141231274Y-41001092D01*
X141152475Y-41022207D01*
X141081824Y-41062996D01*
X141024140Y-41120680D01*
X140983351Y-41191331D01*
X140962236Y-41270130D01*
X140347390Y-41270130D01*
X138872951Y-39795691D01*
X139781052Y-39795691D01*
X139781052Y-39964049D01*
X139783725Y-40004838D01*
X139786161Y-40013932D01*
X139786726Y-40023329D01*
X139797089Y-40062871D01*
X139881269Y-40315410D01*
X139887646Y-40331049D01*
X139889020Y-40336176D01*
X139891460Y-40340402D01*
X139896703Y-40353260D01*
X139914061Y-40379551D01*
X139929809Y-40406827D01*
X139938960Y-40417261D01*
X139941653Y-40421340D01*
X139945628Y-40424865D01*
X139956761Y-40437559D01*
X140209299Y-40690097D01*
X140221995Y-40701231D01*
X140225519Y-40705205D01*
X140229595Y-40707896D01*
X140240032Y-40717049D01*
X140267315Y-40732800D01*
X140293599Y-40750155D01*
X140306449Y-40755395D01*
X140310682Y-40757839D01*
X140315813Y-40759214D01*
X140331449Y-40765590D01*
X140583987Y-40849769D01*
X140623528Y-40860131D01*
X140632923Y-40860694D01*
X140642019Y-40863132D01*
X140682808Y-40865805D01*
X140851167Y-40865805D01*
X140891956Y-40863132D01*
X140901050Y-40860695D01*
X140910447Y-40860131D01*
X140949988Y-40849769D01*
X141202526Y-40765590D01*
X141218167Y-40759211D01*
X141223293Y-40757838D01*
X141227520Y-40755397D01*
X141240376Y-40750155D01*
X141266657Y-40732802D01*
X141293944Y-40717049D01*
X141304384Y-40707892D01*
X141308455Y-40705205D01*
X141311973Y-40701236D01*
X141324676Y-40690097D01*
X141829752Y-40185020D01*
X141840886Y-40172323D01*
X141844860Y-40168800D01*
X141847551Y-40164723D01*
X141856704Y-40154287D01*
X141872452Y-40127008D01*
X141889810Y-40100720D01*
X141895052Y-40087863D01*
X141897493Y-40083637D01*
X141898866Y-40078511D01*
X141905245Y-40062870D01*
X141989424Y-39810332D01*
X141999786Y-39770791D01*
X142000349Y-39761395D01*
X142002787Y-39752300D01*
X142005460Y-39711511D01*
X142005460Y-39543153D01*
X142002787Y-39502364D01*
X142000349Y-39493268D01*
X141999786Y-39483873D01*
X141989424Y-39444332D01*
X141905245Y-39191794D01*
X141898869Y-39176159D01*
X141897494Y-39171026D01*
X141895049Y-39166792D01*
X141889810Y-39153943D01*
X141872457Y-39127662D01*
X141856704Y-39100376D01*
X141847549Y-39089936D01*
X141844860Y-39085864D01*
X141840890Y-39082343D01*
X141829752Y-39069643D01*
X141577214Y-38817105D01*
X141564511Y-38805965D01*
X141560993Y-38801997D01*
X141556922Y-38799309D01*
X141546482Y-38790153D01*
X141519195Y-38774399D01*
X141492914Y-38757047D01*
X141480058Y-38751804D01*
X141475831Y-38749364D01*
X141470705Y-38747990D01*
X141455064Y-38741612D01*
X141202526Y-38657433D01*
X141162985Y-38647071D01*
X141153588Y-38646506D01*
X141144494Y-38644070D01*
X141103705Y-38641397D01*
X140935346Y-38641397D01*
X140894557Y-38644070D01*
X140885461Y-38646507D01*
X140876066Y-38647071D01*
X140836525Y-38657433D01*
X140583987Y-38741612D01*
X140568345Y-38747990D01*
X140563220Y-38749364D01*
X140558992Y-38751804D01*
X140546137Y-38757047D01*
X140519852Y-38774401D01*
X140492569Y-38790153D01*
X140482131Y-38799307D01*
X140478057Y-38801997D01*
X140474534Y-38805969D01*
X140461837Y-38817105D01*
X139956761Y-39322182D01*
X139945627Y-39334877D01*
X139941654Y-39338401D01*
X139938962Y-39342477D01*
X139929809Y-39352915D01*
X139914061Y-39380189D01*
X139896703Y-39406480D01*
X139891461Y-39419334D01*
X139889019Y-39423565D01*
X139887643Y-39428696D01*
X139881269Y-39444331D01*
X139797089Y-39696869D01*
X139786726Y-39736410D01*
X139786161Y-39745807D01*
X139783725Y-39754902D01*
X139781052Y-39795691D01*
X138872951Y-39795691D01*
X138158725Y-39081465D01*
X138773572Y-39081465D01*
X138773572Y-39163044D01*
X138794687Y-39241843D01*
X138835476Y-39312493D01*
X138893160Y-39370178D01*
X138963811Y-39410967D01*
X139042609Y-39432082D01*
X139124188Y-39432082D01*
X139202987Y-39410967D01*
X139273637Y-39370178D01*
X139304370Y-39343226D01*
X140482882Y-38164715D01*
X140509834Y-38133983D01*
X140550623Y-38063332D01*
X140571738Y-37984534D01*
X140571738Y-37902955D01*
X140550623Y-37824156D01*
X140509834Y-37753505D01*
X140452150Y-37695821D01*
X140381499Y-37655032D01*
X140302701Y-37633917D01*
X140263560Y-37633917D01*
X140221656Y-37508205D01*
X140215281Y-37492572D01*
X140213906Y-37487439D01*
X140211462Y-37483206D01*
X140206222Y-37470355D01*
X140188867Y-37444071D01*
X140173116Y-37416789D01*
X140163960Y-37406348D01*
X140161271Y-37402276D01*
X140157301Y-37398756D01*
X140146164Y-37386056D01*
X139977805Y-37217697D01*
X139947073Y-37190745D01*
X139876422Y-37149956D01*
X139797623Y-37128841D01*
X139716045Y-37128841D01*
X139637246Y-37149956D01*
X139566595Y-37190745D01*
X139508911Y-37248429D01*
X139468122Y-37319080D01*
X139447007Y-37397879D01*
X139447007Y-37479457D01*
X139468122Y-37558256D01*
X139508911Y-37628907D01*
X139535863Y-37659639D01*
X139652058Y-37775834D01*
X139696873Y-37910276D01*
X139696873Y-37977212D01*
X139652058Y-38111653D01*
X138862428Y-38901284D01*
X138835476Y-38932016D01*
X138794687Y-39002667D01*
X138773572Y-39081465D01*
X138158725Y-39081465D01*
X134832341Y-35755081D01*
X134873131Y-35714291D01*
X135406397Y-35714291D01*
X135406397Y-35795869D01*
X135427512Y-35874668D01*
X135468301Y-35945319D01*
X135495253Y-35976051D01*
X136589585Y-37070383D01*
X136620317Y-37097335D01*
X136655642Y-37117729D01*
X136690967Y-37138124D01*
X136730367Y-37148681D01*
X136769766Y-37159239D01*
X136769767Y-37159239D01*
X136851345Y-37159239D01*
X136930145Y-37138124D01*
X137000794Y-37097335D01*
X137058479Y-37039650D01*
X137099268Y-36969001D01*
X137120383Y-36890201D01*
X137123056Y-36849412D01*
X137123056Y-34902878D01*
X137235743Y-34677503D01*
X137316081Y-34597165D01*
X137450523Y-34552351D01*
X137517460Y-34552351D01*
X137651901Y-34597165D01*
X137968470Y-34913734D01*
X138013285Y-35048178D01*
X138013285Y-35165825D01*
X138015958Y-35206614D01*
X138037073Y-35285414D01*
X138077862Y-35356063D01*
X138135547Y-35413748D01*
X138206196Y-35454537D01*
X138284996Y-35475652D01*
X138366574Y-35475652D01*
X138445374Y-35454537D01*
X138516023Y-35413748D01*
X138573708Y-35356063D01*
X138614497Y-35285414D01*
X138635612Y-35206614D01*
X138638285Y-35165825D01*
X138638285Y-34997466D01*
X138635612Y-34956677D01*
X138633174Y-34947581D01*
X138632611Y-34938186D01*
X138622249Y-34898645D01*
X138538070Y-34646107D01*
X138531691Y-34630464D01*
X138530318Y-34625340D01*
X138527877Y-34621112D01*
X138522635Y-34608257D01*
X138505280Y-34581972D01*
X138489529Y-34554689D01*
X138480374Y-34544251D01*
X138477685Y-34540177D01*
X138473712Y-34536654D01*
X138462577Y-34523957D01*
X138041680Y-34103060D01*
X138028982Y-34091924D01*
X138025461Y-34087953D01*
X138021387Y-34085263D01*
X138010948Y-34076108D01*
X137983672Y-34060361D01*
X137957382Y-34043002D01*
X137944522Y-34037758D01*
X137940297Y-34035319D01*
X137935171Y-34033945D01*
X137919531Y-34027568D01*
X137666993Y-33943388D01*
X137627452Y-33933025D01*
X137618054Y-33932460D01*
X137608960Y-33930024D01*
X137568171Y-33927351D01*
X137399812Y-33927351D01*
X137359023Y-33930024D01*
X137349928Y-33932460D01*
X137340532Y-33933025D01*
X137300990Y-33943388D01*
X137048452Y-34027568D01*
X137032819Y-34033942D01*
X137027686Y-34035318D01*
X137023453Y-34037761D01*
X137010602Y-34043002D01*
X136984318Y-34060356D01*
X136957036Y-34076108D01*
X136946595Y-34085263D01*
X136942523Y-34087953D01*
X136939003Y-34091922D01*
X136926303Y-34103060D01*
X136757944Y-34271419D01*
X136730992Y-34302151D01*
X136726284Y-34310304D01*
X136720039Y-34317348D01*
X136699407Y-34352636D01*
X136531048Y-34689352D01*
X136524499Y-34704919D01*
X136521844Y-34709518D01*
X136520579Y-34714235D01*
X136515197Y-34727031D01*
X136508881Y-34757893D01*
X136500729Y-34788318D01*
X136499821Y-34802168D01*
X136498842Y-34806954D01*
X136499160Y-34812256D01*
X136498056Y-34829107D01*
X136498056Y-36094970D01*
X135937195Y-35534109D01*
X135906463Y-35507157D01*
X135835812Y-35466368D01*
X135757013Y-35445253D01*
X135675435Y-35445253D01*
X135596636Y-35466368D01*
X135525985Y-35507157D01*
X135468301Y-35564841D01*
X135427512Y-35635492D01*
X135406397Y-35714291D01*
X134873131Y-35714291D01*
X137483992Y-33103430D01*
X147964325Y-43583763D01*
G37*
G36*
X49470922Y-131909008D02*
G01*
X49619132Y-132057218D01*
X49663947Y-132191661D01*
X49663947Y-132258596D01*
X49619132Y-132393038D01*
X49218384Y-132793787D01*
X49083940Y-132838602D01*
X49017007Y-132838602D01*
X48882562Y-132793787D01*
X48734353Y-132645578D01*
X48689539Y-132511134D01*
X48689539Y-132444200D01*
X48734353Y-132309756D01*
X49135100Y-131909008D01*
X49269545Y-131864194D01*
X49336478Y-131864194D01*
X49470922Y-131909008D01*
G37*
G36*
X46861361Y-129299447D02*
G01*
X47009571Y-129447657D01*
X47054386Y-129582101D01*
X47054386Y-129649035D01*
X47009571Y-129783479D01*
X46608824Y-130184226D01*
X46474380Y-130229042D01*
X46407445Y-130229042D01*
X46273003Y-130184227D01*
X46124792Y-130036018D01*
X46079978Y-129901573D01*
X46079978Y-129834639D01*
X46124792Y-129700195D01*
X46525541Y-129299447D01*
X46659983Y-129254633D01*
X46726920Y-129254633D01*
X46861361Y-129299447D01*
G37*
G36*
X55237658Y-136349918D02*
G01*
X52586007Y-139001569D01*
X50567003Y-136982565D01*
X51181849Y-136982565D01*
X51181849Y-137064143D01*
X51202964Y-137142942D01*
X51243753Y-137213593D01*
X51270705Y-137244325D01*
X52365037Y-138338657D01*
X52376354Y-138348582D01*
X52379700Y-138352406D01*
X52383992Y-138355281D01*
X52395769Y-138365609D01*
X52422158Y-138380844D01*
X52447479Y-138397804D01*
X52457373Y-138401175D01*
X52466420Y-138406398D01*
X52495845Y-138414282D01*
X52524700Y-138424114D01*
X52535127Y-138424809D01*
X52545218Y-138427513D01*
X52575689Y-138427513D01*
X52606097Y-138429540D01*
X52616347Y-138427513D01*
X52626797Y-138427513D01*
X52656238Y-138419623D01*
X52686127Y-138413713D01*
X52695502Y-138409102D01*
X52705596Y-138406398D01*
X52731987Y-138391160D01*
X52759333Y-138377714D01*
X52767196Y-138370833D01*
X52776246Y-138365609D01*
X52797793Y-138344061D01*
X52820728Y-138323994D01*
X52826543Y-138315311D01*
X52833931Y-138307924D01*
X52849163Y-138281539D01*
X52866126Y-138256215D01*
X52869497Y-138246320D01*
X52874720Y-138237274D01*
X52882604Y-138207849D01*
X52892436Y-138178994D01*
X52894497Y-138163465D01*
X52895835Y-138158475D01*
X52895835Y-138153393D01*
X52897816Y-138138473D01*
X52944109Y-137444065D01*
X53076442Y-137488176D01*
X53115983Y-137498538D01*
X53125378Y-137499101D01*
X53134474Y-137501539D01*
X53175263Y-137504212D01*
X53343622Y-137504212D01*
X53384411Y-137501539D01*
X53393505Y-137499102D01*
X53402902Y-137498538D01*
X53442443Y-137488176D01*
X53694981Y-137403997D01*
X53710622Y-137397618D01*
X53715748Y-137396245D01*
X53719975Y-137393804D01*
X53732831Y-137388562D01*
X53759112Y-137371209D01*
X53786399Y-137355456D01*
X53796839Y-137346299D01*
X53800910Y-137343612D01*
X53804428Y-137339643D01*
X53817131Y-137328504D01*
X54238028Y-136907607D01*
X54249167Y-136894905D01*
X54253135Y-136891387D01*
X54255822Y-136887317D01*
X54264980Y-136876875D01*
X54280731Y-136849591D01*
X54298086Y-136823308D01*
X54303328Y-136810450D01*
X54305769Y-136806224D01*
X54307142Y-136801097D01*
X54313520Y-136785458D01*
X54397700Y-136532920D01*
X54408063Y-136493378D01*
X54408627Y-136483981D01*
X54411064Y-136474887D01*
X54413737Y-136434098D01*
X54413737Y-136265739D01*
X54411064Y-136224950D01*
X54408627Y-136215855D01*
X54408063Y-136206459D01*
X54397700Y-136166917D01*
X54313520Y-135914379D01*
X54307142Y-135898739D01*
X54305769Y-135893613D01*
X54303328Y-135889386D01*
X54298086Y-135876529D01*
X54280731Y-135850245D01*
X54264980Y-135822962D01*
X54255822Y-135812519D01*
X54253135Y-135808450D01*
X54249167Y-135804931D01*
X54238028Y-135792230D01*
X53732952Y-135287154D01*
X53720249Y-135276014D01*
X53716731Y-135272046D01*
X53712660Y-135269358D01*
X53702220Y-135260202D01*
X53674933Y-135244448D01*
X53648652Y-135227096D01*
X53635796Y-135221853D01*
X53631569Y-135219413D01*
X53626443Y-135218039D01*
X53610802Y-135211661D01*
X53358264Y-135127482D01*
X53318723Y-135117120D01*
X53309326Y-135116555D01*
X53300232Y-135114119D01*
X53259443Y-135111446D01*
X53091084Y-135111446D01*
X53050295Y-135114119D01*
X52971495Y-135135234D01*
X52900846Y-135176023D01*
X52843161Y-135233708D01*
X52802372Y-135304357D01*
X52781257Y-135383157D01*
X52781257Y-135464735D01*
X52802372Y-135543535D01*
X52843161Y-135614184D01*
X52900846Y-135671869D01*
X52971495Y-135712658D01*
X53050295Y-135733773D01*
X53091084Y-135736446D01*
X53208730Y-135736446D01*
X53343174Y-135781260D01*
X53743922Y-136182008D01*
X53788737Y-136316450D01*
X53788737Y-136383386D01*
X53743922Y-136517828D01*
X53427353Y-136834397D01*
X53292909Y-136879212D01*
X53225976Y-136879212D01*
X53091531Y-136834397D01*
X52891158Y-136634024D01*
X52879840Y-136624098D01*
X52876495Y-136620275D01*
X52872202Y-136617399D01*
X52860426Y-136607072D01*
X52834036Y-136591836D01*
X52808716Y-136574877D01*
X52798821Y-136571505D01*
X52789775Y-136566283D01*
X52760350Y-136558398D01*
X52731495Y-136548567D01*
X52721066Y-136547871D01*
X52710976Y-136545168D01*
X52680506Y-136545168D01*
X52650098Y-136543141D01*
X52639848Y-136545168D01*
X52629398Y-136545168D01*
X52599965Y-136553054D01*
X52570068Y-136558967D01*
X52560688Y-136563579D01*
X52550599Y-136566283D01*
X52524209Y-136581518D01*
X52496862Y-136594967D01*
X52489000Y-136601845D01*
X52479948Y-136607072D01*
X52458393Y-136628626D01*
X52435467Y-136648687D01*
X52429653Y-136657366D01*
X52422264Y-136664756D01*
X52407028Y-136691145D01*
X52390069Y-136716466D01*
X52386697Y-136726360D01*
X52381475Y-136735407D01*
X52373590Y-136764831D01*
X52363759Y-136793687D01*
X52361697Y-136809215D01*
X52360360Y-136814206D01*
X52360360Y-136819287D01*
X52358379Y-136834208D01*
X52320009Y-137409745D01*
X51712647Y-136802383D01*
X51681915Y-136775431D01*
X51611264Y-136734642D01*
X51532465Y-136713527D01*
X51450887Y-136713527D01*
X51372088Y-136734642D01*
X51301437Y-136775431D01*
X51243753Y-136833115D01*
X51202964Y-136903766D01*
X51181849Y-136982565D01*
X50567003Y-136982565D01*
X47704903Y-134120465D01*
X49498261Y-134120465D01*
X49498261Y-134202044D01*
X49519376Y-134280843D01*
X49560165Y-134351493D01*
X49617849Y-134409178D01*
X49688500Y-134449967D01*
X49767298Y-134471082D01*
X49806439Y-134471082D01*
X49848343Y-134596794D01*
X49854720Y-134612434D01*
X49856094Y-134617560D01*
X49858533Y-134621785D01*
X49863777Y-134634645D01*
X49881136Y-134660935D01*
X49896883Y-134688211D01*
X49906038Y-134698650D01*
X49908728Y-134702724D01*
X49912699Y-134706245D01*
X49923835Y-134718943D01*
X50092194Y-134887302D01*
X50122927Y-134914254D01*
X50193577Y-134955044D01*
X50272376Y-134976158D01*
X50353955Y-134976158D01*
X50432753Y-134955044D01*
X50503404Y-134914254D01*
X50561088Y-134856570D01*
X50601878Y-134785919D01*
X50622992Y-134707121D01*
X50622992Y-134625542D01*
X50601878Y-134546743D01*
X50561088Y-134476093D01*
X50534136Y-134445360D01*
X50417940Y-134329164D01*
X50373126Y-134194722D01*
X50373126Y-134127786D01*
X50417940Y-133993345D01*
X51207571Y-133203715D01*
X51234523Y-133172983D01*
X51275312Y-133102332D01*
X51296427Y-133023534D01*
X51296427Y-132941955D01*
X51275312Y-132863156D01*
X51234523Y-132792505D01*
X51176839Y-132734821D01*
X51106188Y-132694032D01*
X51027390Y-132672917D01*
X50945811Y-132672917D01*
X50867012Y-132694032D01*
X50796362Y-132734821D01*
X50765629Y-132761773D01*
X49587117Y-133940284D01*
X49560165Y-133971016D01*
X49519376Y-134041667D01*
X49498261Y-134120465D01*
X47704903Y-134120465D01*
X45684599Y-132100161D01*
X46299445Y-132100161D01*
X46299445Y-132181739D01*
X46320560Y-132260538D01*
X46361349Y-132331189D01*
X46419033Y-132388873D01*
X46489684Y-132429662D01*
X46568483Y-132450777D01*
X46650061Y-132450777D01*
X46728860Y-132429662D01*
X46791517Y-132393488D01*
X48064539Y-132393488D01*
X48064539Y-132561846D01*
X48067212Y-132602635D01*
X48069649Y-132611729D01*
X48070213Y-132621125D01*
X48080575Y-132660666D01*
X48164754Y-132913205D01*
X48171132Y-132928846D01*
X48172506Y-132933973D01*
X48174946Y-132938200D01*
X48180189Y-132951056D01*
X48197541Y-132977337D01*
X48213295Y-133004624D01*
X48222451Y-133015064D01*
X48225139Y-133019135D01*
X48229107Y-133022654D01*
X48240247Y-133035356D01*
X48492785Y-133287894D01*
X48505481Y-133299028D01*
X48509005Y-133303002D01*
X48513081Y-133305693D01*
X48523518Y-133314846D01*
X48550801Y-133330597D01*
X48577085Y-133347952D01*
X48589935Y-133353192D01*
X48594168Y-133355636D01*
X48599299Y-133357011D01*
X48614935Y-133363387D01*
X48867473Y-133447566D01*
X48907014Y-133457928D01*
X48916409Y-133458491D01*
X48925505Y-133460929D01*
X48966294Y-133463602D01*
X49134653Y-133463602D01*
X49175442Y-133460929D01*
X49184536Y-133458492D01*
X49193933Y-133457928D01*
X49233474Y-133447566D01*
X49486012Y-133363387D01*
X49501653Y-133357008D01*
X49506779Y-133355635D01*
X49511006Y-133353194D01*
X49523862Y-133347952D01*
X49550143Y-133330599D01*
X49577430Y-133314846D01*
X49587870Y-133305689D01*
X49591941Y-133303002D01*
X49595459Y-133299033D01*
X49608162Y-133287894D01*
X50113238Y-132782817D01*
X50124375Y-132770116D01*
X50128345Y-132766597D01*
X50131034Y-132762524D01*
X50140190Y-132752084D01*
X50155938Y-132724805D01*
X50173296Y-132698518D01*
X50178538Y-132685660D01*
X50180979Y-132681434D01*
X50182352Y-132676307D01*
X50188730Y-132660668D01*
X50272910Y-132408130D01*
X50283273Y-132368588D01*
X50283837Y-132359191D01*
X50286274Y-132350097D01*
X50288947Y-132309308D01*
X50288947Y-132140950D01*
X50286274Y-132100161D01*
X50283837Y-132091066D01*
X50283273Y-132081670D01*
X50272911Y-132042129D01*
X50188730Y-131789589D01*
X50182355Y-131773956D01*
X50180980Y-131768823D01*
X50178536Y-131764590D01*
X50173296Y-131751739D01*
X50155939Y-131725451D01*
X50140190Y-131698173D01*
X50131037Y-131687736D01*
X50128346Y-131683660D01*
X50124372Y-131680136D01*
X50113238Y-131667440D01*
X49860700Y-131414902D01*
X49847997Y-131403762D01*
X49844479Y-131399794D01*
X49840408Y-131397106D01*
X49829968Y-131387950D01*
X49802681Y-131372196D01*
X49776400Y-131354844D01*
X49763544Y-131349601D01*
X49759317Y-131347161D01*
X49754191Y-131345787D01*
X49738550Y-131339409D01*
X49486012Y-131255230D01*
X49446471Y-131244868D01*
X49437074Y-131244303D01*
X49427980Y-131241867D01*
X49387191Y-131239194D01*
X49218832Y-131239194D01*
X49178043Y-131241867D01*
X49168947Y-131244304D01*
X49159552Y-131244868D01*
X49120011Y-131255230D01*
X48867473Y-131339409D01*
X48851831Y-131345787D01*
X48846706Y-131347161D01*
X48842478Y-131349601D01*
X48829623Y-131354844D01*
X48803338Y-131372198D01*
X48776055Y-131387950D01*
X48765617Y-131397104D01*
X48761543Y-131399794D01*
X48758020Y-131403766D01*
X48745323Y-131414902D01*
X48240247Y-131919979D01*
X48229108Y-131932679D01*
X48225139Y-131936200D01*
X48222449Y-131940272D01*
X48213295Y-131950712D01*
X48197541Y-131977998D01*
X48180189Y-132004279D01*
X48174948Y-132017129D01*
X48172505Y-132021362D01*
X48171129Y-132026493D01*
X48164754Y-132042129D01*
X48080575Y-132294667D01*
X48070213Y-132334208D01*
X48069648Y-132343604D01*
X48067212Y-132352699D01*
X48064539Y-132393488D01*
X46791517Y-132393488D01*
X46799511Y-132388873D01*
X46830243Y-132361921D01*
X47198528Y-131993636D01*
X47398454Y-132193562D01*
X47429186Y-132220514D01*
X47499837Y-132261303D01*
X47578636Y-132282418D01*
X47660215Y-132282418D01*
X47739013Y-132261303D01*
X47809664Y-132220514D01*
X47867348Y-132162830D01*
X47908137Y-132092179D01*
X47929252Y-132013381D01*
X47929252Y-131931802D01*
X47908137Y-131853003D01*
X47867348Y-131782352D01*
X47840396Y-131751620D01*
X47640470Y-131551694D01*
X48293307Y-130898856D01*
X48377039Y-130870946D01*
X48460770Y-130898856D01*
X48576965Y-131015051D01*
X48607698Y-131042003D01*
X48678348Y-131082793D01*
X48757147Y-131103907D01*
X48838726Y-131103907D01*
X48917524Y-131082793D01*
X48988175Y-131042003D01*
X49045859Y-130984319D01*
X49086649Y-130913668D01*
X49107763Y-130834870D01*
X49107763Y-130753291D01*
X49086649Y-130674492D01*
X49045859Y-130603842D01*
X49018907Y-130573109D01*
X48850548Y-130404750D01*
X48837845Y-130393610D01*
X48834327Y-130389642D01*
X48830256Y-130386954D01*
X48819816Y-130377798D01*
X48792529Y-130362044D01*
X48766248Y-130344692D01*
X48753392Y-130339449D01*
X48749165Y-130337009D01*
X48744039Y-130335635D01*
X48728398Y-130329257D01*
X48475860Y-130245078D01*
X48436319Y-130234716D01*
X48417577Y-130233591D01*
X48399192Y-130229829D01*
X48377044Y-130231158D01*
X48354885Y-130229828D01*
X48336492Y-130233591D01*
X48317759Y-130234716D01*
X48278218Y-130245078D01*
X48025680Y-130329257D01*
X48010037Y-130335635D01*
X48004913Y-130337009D01*
X48000685Y-130339449D01*
X47987830Y-130344692D01*
X47961545Y-130362046D01*
X47934262Y-130377798D01*
X47923824Y-130386952D01*
X47919750Y-130389642D01*
X47916227Y-130393614D01*
X47903530Y-130404750D01*
X47198528Y-131109752D01*
X47166961Y-131078185D01*
X47136229Y-131051233D01*
X47065578Y-131010444D01*
X46986779Y-130989329D01*
X46905201Y-130989329D01*
X46826402Y-131010444D01*
X46755751Y-131051233D01*
X46698067Y-131108917D01*
X46657278Y-131179568D01*
X46636163Y-131258367D01*
X46636163Y-131339945D01*
X46657278Y-131418744D01*
X46698067Y-131489395D01*
X46725019Y-131520127D01*
X46756586Y-131551694D01*
X46388301Y-131919979D01*
X46361349Y-131950711D01*
X46320560Y-132021362D01*
X46299445Y-132100161D01*
X45684599Y-132100161D01*
X42105674Y-128521236D01*
X42119398Y-128507512D01*
X42677360Y-128507512D01*
X42679731Y-128534709D01*
X42679731Y-128562025D01*
X42683260Y-128575196D01*
X42684445Y-128588784D01*
X42693780Y-128614455D01*
X42700846Y-128640824D01*
X42707662Y-128652630D01*
X42712324Y-128665450D01*
X42727979Y-128687822D01*
X42741635Y-128711475D01*
X42751281Y-128721121D01*
X42759097Y-128732290D01*
X42780001Y-128749841D01*
X42799319Y-128769159D01*
X42811132Y-128775979D01*
X42821574Y-128784746D01*
X42846320Y-128796294D01*
X42869970Y-128809948D01*
X42883140Y-128813477D01*
X42895500Y-128819245D01*
X42922389Y-128823994D01*
X42948769Y-128831063D01*
X42962410Y-128831063D01*
X42975834Y-128833434D01*
X43003032Y-128831063D01*
X43030347Y-128831063D01*
X43043518Y-128827533D01*
X43057106Y-128826349D01*
X43096353Y-128814921D01*
X44318973Y-128370332D01*
X43874385Y-129592953D01*
X43862957Y-129632200D01*
X43861772Y-129645787D01*
X43858243Y-129658959D01*
X43858243Y-129686274D01*
X43855872Y-129713472D01*
X43858243Y-129726895D01*
X43858243Y-129740537D01*
X43865311Y-129766916D01*
X43870061Y-129793806D01*
X43875828Y-129806165D01*
X43879358Y-129819336D01*
X43893011Y-129842985D01*
X43904560Y-129867732D01*
X43913326Y-129878173D01*
X43920147Y-129889987D01*
X43939464Y-129909304D01*
X43957016Y-129930209D01*
X43968184Y-129938024D01*
X43977831Y-129947671D01*
X44001483Y-129961326D01*
X44023856Y-129976982D01*
X44036675Y-129981643D01*
X44048482Y-129988460D01*
X44074850Y-129995525D01*
X44100522Y-130004861D01*
X44114109Y-130006045D01*
X44127281Y-130009575D01*
X44154596Y-130009575D01*
X44181794Y-130011946D01*
X44195218Y-130009575D01*
X44208859Y-130009575D01*
X44235238Y-130002506D01*
X44262128Y-129997757D01*
X44274487Y-129991989D01*
X44287658Y-129988460D01*
X44311307Y-129974806D01*
X44336054Y-129963258D01*
X44346495Y-129954491D01*
X44358309Y-129947671D01*
X44389041Y-129920719D01*
X44525833Y-129783927D01*
X45454978Y-129783927D01*
X45454978Y-129952286D01*
X45457651Y-129993075D01*
X45460087Y-130002169D01*
X45460652Y-130011566D01*
X45471014Y-130051107D01*
X45555193Y-130303645D01*
X45561570Y-130319285D01*
X45562945Y-130324413D01*
X45565386Y-130328642D01*
X45570628Y-130341495D01*
X45587978Y-130367773D01*
X45603734Y-130395063D01*
X45612889Y-130405502D01*
X45615578Y-130409574D01*
X45619548Y-130413095D01*
X45630687Y-130425795D01*
X45883225Y-130678333D01*
X45895925Y-130689470D01*
X45899445Y-130693440D01*
X45903517Y-130696129D01*
X45913958Y-130705285D01*
X45941236Y-130721033D01*
X45967524Y-130738391D01*
X45980381Y-130743633D01*
X45984608Y-130746074D01*
X45989733Y-130747447D01*
X46005374Y-130753825D01*
X46257912Y-130838005D01*
X46297454Y-130848368D01*
X46306850Y-130848932D01*
X46315945Y-130851369D01*
X46356734Y-130854042D01*
X46525092Y-130854042D01*
X46565881Y-130851369D01*
X46574975Y-130848932D01*
X46584372Y-130848368D01*
X46623914Y-130838005D01*
X46876453Y-130753825D01*
X46892092Y-130747447D01*
X46897219Y-130746074D01*
X46901445Y-130743633D01*
X46914303Y-130738391D01*
X46940594Y-130721032D01*
X46967870Y-130705285D01*
X46978304Y-130696133D01*
X46982383Y-130693441D01*
X46985908Y-130689465D01*
X46998602Y-130678333D01*
X47503678Y-130173257D01*
X47514813Y-130160559D01*
X47518786Y-130157037D01*
X47521475Y-130152962D01*
X47530630Y-130142525D01*
X47546381Y-130115241D01*
X47563736Y-130088957D01*
X47568978Y-130076101D01*
X47571419Y-130071874D01*
X47572792Y-130066749D01*
X47579171Y-130051107D01*
X47663350Y-129798569D01*
X47673712Y-129759028D01*
X47674275Y-129749632D01*
X47676713Y-129740537D01*
X47679386Y-129699748D01*
X47679386Y-129531389D01*
X47676713Y-129490600D01*
X47674275Y-129481504D01*
X47673712Y-129472109D01*
X47663350Y-129432568D01*
X47579171Y-129180030D01*
X47572795Y-129164394D01*
X47571420Y-129159263D01*
X47568976Y-129155030D01*
X47563736Y-129142180D01*
X47546381Y-129115896D01*
X47530630Y-129088613D01*
X47521477Y-129078176D01*
X47518786Y-129074100D01*
X47514812Y-129070576D01*
X47503678Y-129057880D01*
X47251140Y-128805342D01*
X47238442Y-128794206D01*
X47234921Y-128790235D01*
X47230847Y-128787545D01*
X47220408Y-128778390D01*
X47193132Y-128762643D01*
X47166842Y-128745284D01*
X47153982Y-128740040D01*
X47149757Y-128737601D01*
X47144631Y-128736227D01*
X47128991Y-128729850D01*
X46876453Y-128645670D01*
X46836912Y-128635307D01*
X46827514Y-128634742D01*
X46818420Y-128632306D01*
X46777631Y-128629633D01*
X46609272Y-128629633D01*
X46568483Y-128632306D01*
X46559388Y-128634742D01*
X46549992Y-128635307D01*
X46510450Y-128645670D01*
X46257912Y-128729850D01*
X46242272Y-128736227D01*
X46237146Y-128737601D01*
X46232919Y-128740041D01*
X46220062Y-128745284D01*
X46193774Y-128762641D01*
X46166496Y-128778390D01*
X46156055Y-128787545D01*
X46151983Y-128790235D01*
X46148463Y-128794204D01*
X46135763Y-128805342D01*
X45630686Y-129310418D01*
X45619546Y-129323120D01*
X45615578Y-129326639D01*
X45612890Y-129330709D01*
X45603734Y-129341150D01*
X45587980Y-129368436D01*
X45570628Y-129394718D01*
X45565385Y-129407573D01*
X45562945Y-129411801D01*
X45561571Y-129416926D01*
X45555193Y-129432568D01*
X45471014Y-129685106D01*
X45460652Y-129724647D01*
X45460087Y-129734043D01*
X45457651Y-129743138D01*
X45454978Y-129783927D01*
X44525833Y-129783927D01*
X46156808Y-128152952D01*
X46183760Y-128122220D01*
X46224549Y-128051569D01*
X46245664Y-127972771D01*
X46245664Y-127891192D01*
X46224549Y-127812393D01*
X46183760Y-127741742D01*
X46126076Y-127684058D01*
X46055425Y-127643269D01*
X45976626Y-127622154D01*
X45895047Y-127622154D01*
X45816249Y-127643269D01*
X45745598Y-127684058D01*
X45714866Y-127711010D01*
X44943138Y-128482737D01*
X45135190Y-127954596D01*
X45137877Y-127945367D01*
X45139514Y-127941860D01*
X45140462Y-127936487D01*
X45146618Y-127915349D01*
X45148978Y-127888276D01*
X45153703Y-127861525D01*
X45152506Y-127847802D01*
X45153703Y-127834078D01*
X45148976Y-127807320D01*
X45146617Y-127780253D01*
X45141909Y-127767308D01*
X45139514Y-127753743D01*
X45128024Y-127729123D01*
X45118739Y-127703587D01*
X45110840Y-127692299D01*
X45105015Y-127679817D01*
X45087543Y-127659008D01*
X45071966Y-127636747D01*
X45061416Y-127627889D01*
X45052559Y-127617340D01*
X45030297Y-127601762D01*
X45009489Y-127584291D01*
X44997006Y-127578465D01*
X44985719Y-127570567D01*
X44960182Y-127561281D01*
X44935563Y-127549792D01*
X44921997Y-127547396D01*
X44909053Y-127542689D01*
X44881985Y-127540329D01*
X44855228Y-127535603D01*
X44841503Y-127536799D01*
X44827781Y-127535603D01*
X44801029Y-127540327D01*
X44773957Y-127542688D01*
X44752818Y-127548843D01*
X44747446Y-127549792D01*
X44743938Y-127551428D01*
X44734710Y-127554116D01*
X44206568Y-127746167D01*
X44978296Y-126974440D01*
X45005248Y-126943708D01*
X45046037Y-126873057D01*
X45067152Y-126794259D01*
X45067152Y-126712680D01*
X45046037Y-126633881D01*
X45005248Y-126563230D01*
X44947564Y-126505546D01*
X44876913Y-126464757D01*
X44798114Y-126443642D01*
X44716535Y-126443642D01*
X44637737Y-126464757D01*
X44567086Y-126505546D01*
X44536354Y-126532498D01*
X42768587Y-128300265D01*
X42741635Y-128330997D01*
X42734814Y-128342810D01*
X42726048Y-128353252D01*
X42714499Y-128377998D01*
X42700846Y-128401648D01*
X42697316Y-128414818D01*
X42691549Y-128427178D01*
X42686799Y-128454067D01*
X42679731Y-128480447D01*
X42679731Y-128494088D01*
X42677360Y-128507512D01*
X42119398Y-128507512D01*
X44757325Y-125869585D01*
X55237658Y-136349918D01*
G37*
D11*
G36*
X47966849Y-78676812D02*
G01*
X47995303Y-78705267D01*
X48030178Y-78775016D01*
X48030178Y-78887428D01*
X47995303Y-78957178D01*
X47966849Y-78985632D01*
X47897098Y-79020508D01*
X47613259Y-79020508D01*
X47543508Y-78985633D01*
X47515053Y-78957179D01*
X47480178Y-78887428D01*
X47480178Y-78775016D01*
X47515052Y-78705267D01*
X47543509Y-78676811D01*
X47613258Y-78641937D01*
X47897099Y-78641937D01*
X47966849Y-78676812D01*
G37*
G36*
X47966849Y-76905384D02*
G01*
X47995303Y-76933839D01*
X48030178Y-77003588D01*
X48030178Y-77116000D01*
X47995303Y-77185750D01*
X47966849Y-77214204D01*
X47897098Y-77249080D01*
X47613259Y-77249080D01*
X47543508Y-77214205D01*
X47515053Y-77185751D01*
X47480178Y-77116000D01*
X47480178Y-77003588D01*
X47515052Y-76933839D01*
X47543509Y-76905383D01*
X47613258Y-76870509D01*
X47897099Y-76870509D01*
X47966849Y-76905384D01*
G37*
G36*
X48527797Y-82201439D02*
G01*
X46696845Y-82201439D01*
X46696845Y-81602521D01*
X46830178Y-81602521D01*
X46832580Y-81614662D01*
X46832580Y-81627037D01*
X46837265Y-81638350D01*
X46839643Y-81650366D01*
X46846508Y-81660664D01*
X46851244Y-81672097D01*
X46859903Y-81680756D01*
X46866697Y-81690947D01*
X46876981Y-81697834D01*
X46885732Y-81706585D01*
X46897044Y-81711270D01*
X46907221Y-81718086D01*
X46919359Y-81720513D01*
X46930792Y-81725249D01*
X46954921Y-81727625D01*
X46955048Y-81727651D01*
X46955091Y-81727642D01*
X46955178Y-81727651D01*
X48030178Y-81727651D01*
X48030178Y-81945508D01*
X48032580Y-81969894D01*
X48051244Y-82014954D01*
X48085732Y-82049442D01*
X48130792Y-82068106D01*
X48179564Y-82068106D01*
X48224624Y-82049442D01*
X48259112Y-82014954D01*
X48277776Y-81969894D01*
X48280178Y-81945508D01*
X48280178Y-81259794D01*
X48277776Y-81235408D01*
X48259112Y-81190348D01*
X48224624Y-81155860D01*
X48179564Y-81137196D01*
X48130792Y-81137196D01*
X48085732Y-81155860D01*
X48051244Y-81190348D01*
X48032580Y-81235408D01*
X48030178Y-81259794D01*
X48030178Y-81477651D01*
X47314099Y-81477651D01*
X47329281Y-81462469D01*
X47337150Y-81452880D01*
X47339642Y-81450719D01*
X47342007Y-81446961D01*
X47344826Y-81443527D01*
X47346089Y-81440476D01*
X47352696Y-81429982D01*
X47409840Y-81315695D01*
X47418597Y-81292810D01*
X47422055Y-81244160D01*
X47406631Y-81197889D01*
X47374675Y-81161044D01*
X47331052Y-81139233D01*
X47282402Y-81135775D01*
X47236132Y-81151199D01*
X47199287Y-81183155D01*
X47186233Y-81203892D01*
X47138162Y-81300033D01*
X47046970Y-81391224D01*
X46885840Y-81498645D01*
X46885772Y-81498700D01*
X46885732Y-81498717D01*
X46885641Y-81498807D01*
X46866882Y-81514170D01*
X46859994Y-81524454D01*
X46851244Y-81533205D01*
X46846558Y-81544517D01*
X46839743Y-81554694D01*
X46837315Y-81566832D01*
X46832580Y-81578265D01*
X46832580Y-81590510D01*
X46830178Y-81602521D01*
X46696845Y-81602521D01*
X46696845Y-79888365D01*
X47230178Y-79888365D01*
X47230178Y-80002651D01*
X47232580Y-80027037D01*
X47251244Y-80072097D01*
X47285732Y-80106585D01*
X47330792Y-80125249D01*
X47379564Y-80125249D01*
X47399631Y-80116937D01*
X48144464Y-80116937D01*
X48144464Y-81031222D01*
X48146866Y-81055608D01*
X48165530Y-81100668D01*
X48200018Y-81135156D01*
X48245078Y-81153820D01*
X48293850Y-81153820D01*
X48338910Y-81135156D01*
X48373398Y-81100668D01*
X48392062Y-81055608D01*
X48394464Y-81031222D01*
X48394464Y-80116937D01*
X48392062Y-80092551D01*
X48373398Y-80047491D01*
X48338910Y-80013003D01*
X48293850Y-79994339D01*
X48245078Y-79994339D01*
X48200018Y-80013003D01*
X48165530Y-80047491D01*
X48146866Y-80092551D01*
X48144464Y-80116937D01*
X47399631Y-80116937D01*
X47424624Y-80106585D01*
X47459112Y-80072097D01*
X47477776Y-80027037D01*
X47480178Y-80002651D01*
X47480178Y-79917873D01*
X47515052Y-79848124D01*
X47543509Y-79819668D01*
X47613258Y-79784794D01*
X48155178Y-79784794D01*
X48179564Y-79782392D01*
X48224624Y-79763728D01*
X48259112Y-79729240D01*
X48277776Y-79684180D01*
X48277776Y-79635408D01*
X48259112Y-79590348D01*
X48224624Y-79555860D01*
X48179564Y-79537196D01*
X48155178Y-79534794D01*
X47355178Y-79534794D01*
X47330792Y-79537196D01*
X47285732Y-79555860D01*
X47251244Y-79590348D01*
X47232580Y-79635408D01*
X47232580Y-79684180D01*
X47251244Y-79729240D01*
X47280405Y-79758401D01*
X47243375Y-79832463D01*
X47234617Y-79855349D01*
X47234298Y-79859830D01*
X47232580Y-79863979D01*
X47230178Y-79888365D01*
X46696845Y-79888365D01*
X46696845Y-78745508D01*
X47230178Y-78745508D01*
X47230178Y-78916937D01*
X47232580Y-78941323D01*
X47234298Y-78945471D01*
X47234617Y-78949953D01*
X47243375Y-78972839D01*
X47300518Y-79087125D01*
X47307125Y-79097621D01*
X47308388Y-79100669D01*
X47311204Y-79104100D01*
X47313572Y-79107862D01*
X47316066Y-79110025D01*
X47323933Y-79119611D01*
X47381075Y-79176754D01*
X47390664Y-79184623D01*
X47392826Y-79187116D01*
X47396584Y-79189481D01*
X47400017Y-79192299D01*
X47403065Y-79193561D01*
X47413563Y-79200170D01*
X47527849Y-79257312D01*
X47550735Y-79266069D01*
X47555214Y-79266387D01*
X47559364Y-79268106D01*
X47583750Y-79270508D01*
X47926607Y-79270508D01*
X47950993Y-79268106D01*
X47955142Y-79266387D01*
X47959622Y-79266069D01*
X47982508Y-79257312D01*
X48096794Y-79200170D01*
X48107293Y-79193560D01*
X48110339Y-79192299D01*
X48113768Y-79189484D01*
X48117531Y-79187116D01*
X48119695Y-79184620D01*
X48129281Y-79176754D01*
X48186424Y-79119612D01*
X48194293Y-79110022D01*
X48196786Y-79107861D01*
X48199151Y-79104102D01*
X48201969Y-79100670D01*
X48203231Y-79097621D01*
X48209840Y-79087124D01*
X48266982Y-78972838D01*
X48275739Y-78949952D01*
X48276057Y-78945472D01*
X48277776Y-78941323D01*
X48280178Y-78916937D01*
X48280178Y-78745508D01*
X48277776Y-78721122D01*
X48276057Y-78716972D01*
X48275739Y-78712492D01*
X48266981Y-78689606D01*
X48209840Y-78575322D01*
X48203231Y-78564822D01*
X48201969Y-78561776D01*
X48199153Y-78558345D01*
X48196786Y-78554584D01*
X48194290Y-78552419D01*
X48186424Y-78542834D01*
X48129281Y-78485692D01*
X48119695Y-78477825D01*
X48117532Y-78475331D01*
X48113770Y-78472963D01*
X48110339Y-78470147D01*
X48107291Y-78468884D01*
X48096795Y-78462277D01*
X47982509Y-78405134D01*
X47959623Y-78396376D01*
X47955141Y-78396057D01*
X47950993Y-78394339D01*
X47926607Y-78391937D01*
X47583750Y-78391937D01*
X47559364Y-78394339D01*
X47555215Y-78396057D01*
X47550734Y-78396376D01*
X47527849Y-78405133D01*
X47413562Y-78462277D01*
X47403067Y-78468883D01*
X47400017Y-78470147D01*
X47396582Y-78472965D01*
X47392825Y-78475331D01*
X47390663Y-78477822D01*
X47381075Y-78485692D01*
X47323933Y-78542835D01*
X47316069Y-78552416D01*
X47313572Y-78554583D01*
X47311201Y-78558348D01*
X47308388Y-78561777D01*
X47307126Y-78564822D01*
X47300518Y-78575321D01*
X47243375Y-78689606D01*
X47234617Y-78712492D01*
X47234298Y-78716973D01*
X47232580Y-78721122D01*
X47230178Y-78745508D01*
X46696845Y-78745508D01*
X46696845Y-77863980D01*
X46832580Y-77863980D01*
X46832580Y-77912752D01*
X46851244Y-77957812D01*
X46885732Y-77992300D01*
X46930792Y-78010964D01*
X46955178Y-78013366D01*
X47230178Y-78013366D01*
X47230178Y-78174080D01*
X47232580Y-78198466D01*
X47251244Y-78243526D01*
X47285732Y-78278014D01*
X47330792Y-78296678D01*
X47379564Y-78296678D01*
X47424624Y-78278014D01*
X47459112Y-78243526D01*
X47477776Y-78198466D01*
X47480178Y-78174080D01*
X47480178Y-78013366D01*
X47954242Y-78013366D01*
X48004866Y-78038678D01*
X48030178Y-78089302D01*
X48030178Y-78174080D01*
X48032580Y-78198466D01*
X48051244Y-78243526D01*
X48085732Y-78278014D01*
X48130792Y-78296678D01*
X48179564Y-78296678D01*
X48224624Y-78278014D01*
X48259112Y-78243526D01*
X48277776Y-78198466D01*
X48280178Y-78174080D01*
X48280178Y-78059794D01*
X48277776Y-78035408D01*
X48276057Y-78031258D01*
X48275739Y-78026778D01*
X48266981Y-78003892D01*
X48209840Y-77889608D01*
X48207272Y-77885528D01*
X48206631Y-77883605D01*
X48204553Y-77881209D01*
X48196786Y-77868870D01*
X48184941Y-77858597D01*
X48174675Y-77846760D01*
X48162341Y-77838996D01*
X48159941Y-77836914D01*
X48158013Y-77836271D01*
X48153938Y-77833706D01*
X48039652Y-77776563D01*
X48016766Y-77767805D01*
X48012284Y-77767486D01*
X48008136Y-77765768D01*
X47983750Y-77763366D01*
X47480178Y-77763366D01*
X47480178Y-77716937D01*
X47477776Y-77692551D01*
X47459112Y-77647491D01*
X47424624Y-77613003D01*
X47379564Y-77594339D01*
X47330792Y-77594339D01*
X47285732Y-77613003D01*
X47251244Y-77647491D01*
X47232580Y-77692551D01*
X47230178Y-77716937D01*
X47230178Y-77763366D01*
X46955178Y-77763366D01*
X46930792Y-77765768D01*
X46885732Y-77784432D01*
X46851244Y-77818920D01*
X46832580Y-77863980D01*
X46696845Y-77863980D01*
X46696845Y-76974080D01*
X47230178Y-76974080D01*
X47230178Y-77145509D01*
X47232580Y-77169895D01*
X47234298Y-77174043D01*
X47234617Y-77178525D01*
X47243375Y-77201411D01*
X47300518Y-77315697D01*
X47307125Y-77326193D01*
X47308388Y-77329241D01*
X47311204Y-77332672D01*
X47313572Y-77336434D01*
X47316066Y-77338597D01*
X47323933Y-77348183D01*
X47381075Y-77405326D01*
X47390664Y-77413195D01*
X47392826Y-77415688D01*
X47396584Y-77418053D01*
X47400017Y-77420871D01*
X47403065Y-77422133D01*
X47413563Y-77428742D01*
X47527849Y-77485884D01*
X47550735Y-77494641D01*
X47555214Y-77494959D01*
X47559364Y-77496678D01*
X47583750Y-77499080D01*
X47926607Y-77499080D01*
X47950993Y-77496678D01*
X47955142Y-77494959D01*
X47959622Y-77494641D01*
X47982508Y-77485884D01*
X48096794Y-77428742D01*
X48107293Y-77422132D01*
X48110339Y-77420871D01*
X48113768Y-77418056D01*
X48117531Y-77415688D01*
X48119695Y-77413192D01*
X48129281Y-77405326D01*
X48186424Y-77348184D01*
X48194293Y-77338594D01*
X48196786Y-77336433D01*
X48199151Y-77332674D01*
X48201969Y-77329242D01*
X48203231Y-77326193D01*
X48209840Y-77315696D01*
X48266982Y-77201410D01*
X48275739Y-77178524D01*
X48276057Y-77174044D01*
X48277776Y-77169895D01*
X48280178Y-77145509D01*
X48280178Y-76974080D01*
X48277776Y-76949694D01*
X48276057Y-76945544D01*
X48275739Y-76941064D01*
X48266981Y-76918178D01*
X48209840Y-76803894D01*
X48203231Y-76793394D01*
X48201969Y-76790348D01*
X48199153Y-76786917D01*
X48196786Y-76783156D01*
X48194290Y-76780991D01*
X48186424Y-76771406D01*
X48129281Y-76714264D01*
X48119695Y-76706397D01*
X48117532Y-76703903D01*
X48113770Y-76701535D01*
X48110339Y-76698719D01*
X48107291Y-76697456D01*
X48096795Y-76690849D01*
X47982509Y-76633706D01*
X47959623Y-76624948D01*
X47955141Y-76624629D01*
X47950993Y-76622911D01*
X47926607Y-76620509D01*
X47583750Y-76620509D01*
X47559364Y-76622911D01*
X47555215Y-76624629D01*
X47550734Y-76624948D01*
X47527849Y-76633705D01*
X47413562Y-76690849D01*
X47403067Y-76697455D01*
X47400017Y-76698719D01*
X47396582Y-76701537D01*
X47392825Y-76703903D01*
X47390663Y-76706394D01*
X47381075Y-76714264D01*
X47323933Y-76771407D01*
X47316069Y-76780988D01*
X47313572Y-76783155D01*
X47311201Y-76786920D01*
X47308388Y-76790349D01*
X47307126Y-76793394D01*
X47300518Y-76803893D01*
X47243375Y-76918178D01*
X47234617Y-76941064D01*
X47234298Y-76945545D01*
X47232580Y-76949694D01*
X47230178Y-76974080D01*
X46696845Y-76974080D01*
X46696845Y-75450202D01*
X46831627Y-75450202D01*
X46832580Y-75452822D01*
X46832580Y-75455609D01*
X46840879Y-75475645D01*
X46848295Y-75496039D01*
X46850177Y-75498094D01*
X46851244Y-75500669D01*
X46866581Y-75516006D01*
X46881235Y-75532007D01*
X46884539Y-75533964D01*
X46885732Y-75535157D01*
X46888459Y-75536286D01*
X46902317Y-75544496D01*
X47516732Y-75831223D01*
X46902317Y-76117950D01*
X46888459Y-76126159D01*
X46885732Y-76127289D01*
X46884539Y-76128481D01*
X46881235Y-76130439D01*
X46866581Y-76146439D01*
X46851244Y-76161777D01*
X46850177Y-76164351D01*
X46848295Y-76166407D01*
X46840879Y-76186800D01*
X46832580Y-76206837D01*
X46832580Y-76209623D01*
X46831627Y-76212244D01*
X46832580Y-76233922D01*
X46832580Y-76255609D01*
X46833646Y-76258183D01*
X46833769Y-76260970D01*
X46842943Y-76280630D01*
X46851244Y-76300669D01*
X46853215Y-76302640D01*
X46854394Y-76305166D01*
X46870394Y-76319819D01*
X46885732Y-76335157D01*
X46888306Y-76336223D01*
X46890362Y-76338106D01*
X46910755Y-76345521D01*
X46930792Y-76353821D01*
X46934613Y-76354197D01*
X46936199Y-76354774D01*
X46939150Y-76354644D01*
X46955178Y-76356223D01*
X48155178Y-76356223D01*
X48179564Y-76353821D01*
X48224624Y-76335157D01*
X48259112Y-76300669D01*
X48277776Y-76255609D01*
X48277776Y-76206837D01*
X48259112Y-76161777D01*
X48224624Y-76127289D01*
X48179564Y-76108625D01*
X48155178Y-76106223D01*
X47518624Y-76106223D01*
X47865182Y-75944496D01*
X47874111Y-75939206D01*
X47877137Y-75938106D01*
X47879277Y-75936146D01*
X47886264Y-75932007D01*
X47899092Y-75917998D01*
X47913105Y-75905166D01*
X47915453Y-75900133D01*
X47919204Y-75896038D01*
X47925695Y-75878186D01*
X47933730Y-75860970D01*
X47933973Y-75855421D01*
X47935872Y-75850202D01*
X47935037Y-75831223D01*
X47935872Y-75812244D01*
X47933973Y-75807024D01*
X47933730Y-75801476D01*
X47925695Y-75784259D01*
X47919204Y-75766408D01*
X47915453Y-75762312D01*
X47913105Y-75757280D01*
X47899092Y-75744447D01*
X47886264Y-75730439D01*
X47879277Y-75726299D01*
X47877137Y-75724340D01*
X47874111Y-75723239D01*
X47865182Y-75717950D01*
X47518624Y-75556223D01*
X48155178Y-75556223D01*
X48179564Y-75553821D01*
X48224624Y-75535157D01*
X48259112Y-75500669D01*
X48277776Y-75455609D01*
X48277776Y-75406837D01*
X48259112Y-75361777D01*
X48224624Y-75327289D01*
X48179564Y-75308625D01*
X48155178Y-75306223D01*
X46955178Y-75306223D01*
X46939150Y-75307801D01*
X46936199Y-75307672D01*
X46934613Y-75308248D01*
X46930792Y-75308625D01*
X46910755Y-75316924D01*
X46890362Y-75324340D01*
X46888306Y-75326222D01*
X46885732Y-75327289D01*
X46870394Y-75342626D01*
X46854394Y-75357280D01*
X46853215Y-75359805D01*
X46851244Y-75361777D01*
X46842943Y-75381815D01*
X46833769Y-75401476D01*
X46833646Y-75404262D01*
X46832580Y-75406837D01*
X46832580Y-75428523D01*
X46831627Y-75450202D01*
X46696845Y-75450202D01*
X46696845Y-75172890D01*
X48527797Y-75172890D01*
X48527797Y-82201439D01*
G37*
G36*
X141928026Y-96267900D02*
G01*
X141956482Y-96296355D01*
X141991357Y-96366104D01*
X141991357Y-96478516D01*
X141956482Y-96548264D01*
X141928027Y-96576720D01*
X141858277Y-96611596D01*
X141574436Y-96611596D01*
X141504687Y-96576721D01*
X141476231Y-96548264D01*
X141441357Y-96478516D01*
X141441357Y-96366104D01*
X141476232Y-96296353D01*
X141504686Y-96267900D01*
X141574436Y-96233025D01*
X141858277Y-96233025D01*
X141928026Y-96267900D01*
G37*
G36*
X141928026Y-94496472D02*
G01*
X141956482Y-94524927D01*
X141991357Y-94594676D01*
X141991357Y-94707088D01*
X141956482Y-94776836D01*
X141928027Y-94805292D01*
X141858277Y-94840168D01*
X141574436Y-94840168D01*
X141504687Y-94805293D01*
X141476231Y-94776836D01*
X141441357Y-94707088D01*
X141441357Y-94594676D01*
X141476232Y-94524925D01*
X141504686Y-94496472D01*
X141574436Y-94461597D01*
X141858277Y-94461597D01*
X141928026Y-94496472D01*
G37*
G36*
X142830851Y-98309215D02*
G01*
X140943738Y-98309215D01*
X140943738Y-97226496D01*
X141193759Y-97226496D01*
X141193759Y-97275268D01*
X141212423Y-97320328D01*
X141246911Y-97354816D01*
X141291971Y-97373480D01*
X141316357Y-97375882D01*
X141952911Y-97375882D01*
X141606353Y-97537609D01*
X141597423Y-97542898D01*
X141594398Y-97543999D01*
X141592257Y-97545958D01*
X141585271Y-97550098D01*
X141572440Y-97564108D01*
X141558430Y-97576939D01*
X141556082Y-97581969D01*
X141552331Y-97586066D01*
X141545838Y-97603921D01*
X141537805Y-97621135D01*
X141537561Y-97626683D01*
X141535663Y-97631903D01*
X141536497Y-97650882D01*
X141535663Y-97669861D01*
X141537561Y-97675080D01*
X141537805Y-97680629D01*
X141545838Y-97697842D01*
X141552331Y-97715698D01*
X141556082Y-97719794D01*
X141558430Y-97724825D01*
X141572440Y-97737655D01*
X141585271Y-97751666D01*
X141592257Y-97755805D01*
X141594398Y-97757765D01*
X141597423Y-97758865D01*
X141606353Y-97764155D01*
X141952911Y-97925882D01*
X141316357Y-97925882D01*
X141291971Y-97928284D01*
X141246911Y-97946948D01*
X141212423Y-97981436D01*
X141193759Y-98026496D01*
X141193759Y-98075268D01*
X141212423Y-98120328D01*
X141246911Y-98154816D01*
X141291971Y-98173480D01*
X141316357Y-98175882D01*
X142516357Y-98175882D01*
X142532384Y-98174303D01*
X142535336Y-98174433D01*
X142536921Y-98173856D01*
X142540743Y-98173480D01*
X142560779Y-98165180D01*
X142581173Y-98157765D01*
X142583228Y-98155882D01*
X142585803Y-98154816D01*
X142601140Y-98139478D01*
X142617141Y-98124825D01*
X142618319Y-98122299D01*
X142620291Y-98120328D01*
X142628591Y-98100289D01*
X142637766Y-98080629D01*
X142637888Y-98077842D01*
X142638955Y-98075268D01*
X142638955Y-98053581D01*
X142639908Y-98031903D01*
X142638955Y-98029282D01*
X142638955Y-98026496D01*
X142630654Y-98006455D01*
X142623240Y-97986067D01*
X142621357Y-97984011D01*
X142620291Y-97981436D01*
X142604948Y-97966093D01*
X142590300Y-97950098D01*
X142586995Y-97948140D01*
X142585803Y-97946948D01*
X142583075Y-97945818D01*
X142569218Y-97937609D01*
X141954802Y-97650882D01*
X142569218Y-97364155D01*
X142583075Y-97355945D01*
X142585803Y-97354816D01*
X142586995Y-97353623D01*
X142590300Y-97351666D01*
X142604948Y-97335670D01*
X142620291Y-97320328D01*
X142621357Y-97317752D01*
X142623240Y-97315697D01*
X142630654Y-97295308D01*
X142638955Y-97275268D01*
X142638955Y-97272481D01*
X142639908Y-97269861D01*
X142638955Y-97248182D01*
X142638955Y-97226496D01*
X142637888Y-97223921D01*
X142637766Y-97221135D01*
X142628591Y-97201474D01*
X142620291Y-97181436D01*
X142618319Y-97179464D01*
X142617141Y-97176939D01*
X142601140Y-97162285D01*
X142585803Y-97146948D01*
X142583228Y-97145881D01*
X142581173Y-97143999D01*
X142560779Y-97136583D01*
X142540743Y-97128284D01*
X142536921Y-97127907D01*
X142535336Y-97127331D01*
X142532384Y-97127460D01*
X142516357Y-97125882D01*
X141316357Y-97125882D01*
X141291971Y-97128284D01*
X141246911Y-97146948D01*
X141212423Y-97181436D01*
X141193759Y-97226496D01*
X140943738Y-97226496D01*
X140943738Y-96336596D01*
X141191357Y-96336596D01*
X141191357Y-96508025D01*
X141193759Y-96532411D01*
X141195477Y-96536559D01*
X141195796Y-96541041D01*
X141204554Y-96563927D01*
X141261697Y-96678212D01*
X141268303Y-96688707D01*
X141269566Y-96691755D01*
X141272382Y-96695186D01*
X141274751Y-96698950D01*
X141277246Y-96701114D01*
X141285111Y-96710698D01*
X141342253Y-96767841D01*
X141351841Y-96775710D01*
X141354003Y-96778202D01*
X141357760Y-96780567D01*
X141361195Y-96783386D01*
X141364245Y-96784649D01*
X141374740Y-96791256D01*
X141489027Y-96848400D01*
X141511912Y-96857157D01*
X141516393Y-96857475D01*
X141520542Y-96859194D01*
X141544928Y-96861596D01*
X141887785Y-96861596D01*
X141912171Y-96859194D01*
X141916319Y-96857475D01*
X141920801Y-96857157D01*
X141943687Y-96848399D01*
X142057973Y-96791256D01*
X142068469Y-96784648D01*
X142071517Y-96783386D01*
X142074948Y-96780569D01*
X142078710Y-96778202D01*
X142080873Y-96775707D01*
X142090459Y-96767841D01*
X142147602Y-96710699D01*
X142155471Y-96701110D01*
X142157963Y-96698949D01*
X142160328Y-96695191D01*
X142163147Y-96691757D01*
X142164410Y-96688706D01*
X142171017Y-96678212D01*
X142228160Y-96563927D01*
X142236918Y-96541041D01*
X142237236Y-96536559D01*
X142238955Y-96532411D01*
X142241357Y-96508025D01*
X142241357Y-96336596D01*
X142238955Y-96312210D01*
X142237236Y-96308061D01*
X142236918Y-96303580D01*
X142228161Y-96280695D01*
X142171017Y-96166408D01*
X142164410Y-96155913D01*
X142163147Y-96152863D01*
X142160328Y-96149428D01*
X142157963Y-96145671D01*
X142155471Y-96143509D01*
X142147602Y-96133921D01*
X142090459Y-96076779D01*
X142080871Y-96068911D01*
X142078710Y-96066419D01*
X142074950Y-96064052D01*
X142071516Y-96061234D01*
X142068467Y-96059971D01*
X142057973Y-96053365D01*
X141943687Y-95996222D01*
X141920801Y-95987464D01*
X141916319Y-95987145D01*
X141912171Y-95985427D01*
X141887785Y-95983025D01*
X141544928Y-95983025D01*
X141520542Y-95985427D01*
X141516393Y-95987145D01*
X141511912Y-95987464D01*
X141489027Y-95996221D01*
X141374740Y-96053365D01*
X141364243Y-96059972D01*
X141361196Y-96061235D01*
X141357764Y-96064051D01*
X141354003Y-96066419D01*
X141351839Y-96068913D01*
X141342254Y-96076780D01*
X141285112Y-96133922D01*
X141277245Y-96143507D01*
X141274751Y-96145671D01*
X141272383Y-96149432D01*
X141269567Y-96152864D01*
X141268304Y-96155911D01*
X141261697Y-96166408D01*
X141204554Y-96280694D01*
X141195796Y-96303580D01*
X141195477Y-96308061D01*
X141193759Y-96312210D01*
X141191357Y-96336596D01*
X140943738Y-96336596D01*
X140943738Y-95308025D01*
X141191357Y-95308025D01*
X141191357Y-95422311D01*
X141193759Y-95446697D01*
X141195477Y-95450845D01*
X141195796Y-95455327D01*
X141204554Y-95478213D01*
X141261697Y-95592498D01*
X141264263Y-95596574D01*
X141264905Y-95598500D01*
X141266983Y-95600896D01*
X141274751Y-95613236D01*
X141286595Y-95623508D01*
X141296861Y-95635345D01*
X141309193Y-95643108D01*
X141311596Y-95645192D01*
X141313524Y-95645834D01*
X141317598Y-95648399D01*
X141431883Y-95705542D01*
X141454769Y-95714300D01*
X141459250Y-95714618D01*
X141463399Y-95716337D01*
X141487785Y-95718739D01*
X141991357Y-95718739D01*
X141991357Y-95765168D01*
X141993759Y-95789554D01*
X142012423Y-95834614D01*
X142046911Y-95869102D01*
X142091971Y-95887766D01*
X142140743Y-95887766D01*
X142185803Y-95869102D01*
X142220291Y-95834614D01*
X142238955Y-95789554D01*
X142241357Y-95765168D01*
X142241357Y-95718739D01*
X142516357Y-95718739D01*
X142540743Y-95716337D01*
X142585803Y-95697673D01*
X142620291Y-95663185D01*
X142638955Y-95618125D01*
X142638955Y-95569353D01*
X142620291Y-95524293D01*
X142585803Y-95489805D01*
X142540743Y-95471141D01*
X142516357Y-95468739D01*
X142241357Y-95468739D01*
X142241357Y-95308025D01*
X142238955Y-95283639D01*
X142220291Y-95238579D01*
X142185803Y-95204091D01*
X142140743Y-95185427D01*
X142091971Y-95185427D01*
X142046911Y-95204091D01*
X142012423Y-95238579D01*
X141993759Y-95283639D01*
X141991357Y-95308025D01*
X141991357Y-95468739D01*
X141517293Y-95468739D01*
X141466669Y-95443426D01*
X141441357Y-95392802D01*
X141441357Y-95308025D01*
X141438955Y-95283639D01*
X141420291Y-95238579D01*
X141385803Y-95204091D01*
X141340743Y-95185427D01*
X141291971Y-95185427D01*
X141246911Y-95204091D01*
X141212423Y-95238579D01*
X141193759Y-95283639D01*
X141191357Y-95308025D01*
X140943738Y-95308025D01*
X140943738Y-94565168D01*
X141191357Y-94565168D01*
X141191357Y-94736597D01*
X141193759Y-94760983D01*
X141195477Y-94765131D01*
X141195796Y-94769613D01*
X141204554Y-94792499D01*
X141261697Y-94906784D01*
X141268303Y-94917279D01*
X141269566Y-94920327D01*
X141272382Y-94923758D01*
X141274751Y-94927522D01*
X141277246Y-94929686D01*
X141285111Y-94939270D01*
X141342253Y-94996413D01*
X141351841Y-95004282D01*
X141354003Y-95006774D01*
X141357760Y-95009139D01*
X141361195Y-95011958D01*
X141364245Y-95013221D01*
X141374740Y-95019828D01*
X141489027Y-95076972D01*
X141511912Y-95085729D01*
X141516393Y-95086047D01*
X141520542Y-95087766D01*
X141544928Y-95090168D01*
X141887785Y-95090168D01*
X141912171Y-95087766D01*
X141916319Y-95086047D01*
X141920801Y-95085729D01*
X141943687Y-95076971D01*
X142057973Y-95019828D01*
X142068469Y-95013220D01*
X142071517Y-95011958D01*
X142074948Y-95009141D01*
X142078710Y-95006774D01*
X142080873Y-95004279D01*
X142090459Y-94996413D01*
X142147602Y-94939271D01*
X142155471Y-94929682D01*
X142157963Y-94927521D01*
X142160328Y-94923763D01*
X142163147Y-94920329D01*
X142164410Y-94917278D01*
X142171017Y-94906784D01*
X142228160Y-94792499D01*
X142236918Y-94769613D01*
X142237236Y-94765131D01*
X142238955Y-94760983D01*
X142241357Y-94736597D01*
X142241357Y-94565168D01*
X142238955Y-94540782D01*
X142237236Y-94536633D01*
X142236918Y-94532152D01*
X142228161Y-94509267D01*
X142171017Y-94394980D01*
X142164410Y-94384485D01*
X142163147Y-94381435D01*
X142160328Y-94378000D01*
X142157963Y-94374243D01*
X142155471Y-94372081D01*
X142147602Y-94362493D01*
X142090459Y-94305351D01*
X142080871Y-94297483D01*
X142078710Y-94294991D01*
X142074950Y-94292624D01*
X142071516Y-94289806D01*
X142068467Y-94288543D01*
X142057973Y-94281937D01*
X141943687Y-94224794D01*
X141920801Y-94216036D01*
X141916319Y-94215717D01*
X141912171Y-94213999D01*
X141887785Y-94211597D01*
X141544928Y-94211597D01*
X141520542Y-94213999D01*
X141516393Y-94215717D01*
X141511912Y-94216036D01*
X141489027Y-94224793D01*
X141374740Y-94281937D01*
X141364243Y-94288544D01*
X141361196Y-94289807D01*
X141357764Y-94292623D01*
X141354003Y-94294991D01*
X141351839Y-94297485D01*
X141342254Y-94305352D01*
X141285112Y-94362494D01*
X141277245Y-94372079D01*
X141274751Y-94374243D01*
X141272383Y-94378004D01*
X141269567Y-94381436D01*
X141268304Y-94384483D01*
X141261697Y-94394980D01*
X141204554Y-94509266D01*
X141195796Y-94532152D01*
X141195477Y-94536633D01*
X141193759Y-94540782D01*
X141191357Y-94565168D01*
X140943738Y-94565168D01*
X140943738Y-93797925D01*
X141193759Y-93797925D01*
X141193759Y-93846697D01*
X141212423Y-93891757D01*
X141246911Y-93926245D01*
X141291971Y-93944909D01*
X141316357Y-93947311D01*
X142116357Y-93947311D01*
X142140743Y-93944909D01*
X142185803Y-93926245D01*
X142220291Y-93891757D01*
X142238955Y-93846697D01*
X142238955Y-93797925D01*
X142220291Y-93752865D01*
X142191129Y-93723703D01*
X142228161Y-93649641D01*
X142236918Y-93626756D01*
X142237236Y-93622274D01*
X142238955Y-93618126D01*
X142241357Y-93593740D01*
X142241357Y-93479454D01*
X142238955Y-93455068D01*
X142220291Y-93410008D01*
X142185803Y-93375520D01*
X142140743Y-93356856D01*
X142091971Y-93356856D01*
X142046911Y-93375520D01*
X142012423Y-93410008D01*
X141993759Y-93455068D01*
X141991357Y-93479454D01*
X141991357Y-93564232D01*
X141956482Y-93633980D01*
X141928026Y-93662435D01*
X141858277Y-93697311D01*
X141316357Y-93697311D01*
X141291971Y-93699713D01*
X141246911Y-93718377D01*
X141212423Y-93752865D01*
X141193759Y-93797925D01*
X140943738Y-93797925D01*
X140943738Y-92450883D01*
X141077071Y-92450883D01*
X141077071Y-93365169D01*
X141079473Y-93389555D01*
X141098137Y-93434615D01*
X141132625Y-93469103D01*
X141177685Y-93487767D01*
X141226457Y-93487767D01*
X141271517Y-93469103D01*
X141306005Y-93434615D01*
X141324669Y-93389555D01*
X141327071Y-93365169D01*
X141327071Y-92450883D01*
X141324669Y-92426497D01*
X141306005Y-92381437D01*
X141271517Y-92346949D01*
X141226457Y-92328285D01*
X141177685Y-92328285D01*
X141132625Y-92346949D01*
X141098137Y-92381437D01*
X141079473Y-92426497D01*
X141077071Y-92450883D01*
X140943738Y-92450883D01*
X140943738Y-91626497D01*
X141193759Y-91626497D01*
X141193759Y-91675269D01*
X141212423Y-91720329D01*
X141246911Y-91754817D01*
X141291971Y-91773481D01*
X141316357Y-91775883D01*
X141591357Y-91775883D01*
X141591357Y-92222311D01*
X141592572Y-92234654D01*
X141592339Y-92237945D01*
X141593130Y-92240320D01*
X141593759Y-92246697D01*
X141601428Y-92265212D01*
X141607762Y-92284214D01*
X141610703Y-92287605D01*
X141612423Y-92291757D01*
X141626591Y-92305925D01*
X141639717Y-92321060D01*
X141643734Y-92323068D01*
X141646911Y-92326245D01*
X141665423Y-92333912D01*
X141683342Y-92342872D01*
X141687821Y-92343190D01*
X141691971Y-92344909D01*
X141712008Y-92344909D01*
X141731991Y-92346329D01*
X141738236Y-92344909D01*
X141740743Y-92344909D01*
X141743794Y-92343645D01*
X141755885Y-92340896D01*
X142613028Y-92055182D01*
X142635403Y-92045192D01*
X142672249Y-92013237D01*
X142694061Y-91969612D01*
X142697518Y-91920963D01*
X142682095Y-91874694D01*
X142650140Y-91837848D01*
X142606516Y-91816036D01*
X142557866Y-91812579D01*
X142533972Y-91818012D01*
X141841357Y-92048883D01*
X141841357Y-91775883D01*
X142116357Y-91775883D01*
X142140743Y-91773481D01*
X142185803Y-91754817D01*
X142220291Y-91720329D01*
X142238955Y-91675269D01*
X142238955Y-91626497D01*
X142220291Y-91581437D01*
X142185803Y-91546949D01*
X142140743Y-91528285D01*
X142116357Y-91525883D01*
X141841357Y-91525883D01*
X141841357Y-91479454D01*
X141838955Y-91455068D01*
X141820291Y-91410008D01*
X141785803Y-91375520D01*
X141740743Y-91356856D01*
X141691971Y-91356856D01*
X141646911Y-91375520D01*
X141612423Y-91410008D01*
X141593759Y-91455068D01*
X141591357Y-91479454D01*
X141591357Y-91525883D01*
X141316357Y-91525883D01*
X141291971Y-91528285D01*
X141246911Y-91546949D01*
X141212423Y-91581437D01*
X141193759Y-91626497D01*
X140943738Y-91626497D01*
X140943738Y-91223523D01*
X142830851Y-91223523D01*
X142830851Y-98309215D01*
G37*
D12*
X90158094Y-137197304D02*
X89396190Y-137197304D01*
X89777142Y-137578257D02*
X89777142Y-136816352D01*
X97223094Y-38275757D02*
X97223094Y-37275757D01*
X97223094Y-37275757D02*
X96842142Y-37275757D01*
X96842142Y-37275757D02*
X96746904Y-37323376D01*
X96746904Y-37323376D02*
X96699285Y-37370995D01*
X96699285Y-37370995D02*
X96651666Y-37466233D01*
X96651666Y-37466233D02*
X96651666Y-37609090D01*
X96651666Y-37609090D02*
X96699285Y-37704328D01*
X96699285Y-37704328D02*
X96746904Y-37751947D01*
X96746904Y-37751947D02*
X96842142Y-37799566D01*
X96842142Y-37799566D02*
X97223094Y-37799566D01*
X96032618Y-37275757D02*
X95937380Y-37275757D01*
X95937380Y-37275757D02*
X95842142Y-37323376D01*
X95842142Y-37323376D02*
X95794523Y-37370995D01*
X95794523Y-37370995D02*
X95746904Y-37466233D01*
X95746904Y-37466233D02*
X95699285Y-37656709D01*
X95699285Y-37656709D02*
X95699285Y-37894804D01*
X95699285Y-37894804D02*
X95746904Y-38085280D01*
X95746904Y-38085280D02*
X95794523Y-38180518D01*
X95794523Y-38180518D02*
X95842142Y-38228138D01*
X95842142Y-38228138D02*
X95937380Y-38275757D01*
X95937380Y-38275757D02*
X96032618Y-38275757D01*
X96032618Y-38275757D02*
X96127856Y-38228138D01*
X96127856Y-38228138D02*
X96175475Y-38180518D01*
X96175475Y-38180518D02*
X96223094Y-38085280D01*
X96223094Y-38085280D02*
X96270713Y-37894804D01*
X96270713Y-37894804D02*
X96270713Y-37656709D01*
X96270713Y-37656709D02*
X96223094Y-37466233D01*
X96223094Y-37466233D02*
X96175475Y-37370995D01*
X96175475Y-37370995D02*
X96127856Y-37323376D01*
X96127856Y-37323376D02*
X96032618Y-37275757D01*
D15*
X94741250Y-39093538D02*
X98228750Y-39093538D01*
X98228750Y-36488538D01*
X94741250Y-36488538D01*
X94741250Y-39093538D01*
D12*
X100846904Y-37323376D02*
X100942142Y-37275757D01*
X100942142Y-37275757D02*
X101084999Y-37275757D01*
X101084999Y-37275757D02*
X101227856Y-37323376D01*
X101227856Y-37323376D02*
X101323094Y-37418614D01*
X101323094Y-37418614D02*
X101370713Y-37513852D01*
X101370713Y-37513852D02*
X101418332Y-37704328D01*
X101418332Y-37704328D02*
X101418332Y-37847185D01*
X101418332Y-37847185D02*
X101370713Y-38037661D01*
X101370713Y-38037661D02*
X101323094Y-38132899D01*
X101323094Y-38132899D02*
X101227856Y-38228138D01*
X101227856Y-38228138D02*
X101084999Y-38275757D01*
X101084999Y-38275757D02*
X100989761Y-38275757D01*
X100989761Y-38275757D02*
X100846904Y-38228138D01*
X100846904Y-38228138D02*
X100799285Y-38180518D01*
X100799285Y-38180518D02*
X100799285Y-37847185D01*
X100799285Y-37847185D02*
X100989761Y-37847185D01*
X100370713Y-38275757D02*
X100370713Y-37275757D01*
X100370713Y-37275757D02*
X99799285Y-38275757D01*
X99799285Y-38275757D02*
X99799285Y-37275757D01*
X99323094Y-38275757D02*
X99323094Y-37275757D01*
X99323094Y-37275757D02*
X99084999Y-37275757D01*
X99084999Y-37275757D02*
X98942142Y-37323376D01*
X98942142Y-37323376D02*
X98846904Y-37418614D01*
X98846904Y-37418614D02*
X98799285Y-37513852D01*
X98799285Y-37513852D02*
X98751666Y-37704328D01*
X98751666Y-37704328D02*
X98751666Y-37847185D01*
X98751666Y-37847185D02*
X98799285Y-38037661D01*
X98799285Y-38037661D02*
X98846904Y-38132899D01*
X98846904Y-38132899D02*
X98942142Y-38228138D01*
X98942142Y-38228138D02*
X99084999Y-38275757D01*
X99084999Y-38275757D02*
X99323094Y-38275757D01*
D15*
X98341250Y-39093538D02*
X101828750Y-39093538D01*
X101828750Y-36488538D01*
X98341250Y-36488538D01*
X98341250Y-39093538D01*
D12*
X93623094Y-38275757D02*
X93623094Y-37275757D01*
X93623094Y-37275757D02*
X93242142Y-37275757D01*
X93242142Y-37275757D02*
X93146904Y-37323376D01*
X93146904Y-37323376D02*
X93099285Y-37370995D01*
X93099285Y-37370995D02*
X93051666Y-37466233D01*
X93051666Y-37466233D02*
X93051666Y-37609090D01*
X93051666Y-37609090D02*
X93099285Y-37704328D01*
X93099285Y-37704328D02*
X93146904Y-37751947D01*
X93146904Y-37751947D02*
X93242142Y-37799566D01*
X93242142Y-37799566D02*
X93623094Y-37799566D01*
X92099285Y-38275757D02*
X92670713Y-38275757D01*
X92384999Y-38275757D02*
X92384999Y-37275757D01*
X92384999Y-37275757D02*
X92480237Y-37418614D01*
X92480237Y-37418614D02*
X92575475Y-37513852D01*
X92575475Y-37513852D02*
X92670713Y-37561471D01*
D15*
X91141250Y-39093538D02*
X94628750Y-39093538D01*
X94628750Y-36488538D01*
X91141250Y-36488538D01*
X91141250Y-39093538D01*
D12*
X90570713Y-37894804D02*
X89808809Y-37894804D01*
X90189761Y-38275757D02*
X90189761Y-37513852D01*
X88856428Y-37275757D02*
X89332618Y-37275757D01*
X89332618Y-37275757D02*
X89380237Y-37751947D01*
X89380237Y-37751947D02*
X89332618Y-37704328D01*
X89332618Y-37704328D02*
X89237380Y-37656709D01*
X89237380Y-37656709D02*
X88999285Y-37656709D01*
X88999285Y-37656709D02*
X88904047Y-37704328D01*
X88904047Y-37704328D02*
X88856428Y-37751947D01*
X88856428Y-37751947D02*
X88808809Y-37847185D01*
X88808809Y-37847185D02*
X88808809Y-38085280D01*
X88808809Y-38085280D02*
X88856428Y-38180518D01*
X88856428Y-38180518D02*
X88904047Y-38228138D01*
X88904047Y-38228138D02*
X88999285Y-38275757D01*
X88999285Y-38275757D02*
X89237380Y-38275757D01*
X89237380Y-38275757D02*
X89332618Y-38228138D01*
X89332618Y-38228138D02*
X89380237Y-38180518D01*
X88523094Y-37275757D02*
X88189761Y-38275757D01*
X88189761Y-38275757D02*
X87856428Y-37275757D01*
D15*
X87541250Y-39093538D02*
X91028750Y-39093538D01*
X91028750Y-36488538D01*
X87541250Y-36488538D01*
X87541250Y-39093538D01*
D16*
%TO.C,J10*%
X88327768Y-23881038D02*
X94637768Y-23881038D01*
X88327768Y-35601038D02*
X88327768Y-23881038D01*
X89747768Y-31101038D02*
X89747768Y-35601038D01*
X89747768Y-35601038D02*
X88327768Y-35601038D01*
X90587768Y-33691038D02*
X90887768Y-33091038D01*
X90637768Y-24491038D02*
X90637768Y-29991038D01*
X90637768Y-29991038D02*
X91137768Y-29991038D01*
X90887768Y-33091038D02*
X91187768Y-33691038D01*
X91137768Y-24491038D02*
X90637768Y-24491038D01*
X91137768Y-29991038D02*
X91137768Y-24491038D01*
X91187768Y-33691038D02*
X90587768Y-33691038D01*
X93137768Y-24491038D02*
X93137768Y-29991038D01*
X93137768Y-29991038D02*
X93637768Y-29991038D01*
X93637768Y-24491038D02*
X93137768Y-24491038D01*
X93637768Y-29991038D02*
X93637768Y-24491038D01*
X95637768Y-24491038D02*
X95637768Y-29991038D01*
X95637768Y-29991038D02*
X96137768Y-29991038D01*
X96137768Y-24491038D02*
X95637768Y-24491038D01*
X96137768Y-29991038D02*
X96137768Y-24491038D01*
X98137768Y-24491038D02*
X98137768Y-29991038D01*
X98137768Y-29991038D02*
X98637768Y-29991038D01*
X98637768Y-24491038D02*
X98137768Y-24491038D01*
X98637768Y-29991038D02*
X98637768Y-24491038D01*
X99527768Y-31101038D02*
X99527768Y-35601038D01*
X99527768Y-35601038D02*
X100947768Y-35601038D01*
X100947768Y-23881038D02*
X94637768Y-23881038D01*
X100947768Y-35601038D02*
X100947768Y-23881038D01*
%TO.C,J5*%
X33335000Y-90912500D02*
X33335000Y-92332500D01*
X33335000Y-92332500D02*
X37835000Y-92332500D01*
X33335000Y-97112500D02*
X37835000Y-97112500D01*
X33335000Y-98532500D02*
X33335000Y-97112500D01*
X33645000Y-93172500D02*
X33645000Y-93772500D01*
X33645000Y-93772500D02*
X34245000Y-93472500D01*
X34245000Y-93472500D02*
X33645000Y-93172500D01*
X37835000Y-92332500D02*
X37835000Y-94722500D01*
X37835000Y-97112500D02*
X37835000Y-94722500D01*
X38945000Y-93222500D02*
X44445000Y-93222500D01*
X38945000Y-93722500D02*
X38945000Y-93222500D01*
X38945000Y-95722500D02*
X44445000Y-95722500D01*
X38945000Y-96222500D02*
X38945000Y-95722500D01*
X44445000Y-93222500D02*
X44445000Y-93722500D01*
X44445000Y-93722500D02*
X38945000Y-93722500D01*
X44445000Y-95722500D02*
X44445000Y-96222500D01*
X44445000Y-96222500D02*
X38945000Y-96222500D01*
X45055000Y-90912500D02*
X33335000Y-90912500D01*
X45055000Y-94722500D02*
X45055000Y-90912500D01*
X45055000Y-94722500D02*
X45055000Y-98532500D01*
X45055000Y-98532500D02*
X33335000Y-98532500D01*
%TO.C,J2*%
X143645000Y-90902500D02*
X155365000Y-90902500D01*
X143645000Y-94712500D02*
X143645000Y-90902500D01*
X143645000Y-94712500D02*
X143645000Y-98522500D01*
X143645000Y-98522500D02*
X155365000Y-98522500D01*
X144255000Y-93212500D02*
X149755000Y-93212500D01*
X144255000Y-93712500D02*
X144255000Y-93212500D01*
X144255000Y-95712500D02*
X149755000Y-95712500D01*
X144255000Y-96212500D02*
X144255000Y-95712500D01*
X149755000Y-93212500D02*
X149755000Y-93712500D01*
X149755000Y-93712500D02*
X144255000Y-93712500D01*
X149755000Y-95712500D02*
X149755000Y-96212500D01*
X149755000Y-96212500D02*
X144255000Y-96212500D01*
X150865000Y-92322500D02*
X150865000Y-94712500D01*
X150865000Y-97102500D02*
X150865000Y-94712500D01*
X154455000Y-95962500D02*
X155055000Y-96262500D01*
X155055000Y-95662500D02*
X154455000Y-95962500D01*
X155055000Y-96262500D02*
X155055000Y-95662500D01*
X155365000Y-90902500D02*
X155365000Y-92322500D01*
X155365000Y-92322500D02*
X150865000Y-92322500D01*
X155365000Y-97102500D02*
X150865000Y-97102500D01*
X155365000Y-98522500D02*
X155365000Y-97102500D01*
%TO.C,J6*%
X97017768Y-131251038D02*
X100827768Y-131251038D01*
X97017768Y-142971038D02*
X97017768Y-131251038D01*
X98437768Y-138471038D02*
X98437768Y-142971038D01*
X98437768Y-142971038D02*
X97017768Y-142971038D01*
X99277768Y-142661038D02*
X99577768Y-142061038D01*
X99327768Y-131861038D02*
X99327768Y-137361038D01*
X99327768Y-137361038D02*
X99827768Y-137361038D01*
X99577768Y-142061038D02*
X99877768Y-142661038D01*
X99827768Y-131861038D02*
X99327768Y-131861038D01*
X99827768Y-137361038D02*
X99827768Y-131861038D01*
X99877768Y-142661038D02*
X99277768Y-142661038D01*
X100827768Y-138471038D02*
X98437768Y-138471038D01*
X100827768Y-138471038D02*
X103217768Y-138471038D01*
X101827768Y-131861038D02*
X101827768Y-137361038D01*
X101827768Y-137361038D02*
X102327768Y-137361038D01*
X102327768Y-131861038D02*
X101827768Y-131861038D01*
X102327768Y-137361038D02*
X102327768Y-131861038D01*
X103217768Y-138471038D02*
X103217768Y-142971038D01*
X103217768Y-142971038D02*
X104637768Y-142971038D01*
X104637768Y-131251038D02*
X100827768Y-131251038D01*
X104637768Y-142971038D02*
X104637768Y-131251038D01*
%TO.C,J3*%
X143675000Y-74872500D02*
X155395000Y-74872500D01*
X143675000Y-78682500D02*
X143675000Y-74872500D01*
X143675000Y-78682500D02*
X143675000Y-82492500D01*
X143675000Y-82492500D02*
X155395000Y-82492500D01*
X144285000Y-77182500D02*
X149785000Y-77182500D01*
X144285000Y-77682500D02*
X144285000Y-77182500D01*
X144285000Y-79682500D02*
X149785000Y-79682500D01*
X144285000Y-80182500D02*
X144285000Y-79682500D01*
X149785000Y-77182500D02*
X149785000Y-77682500D01*
X149785000Y-77682500D02*
X144285000Y-77682500D01*
X149785000Y-79682500D02*
X149785000Y-80182500D01*
X149785000Y-80182500D02*
X144285000Y-80182500D01*
X150895000Y-76292500D02*
X150895000Y-78682500D01*
X150895000Y-81072500D02*
X150895000Y-78682500D01*
X154485000Y-79932500D02*
X155085000Y-80232500D01*
X155085000Y-79632500D02*
X154485000Y-79932500D01*
X155085000Y-80232500D02*
X155085000Y-79632500D01*
X155395000Y-74872500D02*
X155395000Y-76292500D01*
X155395000Y-76292500D02*
X150895000Y-76292500D01*
X155395000Y-81072500D02*
X150895000Y-81072500D01*
X155395000Y-82492500D02*
X155395000Y-81072500D01*
%TO.C,J4*%
X33385000Y-74882500D02*
X33385000Y-76302500D01*
X33385000Y-76302500D02*
X37885000Y-76302500D01*
X33385000Y-81082500D02*
X37885000Y-81082500D01*
X33385000Y-82502500D02*
X33385000Y-81082500D01*
X33695000Y-77142500D02*
X33695000Y-77742500D01*
X33695000Y-77742500D02*
X34295000Y-77442500D01*
X34295000Y-77442500D02*
X33695000Y-77142500D01*
X37885000Y-76302500D02*
X37885000Y-78692500D01*
X37885000Y-81082500D02*
X37885000Y-78692500D01*
X38995000Y-77192500D02*
X44495000Y-77192500D01*
X38995000Y-77692500D02*
X38995000Y-77192500D01*
X38995000Y-79692500D02*
X44495000Y-79692500D01*
X38995000Y-80192500D02*
X38995000Y-79692500D01*
X44495000Y-77192500D02*
X44495000Y-77692500D01*
X44495000Y-77692500D02*
X38995000Y-77692500D01*
X44495000Y-79692500D02*
X44495000Y-80192500D01*
X44495000Y-80192500D02*
X38995000Y-80192500D01*
X45105000Y-74882500D02*
X33385000Y-74882500D01*
X45105000Y-78692500D02*
X45105000Y-74882500D01*
X45105000Y-78692500D02*
X45105000Y-82502500D01*
X45105000Y-82502500D02*
X33385000Y-82502500D01*
D17*
%TO.C,kibuzzard-6707333C*%
G36*
X93168755Y-84270623D02*
G01*
X93235994Y-84397948D01*
X92915536Y-84397948D01*
X92838283Y-84329278D01*
X92884063Y-84244872D01*
X93007096Y-84214829D01*
X93168755Y-84270623D01*
G37*
G36*
X97254592Y-84366474D02*
G01*
X97316108Y-84512397D01*
X97251731Y-84654028D01*
X97101516Y-84715544D01*
X96962747Y-84654028D01*
X96904091Y-84509536D01*
X96962747Y-84363613D01*
X97107239Y-84303527D01*
X97254592Y-84366474D01*
G37*
G36*
X99009957Y-84712683D02*
G01*
X98600801Y-84712683D01*
X98560744Y-84709822D01*
X98516395Y-84694085D01*
X98473476Y-84645444D01*
X98457739Y-84555316D01*
X98494935Y-84436574D01*
X98615107Y-84409393D01*
X98652303Y-84409393D01*
X98815393Y-84359321D01*
X98864034Y-84189078D01*
X98812532Y-84024557D01*
X98637997Y-83977347D01*
X98603662Y-83977347D01*
X98534993Y-83957318D01*
X98514964Y-83868620D01*
X98545007Y-83779922D01*
X98663748Y-83757032D01*
X99009957Y-83757032D01*
X99009957Y-84712683D01*
G37*
G36*
X100711626Y-86127085D02*
G01*
X99771998Y-86127085D01*
X99533562Y-86127085D01*
X99273190Y-86127085D01*
X96629413Y-86127085D01*
X95419113Y-86127085D01*
X94191645Y-86127085D01*
X93004234Y-86127085D01*
X91954163Y-86127085D01*
X90307525Y-86127085D01*
X89421974Y-86127085D01*
X89183538Y-86127085D01*
X88526600Y-83937290D01*
X89449156Y-83937290D01*
X89479199Y-84128992D01*
X90180200Y-85699808D01*
X90307525Y-85861467D01*
X90520686Y-85825702D01*
X90683777Y-85686932D01*
X90646581Y-85488077D01*
X90423405Y-84990223D01*
X90969900Y-84166188D01*
X91029985Y-83977347D01*
X91090071Y-83977347D01*
X91105808Y-84111467D01*
X91153018Y-84221982D01*
X91313247Y-84320695D01*
X91423405Y-84299235D01*
X91493505Y-84277776D01*
X91635136Y-84319264D01*
X91690930Y-84423699D01*
X91690930Y-84981639D01*
X91695222Y-85078921D01*
X91722403Y-85154743D01*
X91802518Y-85219121D01*
X91954163Y-85239150D01*
X92101516Y-85219121D01*
X92180200Y-85153313D01*
X92207382Y-85074629D01*
X92211674Y-84975916D01*
X92211674Y-84332140D01*
X92340429Y-84332140D01*
X92360100Y-84474128D01*
X92419113Y-84579636D01*
X92510314Y-84645087D01*
X92626552Y-84666904D01*
X93235994Y-84666904D01*
X93150157Y-84775630D01*
X92981345Y-84815687D01*
X92749585Y-84778492D01*
X92617968Y-84741296D01*
X92523548Y-84775630D01*
X92446294Y-84878635D01*
X92409098Y-85010251D01*
X92446294Y-85124164D01*
X92557882Y-85205530D01*
X92743862Y-85254350D01*
X93004234Y-85270623D01*
X93195937Y-85253098D01*
X93364749Y-85200523D01*
X93504592Y-85119336D01*
X93609385Y-85015974D01*
X93685923Y-84898663D01*
X93741001Y-84775630D01*
X93774263Y-84648306D01*
X93785350Y-84518120D01*
X93761030Y-84306865D01*
X93688068Y-84123270D01*
X93632287Y-84051739D01*
X93856881Y-84051739D01*
X93878340Y-84193370D01*
X93941287Y-84272054D01*
X94019971Y-84302097D01*
X94117253Y-84309250D01*
X94266037Y-84306389D01*
X94266037Y-84638291D01*
X94250300Y-84724128D01*
X94188784Y-84747018D01*
X94082918Y-84752740D01*
X94005665Y-84779922D01*
X93948440Y-84850022D01*
X93931273Y-84981639D01*
X93952732Y-85128992D01*
X94019971Y-85207676D01*
X94098655Y-85234858D01*
X94191645Y-85239150D01*
X94376194Y-85223572D01*
X94525455Y-85176838D01*
X94639428Y-85098949D01*
X94719701Y-84988315D01*
X94767865Y-84843346D01*
X94783920Y-84664042D01*
X94783920Y-84300666D01*
X94855450Y-84300666D01*
X94988498Y-84237719D01*
X95026539Y-84051739D01*
X95084349Y-84051739D01*
X95105808Y-84193370D01*
X95168755Y-84272054D01*
X95247439Y-84302097D01*
X95344721Y-84309250D01*
X95493505Y-84306389D01*
X95493505Y-84638291D01*
X95477768Y-84724128D01*
X95416252Y-84747018D01*
X95310386Y-84752740D01*
X95233133Y-84779922D01*
X95175908Y-84850022D01*
X95158741Y-84981639D01*
X95180200Y-85128992D01*
X95247439Y-85207676D01*
X95326123Y-85234858D01*
X95419113Y-85239150D01*
X95603662Y-85223572D01*
X95752923Y-85176838D01*
X95866895Y-85098949D01*
X95947169Y-84988315D01*
X95995333Y-84843346D01*
X96011387Y-84664042D01*
X96011387Y-84300666D01*
X96082918Y-84300666D01*
X96215965Y-84237719D01*
X96254592Y-84048878D01*
X96253882Y-84046017D01*
X96369041Y-84046017D01*
X96369041Y-84975916D01*
X96373333Y-85073198D01*
X96400515Y-85149021D01*
X96480629Y-85213399D01*
X96629413Y-85233427D01*
X96791788Y-85207676D01*
X96872618Y-85130423D01*
X97009242Y-85207676D01*
X97173047Y-85233427D01*
X97338521Y-85208948D01*
X97491597Y-85135509D01*
X97632274Y-85013112D01*
X97744339Y-84858924D01*
X97811578Y-84690111D01*
X97824202Y-84586789D01*
X97934134Y-84586789D01*
X97956547Y-84758781D01*
X98019971Y-84912334D01*
X98124406Y-85047447D01*
X98257453Y-85152359D01*
X98406714Y-85215306D01*
X98572189Y-85236288D01*
X99273190Y-85236288D01*
X99421974Y-85216260D01*
X99502088Y-85150451D01*
X99529270Y-85070337D01*
X99533562Y-84970194D01*
X99533562Y-83493799D01*
X99529270Y-83397948D01*
X99502088Y-83319264D01*
X99421974Y-83253456D01*
X99270329Y-83233427D01*
X98600801Y-83233427D01*
X98439618Y-83253615D01*
X98295603Y-83314177D01*
X98168755Y-83415115D01*
X98070202Y-83543712D01*
X98011070Y-83687250D01*
X97991359Y-83845730D01*
X98014964Y-84013112D01*
X98085779Y-84166188D01*
X97972046Y-84367190D01*
X97934134Y-84586789D01*
X97824202Y-84586789D01*
X97833991Y-84506675D01*
X97811419Y-84328007D01*
X97743703Y-84162055D01*
X97630844Y-84008821D01*
X97489690Y-83886423D01*
X97337091Y-83812985D01*
X97173047Y-83788506D01*
X97004950Y-83817118D01*
X96872618Y-83902955D01*
X96799656Y-83814972D01*
X96626552Y-83785645D01*
X96479199Y-83805673D01*
X96400515Y-83871481D01*
X96373333Y-83950165D01*
X96369041Y-84046017D01*
X96253882Y-84046017D01*
X96208812Y-83864328D01*
X96071473Y-83802812D01*
X96011387Y-83802812D01*
X96011387Y-83553885D01*
X96007096Y-83458034D01*
X95979914Y-83383642D01*
X95901230Y-83323556D01*
X95751015Y-83304958D01*
X95606523Y-83324986D01*
X95527840Y-83389364D01*
X95499227Y-83469479D01*
X95493505Y-83565330D01*
X95493505Y-83794228D01*
X95341860Y-83788506D01*
X95266037Y-83789936D01*
X95198798Y-83805673D01*
X95137282Y-83845730D01*
X95100086Y-83924414D01*
X95084349Y-84051739D01*
X95026539Y-84051739D01*
X95027124Y-84048878D01*
X94981345Y-83864328D01*
X94844005Y-83802812D01*
X94783920Y-83802812D01*
X94783920Y-83553885D01*
X94779628Y-83458034D01*
X94752446Y-83383642D01*
X94673762Y-83323556D01*
X94523548Y-83304958D01*
X94379056Y-83324986D01*
X94300372Y-83389364D01*
X94271759Y-83469479D01*
X94266037Y-83565330D01*
X94266037Y-83794228D01*
X94114392Y-83788506D01*
X94038569Y-83789936D01*
X93971330Y-83805673D01*
X93909814Y-83845730D01*
X93872618Y-83924414D01*
X93856881Y-84051739D01*
X93632287Y-84051739D01*
X93566466Y-83967333D01*
X93406396Y-83848910D01*
X93218032Y-83777856D01*
X93001373Y-83754171D01*
X92804425Y-83774835D01*
X92640858Y-83836829D01*
X92510672Y-83940151D01*
X92382990Y-84131138D01*
X92340429Y-84332140D01*
X92211674Y-84332140D01*
X92211674Y-84043155D01*
X92207382Y-83945873D01*
X92180200Y-83870051D01*
X92101516Y-83805673D01*
X91951302Y-83785645D01*
X91785350Y-83814972D01*
X91705236Y-83902955D01*
X91560744Y-83804243D01*
X91407668Y-83771338D01*
X91321831Y-83778492D01*
X91218827Y-83804243D01*
X91125837Y-83868620D01*
X91090071Y-83977347D01*
X91029985Y-83977347D01*
X90892646Y-83822841D01*
X90686638Y-83758463D01*
X90534993Y-83894371D01*
X90177339Y-84435144D01*
X89951302Y-83931567D01*
X89822546Y-83771338D01*
X89610815Y-83802812D01*
X89449156Y-83937290D01*
X88526600Y-83937290D01*
X88243910Y-82994991D01*
X89183538Y-82994991D01*
X89421974Y-82994991D01*
X99533562Y-82994991D01*
X99771998Y-82994991D01*
X100711626Y-86127085D01*
G37*
%TD*%
%LPC*%
D18*
%TO.C,J8*%
X71455000Y-109022500D03*
X73995000Y-109022500D03*
X76535000Y-109022500D03*
X79075000Y-109022500D03*
%TD*%
D19*
%TO.C,S1*%
X117785000Y-140002500D03*
X113085000Y-140002500D03*
X108385000Y-140002500D03*
%TD*%
D20*
%TO.C,J7*%
X71455000Y-114102500D03*
X73995000Y-114102500D03*
X76535000Y-114102500D03*
X79075000Y-114102500D03*
%TD*%
D21*
%TO.C,J11*%
X75347768Y-137696038D03*
D22*
X75347768Y-143696038D03*
D23*
X80047768Y-140696038D03*
%TD*%
D24*
%TO.C,J1*%
X81885000Y-84245000D03*
X107885000Y-84245000D03*
D25*
X67885000Y-82585000D03*
X121885000Y-82585000D03*
%TD*%
D18*
%TO.C,J9*%
X71455000Y-111562500D03*
X73995000Y-111562500D03*
X76535000Y-111562500D03*
X79075000Y-111562500D03*
%TD*%
D26*
%TO.C,J10*%
X90887768Y-31591038D03*
D27*
X93387768Y-31591038D03*
X95887768Y-31591038D03*
X98387768Y-31591038D03*
%TD*%
D28*
%TO.C,J5*%
X35745000Y-93472500D03*
D29*
X35745000Y-95972500D03*
%TD*%
D30*
%TO.C,J2*%
X152955000Y-95962500D03*
D29*
X152955000Y-93462500D03*
%TD*%
D31*
%TO.C,J6*%
X99577768Y-140561038D03*
D32*
X102077768Y-140561038D03*
%TD*%
D30*
%TO.C,J3*%
X152985000Y-79932500D03*
D29*
X152985000Y-77432500D03*
%TD*%
D28*
%TO.C,J4*%
X35795000Y-77442500D03*
D29*
X35795000Y-79942500D03*
%TD*%
G36*
X90739747Y-138263420D02*
G01*
X90818379Y-138279060D01*
X90863079Y-138297575D01*
X90919391Y-138335201D01*
X90953604Y-138369414D01*
X90991230Y-138425726D01*
X91009744Y-138470425D01*
X91025385Y-138549057D01*
X91027768Y-138573248D01*
X91027768Y-142448827D01*
X91025385Y-142473018D01*
X91009744Y-142551650D01*
X90991230Y-142596349D01*
X90953604Y-142652661D01*
X90919391Y-142686874D01*
X90863079Y-142724500D01*
X90818380Y-142743014D01*
X90739748Y-142758655D01*
X90715557Y-142761038D01*
X88839979Y-142761038D01*
X88815788Y-142758655D01*
X88737155Y-142743014D01*
X88692456Y-142724500D01*
X88636144Y-142686874D01*
X88601931Y-142652661D01*
X88564305Y-142596349D01*
X88545790Y-142551649D01*
X88530150Y-142473017D01*
X88527768Y-142448827D01*
X88527768Y-138573248D01*
X88530150Y-138549058D01*
X88545790Y-138470426D01*
X88564305Y-138425726D01*
X88601931Y-138369414D01*
X88636144Y-138335201D01*
X88692456Y-138297575D01*
X88737156Y-138279060D01*
X88815789Y-138263420D01*
X88839979Y-138261038D01*
X90715557Y-138261038D01*
X90739747Y-138263420D01*
G37*
G36*
X87239747Y-138263420D02*
G01*
X87318379Y-138279060D01*
X87363079Y-138297575D01*
X87419391Y-138335201D01*
X87453604Y-138369414D01*
X87491230Y-138425726D01*
X87509744Y-138470425D01*
X87525385Y-138549057D01*
X87527768Y-138573248D01*
X87527768Y-142448827D01*
X87525385Y-142473018D01*
X87509744Y-142551650D01*
X87491230Y-142596349D01*
X87453604Y-142652661D01*
X87419391Y-142686874D01*
X87363079Y-142724500D01*
X87318380Y-142743014D01*
X87239748Y-142758655D01*
X87215557Y-142761038D01*
X85339979Y-142761038D01*
X85315788Y-142758655D01*
X85237155Y-142743014D01*
X85192456Y-142724500D01*
X85136144Y-142686874D01*
X85101931Y-142652661D01*
X85064305Y-142596349D01*
X85045790Y-142551649D01*
X85030150Y-142473017D01*
X85027768Y-142448827D01*
X85027768Y-138573248D01*
X85030150Y-138549058D01*
X85045790Y-138470426D01*
X85064305Y-138425726D01*
X85101931Y-138369414D01*
X85136144Y-138335201D01*
X85192456Y-138297575D01*
X85237156Y-138279060D01*
X85315789Y-138263420D01*
X85339979Y-138261038D01*
X87215557Y-138261038D01*
X87239747Y-138263420D01*
G37*
G36*
X94239747Y-138263420D02*
G01*
X94318379Y-138279060D01*
X94363079Y-138297575D01*
X94419391Y-138335201D01*
X94453604Y-138369414D01*
X94491230Y-138425726D01*
X94509744Y-138470425D01*
X94525385Y-138549057D01*
X94527768Y-138573248D01*
X94527768Y-142448827D01*
X94525385Y-142473018D01*
X94509744Y-142551650D01*
X94491230Y-142596349D01*
X94453604Y-142652661D01*
X94419391Y-142686874D01*
X94363079Y-142724500D01*
X94318380Y-142743014D01*
X94239748Y-142758655D01*
X94215557Y-142761038D01*
X92339979Y-142761038D01*
X92315788Y-142758655D01*
X92237155Y-142743014D01*
X92192456Y-142724500D01*
X92136144Y-142686874D01*
X92101931Y-142652661D01*
X92064305Y-142596349D01*
X92045790Y-142551649D01*
X92030150Y-142473017D01*
X92027768Y-142448827D01*
X92027768Y-138573248D01*
X92030150Y-138549058D01*
X92045790Y-138470426D01*
X92064305Y-138425726D01*
X92101931Y-138369414D01*
X92136144Y-138335201D01*
X92192456Y-138297575D01*
X92237156Y-138279060D01*
X92315789Y-138263420D01*
X92339979Y-138261038D01*
X94215557Y-138261038D01*
X94239747Y-138263420D01*
G37*
%LPD*%
M02*
